<svg width="63" height="63" viewBox="0 0 63 63" fill="none" xmlns="http://www.w3.org/2000/svg">
<circle cx="31.5769" cy="31.5447" r="31.0638" fill="black"/>
<path d="M22.379 22.3097C27.3592 17.3307 35.3442 17.173 40.5316 21.8089L39.8102 22.5303C39.6218 22.7175 39.5549 22.9926 39.6342 23.2455C39.7136 23.4983 39.9255 23.6855 40.1858 23.7326L43.5957 24.3487C43.6378 24.3561 43.68 24.3598 43.7209 24.3598C43.9081 24.3598 44.0903 24.2854 44.2241 24.1503C44.389 23.9855 44.4621 23.75 44.42 23.5231L43.8039 20.1145C43.7568 19.853 43.5697 19.6423 43.3168 19.5629C43.0652 19.4849 42.79 19.5506 42.6016 19.739L41.8269 20.5137C35.9242 15.164 26.7766 15.3202 21.0824 21.0132C17.5596 24.536 16.0079 29.5658 16.9338 34.468C17.0169 34.908 17.4011 35.2154 17.8337 35.2154C17.8895 35.2154 17.9465 35.2092 18.0048 35.1993C18.5018 35.1051 18.829 34.6266 18.7361 34.1284C17.9242 29.8224 19.2864 25.4047 22.3801 22.3096L22.379 22.3097Z" fill="white"/>
<path d="M46.5533 28.8654C46.4702 28.4253 46.086 28.1179 45.6534 28.1179C45.5976 28.1179 45.5406 28.1229 45.4824 28.134C44.9853 28.227 44.6581 28.7067 44.7511 29.205C45.5629 33.5109 44.2007 37.9286 41.107 41.0237C36.1267 46.0027 28.1418 46.1604 22.9544 41.5245L23.6757 40.8031C23.8641 40.6159 23.9311 40.3407 23.8517 40.0879C23.7724 39.835 23.5605 39.6478 23.3002 39.6007L19.8903 38.9847C19.8481 38.9773 19.806 38.9735 19.7651 38.9735C19.5779 38.9735 19.3957 39.0479 19.2619 39.183C19.097 39.3479 19.0239 39.5821 19.066 39.8102L19.6821 43.2188C19.7292 43.4804 19.9163 43.6911 20.1692 43.7704C20.4208 43.8485 20.696 43.7828 20.8844 43.5944L21.6591 42.8197C27.5627 48.1693 36.7094 48.0132 42.4036 42.3189C45.9264 38.7961 47.4781 33.7664 46.5522 28.8641L46.5533 28.8654Z" fill="white"/>
</svg>
