<svg width="92" height="102" viewBox="0 0 92 102" fill="none" xmlns="http://www.w3.org/2000/svg">
<path fill-rule="evenodd" clip-rule="evenodd" d="M55.984 3.34154C56.1012 3.43663 56.5002 4.2421 56.8707 5.13155C57.4906 6.61973 57.5299 6.77446 57.3649 7.07215C56.8897 7.92899 54.2524 9.07757 53.1473 8.909C52.9447 8.87808 52.7612 8.68052 52.5707 8.288C52.3855 7.90648 52.23 7.73597 52.1093 7.78228C51.948 7.84425 48.7899 9.83842 43.9459 12.937C40.2998 15.2694 39.9396 15.5145 39.9396 15.6637C39.9396 15.7492 40.0584 16.1712 40.2035 16.6014L40.4673 17.3836L41.8512 17.0141C42.6123 16.8109 44.1074 16.4121 45.1736 16.128C55.0871 13.4862 54.5187 13.6551 54.6013 13.3262C54.7436 12.7582 56.1308 11.9883 57.0118 11.9883C57.4586 11.9883 57.6426 12.2475 58.0539 13.456L58.3554 14.3414L57.9367 14.6933C57.4892 15.0695 56.363 15.4814 55.7821 15.4814C55.492 15.4814 55.3895 15.3887 55.212 14.9652C55.0928 14.6814 54.9623 14.4485 54.9218 14.4477C54.8815 14.4471 52.4971 15.2347 49.6232 16.198C46.7495 17.1615 43.6712 18.187 42.7828 18.4771C41.8943 18.7673 41.1427 19.0273 41.1125 19.0551C41.0824 19.0829 41.1916 19.533 41.3552 20.0553C41.6141 20.8814 41.6323 21.067 41.4955 21.482C41.4089 21.7445 41.2092 22.0439 41.0515 22.1473C40.8939 22.2506 39.5247 22.7706 38.0087 23.3028C36.4928 23.8351 35.2298 24.2931 35.2023 24.3207C35.1524 24.3707 37.109 25.2652 41.8039 27.3388C44.1026 28.3541 44.2753 28.4099 44.6729 28.2659C45.484 27.9723 46.1226 28.6334 45.7719 29.4038C45.6515 29.6685 45.6791 29.8264 45.935 30.3322C46.1047 30.6673 46.8062 32.2224 47.494 33.7878C48.1819 35.3532 48.9392 37.0512 49.177 37.5612C49.6091 38.4883 49.9908 38.856 50.448 38.7856C50.8561 38.7229 51.31 39.1444 51.641 39.8936C51.8172 40.2926 52.1897 40.8668 52.4687 41.17C52.7479 41.4731 53.4186 42.3161 53.9592 43.0433C57.5426 47.8635 59.4002 53.5659 58.6144 57.3338C58.3656 58.5263 57.696 59.8378 57.1923 60.1184C56.9791 60.2373 55.7869 60.9094 54.543 61.6121C51.7345 63.1988 51.3444 63.3399 49.7562 63.3454C46.6118 63.3562 43.247 61.6143 39.6905 58.1347C38.1324 56.6104 37.1575 55.4236 35.8974 53.5172C33.8447 50.4115 32.3148 46.2935 32.3148 43.874C32.3148 43.3498 32.1886 42.8888 31.7979 41.9872C31.5136 41.3309 31.281 40.709 31.281 40.6053C31.281 40.5014 31.4863 40.2226 31.7372 39.9856L32.1935 39.5549L31.5203 37.997C30.9214 36.6112 30.7961 36.4142 30.3855 36.2132C30.013 36.0307 29.916 35.9037 29.8826 35.5545C29.84 35.1101 30.1338 34.6287 30.4477 34.6287C30.5454 34.6287 30.7347 34.0852 30.9319 33.2379C31.9487 28.872 32.7304 25.2986 32.6799 25.248C32.648 25.2161 31.2915 25.6545 29.6657 26.2221C28.0396 26.79 26.5021 27.2542 26.249 27.2539C25.3522 27.253 25.0267 26.906 24.5294 25.4215C24.227 24.5188 24.0231 24.0938 23.9012 24.1127C23.8019 24.128 20.3703 24.8412 16.2751 25.6975C12.1799 26.5539 8.7895 27.2544 8.74078 27.2544C8.69193 27.2544 8.66957 27.5261 8.6909 27.8582C8.72721 28.4232 8.70162 28.4787 8.29518 28.7196C7.70238 29.0708 6.08722 29.1834 5.79774 28.8936C5.51381 28.6094 5.23389 26.655 5.44131 26.405C5.77008 26.0083 7.603 25.6797 8.20213 25.9098C8.31457 25.9531 8.40658 26.0695 8.40658 26.1686C8.40658 26.2677 8.47921 26.3487 8.56812 26.3484C8.65691 26.3483 11.1722 25.6766 14.1575 24.8558C17.1428 24.0351 20.0215 23.2437 20.5546 23.0973C23.2797 22.3483 23.3977 22.3146 23.3977 22.2816C23.3977 21.9955 22.9369 21.0556 22.7761 21.014C22.656 20.9829 19.2621 20.9437 15.2343 20.9272L7.91084 20.8969L7.93255 21.5115C7.95232 22.0699 7.91601 22.1523 7.53671 22.4117C6.50813 23.1151 3.66745 23.3577 3.12402 22.7886C2.94955 22.6058 2.79732 22.0373 2.59377 20.8071L2.30816 19.0819L2.58549 18.7863C3.00641 18.3379 4.56898 17.9232 5.82759 17.9259C7.16142 17.9289 7.43655 18.0866 7.56139 18.9202L7.65237 19.5276L8.77257 19.4391C9.38863 19.3905 10.0963 19.3256 10.3451 19.295C10.5939 19.2644 13.2981 18.9994 16.3545 18.7061C19.4108 18.4128 21.9217 18.1635 21.9341 18.1521C21.9467 18.1407 21.8943 17.897 21.8179 17.6105C21.7024 17.1767 21.7186 17.0064 21.9151 16.5917C22.1918 16.008 22.4688 15.8701 25.4331 14.8404L27.4039 14.1557L27.4056 13.6219C27.41 12.2765 28.6782 9.81422 30.2794 8.04245C30.9126 7.34164 30.9753 7.21964 30.9236 6.78753C30.7649 5.45822 32.5755 4.87125 33.2594 6.03031C33.5993 6.60615 33.5356 7.04032 33.0385 7.5379C32.569 8.00791 32.3315 8.06031 31.688 7.83571C31.2987 7.69987 31.2561 7.7207 30.6985 8.32086C29.2924 9.83428 27.9355 12.3411 27.9253 13.4438C27.9228 13.7107 27.9474 13.9289 27.9797 13.9289C28.0606 13.9289 33.308 12.1389 35.2872 11.4362C37.5497 10.6329 38.0516 10.7544 38.655 12.2511C38.837 12.7024 39.0416 13.0902 39.1096 13.1129C39.2349 13.1548 51.5369 7.02221 51.7524 6.81056C51.822 6.74212 51.7639 6.4183 51.6088 6.01051C51.2878 5.16687 51.3675 4.94835 52.2053 4.37601C53.5006 3.49109 55.495 2.94514 55.984 3.34154ZM54.4784 3.84946C53.7467 4.04714 52.7207 4.56166 52.2362 4.9741L51.8231 5.32561L52.3552 6.55466C52.648 7.23063 52.9028 7.79975 52.9217 7.81954C52.9405 7.83921 53.2542 7.65446 53.6185 7.40904C54.3537 6.91367 55.4375 6.47134 56.2244 6.34533C56.508 6.29992 56.74 6.2364 56.74 6.20405C56.74 6.17171 56.5684 5.75383 56.3586 5.27541C56.1489 4.79699 55.9177 4.2487 55.8449 4.05697C55.6954 3.66342 55.3573 3.61206 54.4784 3.84946ZM55.5971 7.01342C54.5154 7.33504 52.6951 8.49526 53.2723 8.49526C54.0594 8.49526 56.2051 7.59249 56.6882 7.05792C56.8994 6.8244 56.895 6.8134 56.5896 6.8134C56.4138 6.8134 55.9672 6.90345 55.5971 7.01342ZM34.5936 12.1745C33.3048 12.6326 30.1275 13.738 27.5332 14.6307C22.5223 16.355 22.2346 16.4986 22.2346 17.2752C22.2346 17.4711 22.3124 17.7378 22.4075 17.868C22.5745 18.0966 22.6608 18.0971 24.9158 17.8816C27.2053 17.6627 27.2624 17.6632 27.8215 17.9108C29.068 18.4627 29.2458 20.4847 28.0867 20.9259C27.901 20.9965 26.8237 21.0468 25.6928 21.0378C24.5618 21.0286 23.6131 21.0445 23.5846 21.0731C23.5282 21.1295 24.3478 23.5197 24.5811 23.9792C24.66 24.1346 24.8876 24.3294 25.0869 24.412C25.4075 24.545 25.7288 24.4654 27.8804 23.7202C29.2176 23.2572 32.4275 22.1475 35.0136 21.2543C37.5997 20.3611 39.8227 19.5333 39.9534 19.4148C40.3689 19.0384 40.3578 18.7433 39.874 17.2896C39.6141 16.5085 39.3831 15.8695 39.3609 15.8695C39.3387 15.8695 38.4857 16.4036 37.4654 17.0563C35.1422 18.5424 35.0158 18.594 34.5468 18.2455C34.0697 17.8909 33.8699 17.4705 33.8676 16.8175C33.8646 15.9891 34.2333 15.6693 36.5123 14.5228C38.796 13.3739 38.6998 13.5104 38.1431 12.2118C37.8964 11.6359 37.5805 11.3714 37.1137 11.3496C37.0165 11.3452 35.8825 11.7164 34.5936 12.1745ZM55.6799 12.9074C55.0785 13.2145 55.0561 13.3822 55.6092 13.4356C55.9273 13.4663 56.0292 13.538 56.0292 13.731C56.0292 13.8712 55.9083 14.0464 55.7603 14.1202C55.6124 14.194 55.5144 14.3231 55.5423 14.4071C55.5769 14.5113 55.7797 14.4607 56.1793 14.2479C56.5017 14.0763 56.9633 13.8988 57.205 13.8534C57.4468 13.808 57.6446 13.7556 57.6446 13.737C57.6446 13.7183 57.5232 13.4281 57.3747 13.0922C57.1097 12.4925 57.0963 12.4829 56.6377 12.5691C56.3807 12.6174 55.9497 12.7696 55.6799 12.9074ZM56.6431 14.5723C56.3411 14.7096 56.0938 14.855 56.0938 14.8954C56.0938 15.0233 56.7891 14.8123 57.1923 14.5621C57.6997 14.2472 57.3441 14.2538 56.6431 14.5723ZM4.95889 18.467C4.40292 18.5436 3.69601 18.7171 3.38792 18.8526C2.8839 19.0743 2.83492 19.1348 2.89747 19.4572C2.93585 19.6542 3.03588 20.2667 3.11988 20.8181C3.20388 21.3695 3.32472 21.8207 3.38831 21.8207C3.45202 21.8207 3.70493 21.7368 3.95047 21.634C4.55128 21.3827 6.36714 21.1263 6.97144 21.2074L7.45943 21.273L7.29155 20.2855C6.94495 18.2472 7.0787 18.4689 6.12199 18.3471C6.03838 18.3363 5.51498 18.3904 4.95889 18.467ZM4.23724 22.0781C3.18475 22.4737 3.39657 22.6452 4.8383 22.5642C6.08968 22.4941 7.57845 22.0493 7.42014 21.7929C7.27824 21.5632 5.08411 21.7595 4.23724 22.0781ZM33.8359 24.7527C33.5325 24.871 33.2741 24.973 33.2621 24.9795C33.25 24.986 32.8849 26.563 32.4508 28.484C32.0167 30.4049 31.527 32.5639 31.3626 33.2818C31.0716 34.5532 31.07 34.5946 31.3016 34.8809C31.5752 35.2192 31.6003 35.5178 31.3933 35.9725C31.2669 36.2505 31.339 36.5095 31.9307 37.9003L32.6144 39.5069L32.9986 39.3642C33.2099 39.2856 33.469 39.0905 33.5743 38.9305C33.9403 38.3747 34.9896 37.7444 37.7476 36.4234L40.5212 35.0948L42.0074 35.1C43.2691 35.1044 43.6453 35.1571 44.4982 35.4488C45.6887 35.8561 46.8297 36.4173 47.8637 37.1043C48.7764 37.7104 48.8176 37.9066 47.3022 34.4347C45.3271 29.9093 45.2925 29.8419 44.9425 29.8419C44.6033 29.8419 44.2825 29.5459 44.1503 29.1109C44.0851 28.8959 43.3697 28.5225 41.0011 27.4675C39.3155 26.7166 37.1805 25.7538 36.2565 25.3279C35.3324 24.9022 34.534 24.55 34.4821 24.5456C34.4303 24.5412 34.1395 24.6343 33.8359 24.7527ZM6.33884 26.5201C5.9019 26.6716 5.88795 26.6966 5.92917 27.2568C5.95269 27.5757 6.01614 27.8827 6.07017 27.9389C6.12418 27.9952 6.42491 27.982 6.7383 27.9097C7.05169 27.8374 7.49703 27.7768 7.7281 27.775C8.02198 27.7728 8.14811 27.711 8.14811 27.5692C8.14811 27.4354 8.07109 27.3904 7.92195 27.4368C7.35384 27.6138 7.17744 26.9168 7.72887 26.6739C7.88835 26.6037 8.01888 26.5017 8.01888 26.4475C8.01888 26.2943 6.84376 26.3452 6.33884 26.5201ZM6.72654 28.4188C6.44894 28.5078 6.47621 28.5229 6.92039 28.5262C7.2047 28.5282 7.55363 28.48 7.69579 28.4188C7.90424 28.3291 7.86677 28.3083 7.50195 28.3114C7.25317 28.3135 6.90424 28.3619 6.72654 28.4188ZM39.0996 36.3896C37.7178 37.063 37.5936 37.1501 37.9604 37.1884C38.2606 37.2197 38.8554 36.999 40.1574 36.3731C41.8724 35.5484 41.9173 35.517 41.2966 35.5743C40.8589 35.6145 40.1503 35.8776 39.0996 36.3896ZM41.1393 36.5205L39.3581 37.3773L40.3273 37.7006L41.2966 38.024L43.0831 37.1877C44.0657 36.7277 44.8798 36.2985 44.8924 36.234C44.9208 36.087 43.7439 35.677 43.2717 35.6694C43.0784 35.6663 42.1189 36.0492 41.1393 36.5205ZM43.8095 37.4318C42.8137 37.9061 42.0443 38.3346 42.1 38.384C42.1557 38.4333 42.5032 38.6348 42.8723 38.8318L43.5433 39.1898L45.3601 38.3103C46.3592 37.8266 47.1765 37.397 47.1762 37.3558C47.1754 37.249 45.9817 36.5775 45.7846 36.5731C45.6943 36.571 44.8054 36.9574 43.8095 37.4318ZM45.9918 38.5905C44.9731 39.0618 44.1211 39.4638 44.0984 39.4837C44.0756 39.5036 44.3197 39.7011 44.641 39.9223L45.2252 40.3245L47.0732 39.4693C48.0897 38.9989 48.9355 38.6009 48.9528 38.5846C48.9778 38.5608 47.9455 37.7576 47.8657 37.7389C47.8538 37.736 47.0105 38.1193 45.9918 38.5905ZM35.3549 38.24C34.9034 38.4626 34.3459 38.8591 34.116 39.1212C31.32 42.309 33.2105 49.8188 38.3588 55.9753C39.657 57.5278 40.9125 58.7142 42.5417 59.928C44.8624 61.6569 46.8678 62.572 48.9335 62.8446C49.9197 62.9746 50.2013 62.9662 50.9006 62.7854C53.1829 62.1955 54.305 60.6739 54.5003 57.9046C54.7996 53.6597 51.8296 47.4139 47.4251 43.0248C45.0663 40.6743 43.0433 39.2891 40.5654 38.3276C39.4126 37.8803 38.5381 37.7388 37.25 37.7915C36.3624 37.8277 36.0333 37.9057 35.3549 38.24ZM47.5304 39.8096C46.5948 40.2399 45.804 40.6172 45.773 40.6482C45.6913 40.7301 46.8252 41.7326 47.0066 41.739C47.0908 41.7419 47.5108 41.5919 47.94 41.4056C48.6144 41.1127 48.7032 41.0349 48.5947 40.8318C48.295 40.2713 48.6823 39.2862 49.2023 39.2862C49.2965 39.2862 49.3737 39.2279 49.3737 39.1568C49.3737 38.9632 49.3623 38.9673 47.5304 39.8096ZM39.2279 40.0126C41.536 40.5712 44.4841 42.6325 46.9167 45.3886C49.4915 48.306 51.1955 51.2964 52.1136 54.509C52.3397 55.3003 52.4041 55.8629 52.4069 57.075C52.4104 58.514 52.3844 58.6809 52.0521 59.3585C51.4584 60.5687 50.411 61.1864 48.9648 61.1794C43.5702 61.153 35.5016 52.307 34.4441 45.2593C33.8477 41.2846 35.7704 39.1759 39.2279 40.0126ZM36.2304 40.7331C35.6226 41.1358 35.4164 41.7318 35.4164 43.0868C35.4164 45.457 36.5671 48.4274 38.7553 51.706C40.118 53.7478 40.9683 54.748 42.6535 56.2918C45.2663 58.6852 47.8218 59.9859 49.9117 59.9859C50.9083 59.9859 51.2469 59.8056 51.5792 59.098C52.5934 56.938 51.4927 52.7171 48.8978 48.8149C46.788 45.6422 44.3511 43.2322 41.5902 41.5875C39.4562 40.3164 37.3631 39.9827 36.2304 40.7331ZM47.444 42.213C47.3532 42.2986 48.2465 43.1674 48.4254 43.1674C48.5157 43.1674 48.7901 43.0716 49.0352 42.9545L49.4809 42.7419L49.2707 42.2753C48.9144 41.4851 48.91 41.4833 48.1739 41.8368C47.8031 42.0146 47.4747 42.184 47.444 42.213ZM52.0762 42.2106C51.8704 42.4592 50.6035 43.038 50.2657 43.038C50.0076 43.038 48.8565 43.5612 48.8571 43.6783C48.8573 43.7175 49.0757 44.003 49.3425 44.3126L49.8276 44.8757L51.5714 44.0706C52.5306 43.6279 53.3379 43.2451 53.3655 43.2201C53.4523 43.1415 52.5473 42.0112 52.3941 42.007C52.314 42.0048 52.1709 42.0964 52.0762 42.2106ZM51.908 44.4782C50.0056 45.3406 50.0555 45.2756 50.6965 46.0589L50.9983 46.4274L52.706 45.619C53.6453 45.1745 54.4138 44.7602 54.4138 44.6988C54.4138 44.5409 53.8505 43.6884 53.745 43.6864C53.6971 43.6856 52.8704 44.0418 51.908 44.4782ZM53.0422 46.0204C52.1305 46.4513 51.3598 46.8285 51.3295 46.8588C51.2737 46.9145 51.9205 47.9542 52.011 47.9542C52.0788 47.9542 55.3637 46.3995 55.4245 46.3386C55.4946 46.2684 54.9019 45.2373 54.7916 45.2373C54.7412 45.2373 53.954 45.5898 53.0422 46.0204ZM53.9292 47.635C53.0584 48.0451 52.3461 48.4326 52.3461 48.496C52.3461 48.7101 52.8673 49.636 52.9878 49.636C53.2777 49.636 56.2841 48.0481 56.2522 47.9119C56.1458 47.4569 55.7723 46.7866 55.6517 46.8342C55.5751 46.8646 54.8 47.2249 53.9292 47.635ZM59.1646 48.1159C59.4058 48.4163 60.0657 49.8243 60.3937 50.7389C61.2854 53.2251 61.3843 56.3223 60.6571 58.9833C60.5357 59.4273 60.3825 59.7272 60.2769 59.7272C60.0396 59.7272 60.0523 59.5561 60.3785 58.3571C60.6093 57.5091 60.6571 56.9793 60.6575 55.2638C60.6579 53.4343 60.6182 53.0445 60.3159 51.9093C60.1279 51.2029 59.7116 50.0848 59.3909 49.4248C59.0702 48.7648 58.8078 48.1639 58.8078 48.0895C58.8078 47.9045 59.0064 47.9191 59.1646 48.1159ZM54.8527 49.3292C54.0071 49.7296 53.2924 50.0776 53.2644 50.1024C53.2011 50.1587 53.6367 51.3179 53.7211 51.3179C53.8258 51.3179 56.9292 49.8719 57.0135 49.7839C57.1125 49.6803 56.64 48.6011 56.4955 48.6011C56.4376 48.6011 55.6983 48.9286 54.8527 49.3292ZM32.4058 49.663C32.4783 49.7548 32.5777 50.0048 32.6267 50.2182C32.8055 50.998 34.3972 53.9998 35.2121 55.0947C35.6726 55.7132 36.4594 56.6514 36.9605 57.1797C37.7593 58.0214 38.036 58.4334 37.8027 58.4334C37.4078 58.4334 35.6536 56.4963 34.4966 54.7826C33.5984 53.4522 32.7073 51.7138 32.3266 50.5493C32.0703 49.7654 32.1128 49.291 32.4058 49.663ZM55.3028 51.1938C54.565 51.5631 53.9475 51.8772 53.9306 51.8919C53.9135 51.9068 53.9955 52.1631 54.1126 52.4616C54.3655 53.106 54.2906 53.1166 56.2231 52.1634C57.6767 51.4464 57.6954 51.4206 57.3779 50.5847C57.2421 50.2268 57.225 50.2318 55.3028 51.1938ZM56.0601 52.8325L54.5186 53.5708L54.602 54.0939C54.648 54.3816 54.7309 54.6625 54.7864 54.7181C54.9154 54.8473 58.0326 53.3947 58.0316 53.2058C58.0303 52.9448 57.7626 52.0941 57.6817 52.0941C57.6378 52.0941 56.908 52.4264 56.0601 52.8325ZM56.3707 54.6934L54.903 55.38L54.9663 55.9427C55.0012 56.2523 55.0679 56.5438 55.1145 56.5905C55.1612 56.6373 55.7642 56.3966 56.4543 56.0557C58.3092 55.1393 58.2386 55.203 58.1825 54.4957C58.1515 54.1062 58.0812 53.9095 57.9863 53.9475C57.9051 53.9801 57.178 54.3157 56.3707 54.6934ZM55.9323 56.8782C55.0746 57.2865 55.06 57.3019 55.06 57.7998V58.306L56.6108 57.5278C58.1463 56.7573 58.1616 56.7451 58.1616 56.2994V55.8492L57.4831 56.1561C57.11 56.3249 56.412 56.6498 55.9323 56.8782ZM56.2064 58.2452C55.5403 58.5786 54.9757 58.8692 54.9518 58.8909C54.8833 58.9529 54.6936 59.8565 54.749 59.8565C54.7763 59.8565 55.4685 59.5228 56.2872 59.1148C57.2847 58.6178 57.8 58.287 57.8496 58.1122C58.0636 57.3578 58.07 57.3906 57.7336 57.5185C57.5596 57.5848 56.8723 57.9118 56.2064 58.2452ZM55.8461 59.8647C54.7282 60.4559 54.057 60.9657 54.2034 61.1121C54.2882 61.1971 57.174 59.5235 57.2293 59.3573C57.3093 59.1172 57.1471 59.1767 55.8461 59.8647ZM66.8404 72.7284C73.4395 73.8404 81.1994 79.511 83.9888 85.2597C84.8309 86.9951 85.0714 87.9294 85.0762 89.4831C85.0798 90.6625 85.0352 90.951 84.7383 91.6723C84.55 92.1294 84.396 92.5223 84.396 92.5456C84.396 92.569 85.5301 92.5881 86.9161 92.5881C89.07 92.5881 89.4362 92.6162 89.4362 92.7821C89.4362 92.9484 89.0557 92.9762 86.7876 92.9762H84.1391L83.118 95.0138C82.5564 96.1346 81.9599 97.179 81.7922 97.335C81.0596 98.017 79.4362 98.5414 76.9651 98.8944C74.631 99.2279 64.5563 99.2221 61.974 98.8858C58.9065 98.4865 56.7635 97.9217 55.4983 97.1795L54.8971 96.8268L47.2568 96.7976C43.0547 96.7816 38.607 96.7001 37.373 96.6162C34.6195 96.4294 32.4277 96.1493 31.9574 95.9241C31.6087 95.7571 31.6035 95.7366 31.5673 94.3655L31.5306 92.9762H29.3381C27.4753 92.9762 27.1455 92.9469 27.1455 92.7821C27.1455 92.6172 27.4758 92.5881 29.3424 92.5881H31.5394V91.5699V90.5517L30.7317 90.3927C29.3709 90.1248 29.4717 90.3736 29.4717 87.2837C29.4717 84.8366 29.4934 84.5644 29.6978 84.4565C29.9681 84.3138 31.0611 84.0976 32.0887 83.9838L32.8318 83.9014V81.8437C32.8318 79.38 32.7388 79.5061 34.7703 79.2137C37.5839 78.8089 41.0437 78.6816 49.2527 78.6809L57.3382 78.6804L57.7709 77.6454C58.9115 74.917 59.5094 74.0625 60.7512 73.3859C62.21 72.591 64.5353 72.3399 66.8404 72.7284ZM62.2522 73.401C60.2315 74.0007 59.0771 75.2439 58.8221 77.0945C58.2823 81.0127 62.0571 86.5353 68.0263 90.5605C69.208 91.3573 72.2349 92.8465 73.71 93.3568C77.3028 94.5998 80.7408 94.5865 82.6426 93.3225C83.4388 92.7932 83.8778 92.2668 84.2859 91.3519C84.6822 90.4639 84.6725 88.6372 84.2649 87.3484C82.2359 80.9327 73.6181 74.2197 66.092 73.1924C64.9809 73.0407 63.127 73.1414 62.2522 73.401ZM67.2257 74.7927C72.6661 75.9268 78.959 80.4168 81.7051 85.1237C82.4325 86.3704 82.7415 87.3053 82.8155 88.4826C82.8971 89.7794 82.6631 90.4196 81.8189 91.2101C81.0096 91.968 80.1139 92.2447 78.5159 92.2309C75.0241 92.2004 70.8556 90.3946 66.8781 87.1892C63.1846 84.2127 60.8755 80.6641 60.8755 77.9648C60.8755 76.6041 61.8754 75.2515 63.1726 74.8574C63.9321 74.6266 66.2512 74.5896 67.2257 74.7927ZM62.2469 76.0714C62.0479 76.202 61.7667 76.5769 61.6219 76.9046C60.8646 78.6183 62.0557 81.5367 64.7049 84.4598C67.8045 87.8795 72.5617 90.7284 76.5774 91.5696C77.0039 91.6589 77.9382 91.73 78.6537 91.7276C79.7752 91.7238 80.0559 91.6767 80.6896 91.3863C81.5972 90.9704 81.7314 90.6837 81.6443 89.3452C81.5193 87.4235 80.3342 85.2593 78.1206 82.9103C74.8629 79.4531 70.4334 76.8589 66.1741 75.9134C65.8542 75.8425 64.9212 75.7955 64.1005 75.8092C62.9003 75.8293 62.5378 75.8806 62.2469 76.0714ZM57.4728 79.8519C56.9622 81.1023 56.5308 82.7278 56.7708 82.4969C56.8077 82.4613 57.1649 81.6815 57.5644 80.764C58.2274 79.2414 58.4561 78.357 58.1869 78.357C58.1298 78.357 57.8084 79.0297 57.4728 79.8519ZM38.0657 79.3834C35.7166 79.5559 33.8656 79.7871 33.8656 79.9079C33.8656 80.0793 36.7415 80.3585 40.3273 80.5351C43.1311 80.6731 52.3418 80.7236 54.6513 80.6135L56.5739 80.5219L56.8377 79.8969L57.1015 79.2719L55.9192 79.2207C53.6982 79.1242 39.8791 79.2502 38.0657 79.3834ZM57.713 81.841C57.32 82.7888 56.9978 83.659 56.9972 83.7745C56.9955 84.0513 57.5411 85.6019 57.6403 85.6019C57.6825 85.6019 57.7794 85.4418 57.8556 85.2461C57.9317 85.0504 58.2703 84.2147 58.6081 83.3889L59.2225 81.8877L58.8624 80.9651C58.6644 80.4577 58.4857 80.0594 58.465 80.08C58.4445 80.1007 58.106 80.8931 57.713 81.841ZM34.1241 82.7418C34.1241 85.1316 34.1082 85.0844 34.9132 85.0844H35.2934L35.258 82.9231L35.2226 80.7618L34.8995 80.672C34.0873 80.4461 34.1241 80.3476 34.1241 82.7418ZM35.8041 83.0144V85.2138H36.1091C36.277 85.2138 36.6841 85.2508 37.0138 85.296L37.6134 85.3783V83.1708C37.6134 80.6762 37.7008 80.857 36.4826 80.8301L35.8041 80.8151V83.0144ZM38.1303 83.1262V85.3079L38.73 85.3902C39.0597 85.4355 39.4668 85.4725 39.6346 85.4725H39.9396V83.2826C39.9396 80.8078 40.0265 80.9864 38.8088 80.9594L38.1303 80.9444V83.1262ZM54.8015 83.3594C54.8015 84.6164 54.8423 85.6042 54.8921 85.5543C54.942 85.5043 55.0795 84.9853 55.1979 84.4007C55.3161 83.8161 55.5951 82.8822 55.8179 82.3254C56.0407 81.7685 56.2231 81.2592 56.2231 81.1933C56.2231 81.1276 55.9032 81.0738 55.5123 81.0738H54.8015V83.3594ZM40.4858 83.2948L40.4504 85.451L41.3695 85.4941C41.8749 85.5178 42.3125 85.513 42.3418 85.4832C42.4353 85.3887 42.3988 81.2501 42.3036 81.1548C42.2533 81.1045 41.8317 81.0801 41.3666 81.1008L40.5212 81.1385L40.4858 83.2948ZM52.3753 83.4349L52.3399 85.6019H53.3122H54.2846V83.3968V81.1918L53.3476 81.2298L52.4107 81.2679L52.3753 83.4349ZM50.0488 83.3927C50.0293 84.5615 50.0584 85.5536 50.1134 85.5976C50.1686 85.6416 50.6063 85.6556 51.086 85.6287L51.9584 85.5798V83.3858V81.1918L51.0214 81.2298L50.0845 81.2679L50.0488 83.3927ZM47.6936 83.4672V85.7313H48.5983H49.5029V83.4672V81.2032H48.5983H47.6936V83.4672ZM45.2382 83.391V85.5788L45.9982 85.6227C47.2692 85.6961 47.1767 85.8644 47.1767 83.4792C47.1767 82.3223 47.1379 81.3368 47.0905 81.2895C47.0432 81.242 46.6071 81.2032 46.1213 81.2032H45.2382V83.391ZM42.912 83.4025V85.6019H43.8166H44.7213V83.4025V81.2032H43.8166H42.912V83.4025ZM58.7513 84.4649C58.3558 85.4378 58.0335 86.3098 58.0348 86.403C58.0389 86.6847 58.8207 87.8411 58.9252 87.72C59.0806 87.5402 60.3586 84.3147 60.3586 84.1028C60.3586 83.9973 60.2713 83.7674 60.1647 83.5921C60.0581 83.4166 59.879 83.1226 59.7667 82.9385C59.6544 82.7545 59.5417 82.6246 59.5163 82.6501C59.491 82.6755 59.1467 83.4922 58.7513 84.4649ZM60.0652 86.4768C59.6551 87.4542 59.3208 88.3248 59.3221 88.4112C59.3235 88.4978 59.5078 88.7772 59.7315 89.0323L60.1385 89.4963L60.8909 87.7108C61.3047 86.7287 61.645 85.8619 61.647 85.7844C61.651 85.6375 60.9882 84.7079 60.8755 84.7026C60.84 84.7009 60.4754 85.4993 60.0652 86.4768ZM30.6348 87.6104V89.7483L30.9663 89.8744C31.1486 89.9438 31.4103 90.0006 31.5478 90.0006C31.7852 90.0006 31.7979 89.8897 31.7979 87.8103C31.7979 85.3831 31.8594 85.5468 30.9256 85.4901C30.635 85.4725 30.6348 85.4743 30.6348 87.6104ZM32.3148 87.8583C32.3148 89.0282 32.3632 90.0152 32.4224 90.0518C32.4814 90.0884 32.9057 90.1569 33.3652 90.204L34.2007 90.2896L34.1497 88.1075C34.1157 86.6537 34.049 85.8936 33.9499 85.8302C33.868 85.778 33.4667 85.7344 33.0579 85.7332L32.3148 85.7313V87.8583ZM34.7703 87.7259C34.7703 88.7519 34.7418 89.6689 34.7071 89.7636C34.5866 90.0913 34.8385 90.2328 35.7072 90.3257L36.5795 90.4188V88.213V86.0072L36.2241 85.9533C36.0287 85.9236 35.6215 85.8906 35.3195 85.88L34.7703 85.8606V87.7259ZM37.0965 88.1893V90.3887L37.5165 90.3901C37.7476 90.3909 38.1545 90.4276 38.4211 90.4718L38.9058 90.552V88.271V85.99H38.0011H37.0965V88.1893ZM53.7676 88.254V90.3887H54.2069H54.6463L54.7298 88.7392C54.7757 87.8319 54.8448 86.8714 54.8834 86.6045L54.9535 86.1194H54.3606H53.7676V88.254ZM51.3768 88.3187V90.4534L51.8881 90.4952C52.1693 90.5181 52.5908 90.5009 52.825 90.4569L53.2507 90.3769V88.2425V86.108L52.3138 86.146L51.3768 86.1841V88.3187ZM49.5514 86.2487H48.986V88.3891V90.5295L49.9229 90.4914L50.8599 90.4534L50.8954 88.2696L50.931 86.0857L50.5239 86.1672C50.2999 86.2121 49.8623 86.2487 49.5514 86.2487ZM46.6598 88.3187V90.5181H47.5644H48.4691V88.3899V86.2617L47.726 86.215C47.3172 86.1894 46.9101 86.1573 46.8213 86.1438C46.6975 86.1251 46.6598 86.6325 46.6598 88.3187ZM44.2043 88.3187V90.5181H45.1736H46.1428V88.405C46.1428 87.2427 46.1041 86.253 46.0566 86.2057C46.0093 86.1582 45.5732 86.1194 45.0874 86.1194H44.2043V88.3187ZM41.8781 88.3187V90.5181H42.8474H43.8166V88.3187V86.1194H42.8474H41.8781V88.3187ZM39.5519 88.3187V90.5181H40.4566H41.3612V88.3187V86.1194H40.4566H39.5519V88.3187ZM61.3317 88.1096L60.5781 89.9707L60.8421 90.3413C61.2463 90.909 61.6411 91.227 61.7722 91.0907C61.8357 91.0248 62.2036 90.1795 62.59 89.2123L63.2924 87.4536L62.7624 86.8652C62.4709 86.5415 62.1994 86.2703 62.1588 86.2627C62.1183 86.2551 61.7461 87.0862 61.3317 88.1096ZM62.9052 89.8966L62.1886 91.6683L62.7668 92.1427C63.0849 92.4036 63.3604 92.5959 63.3793 92.5702C63.398 92.5444 63.75 91.7088 64.1614 90.7134L64.9094 88.9035L64.3493 88.4205C64.0412 88.1549 63.7516 87.9798 63.7056 88.0311C63.6596 88.0826 63.2994 88.922 62.9052 89.8966ZM58.0949 89.8588C58.1779 90.3509 58.4026 90.595 58.4337 90.227C58.4592 89.9263 58.3948 89.2897 58.328 89.1807C58.1674 88.9186 58.0123 89.3696 58.0949 89.8588ZM64.5862 91.1824C64.1748 92.1874 63.855 93.0213 63.8754 93.0354C63.8958 93.0495 64.1332 93.2256 64.4031 93.4266C64.6891 93.6397 64.9395 93.7435 65.0037 93.6753C65.0642 93.611 65.4206 92.8066 65.7959 91.8876L66.478 90.217L65.9707 89.7872C65.6916 89.5509 65.4342 89.3569 65.3987 89.3563C65.3631 89.3555 64.9975 90.1773 64.5862 91.1824ZM66.1838 92.3139C65.8231 93.1948 65.5279 93.9895 65.5279 94.08C65.5279 94.2954 66.4397 94.832 66.5751 94.6964C66.7059 94.5655 67.9834 91.4876 67.9834 91.3036C67.9834 91.1248 67.0388 90.5213 66.9269 90.6286C66.8788 90.6745 66.5445 91.4329 66.1838 92.3139ZM57.7389 91.0524C55.4682 91.1992 54.8787 91.3126 55.3811 91.5055C55.6115 91.5941 59.6894 91.3512 60.3937 91.207C60.6863 91.1471 60.7239 91.0999 60.5992 90.9494C60.5152 90.848 60.3672 90.7955 60.2705 90.8326C60.1738 90.8697 59.0346 90.9687 57.7389 91.0524ZM32.7317 95.6287C32.7513 95.6442 33.0157 95.6951 33.3195 95.7417L33.8717 95.8264L33.8364 93.5928L33.801 91.359L33.2841 91.2943L32.7671 91.2296L32.7317 93.415C32.7122 94.617 32.7122 95.6132 32.7317 95.6287ZM34.4118 93.6554L34.4472 95.8871L35.3841 95.9251L36.3211 95.9632V93.7652V91.5673L35.7072 91.5188C35.3695 91.4921 34.9321 91.4598 34.7349 91.447L34.3765 91.4237L34.4118 93.6554ZM67.855 93.2349C67.4823 94.1244 67.1504 94.9212 67.1174 95.0057C67.0441 95.1931 68.1025 95.7573 68.2444 95.6065C68.4423 95.3962 69.6594 92.2981 69.5891 92.1841C69.5238 92.0786 68.5866 91.5501 68.5487 91.5976C68.5398 91.6087 68.2276 92.3455 67.855 93.2349ZM36.7088 93.8171V96.0811H37.678H38.6473V93.8883V91.6954L37.9042 91.6487C37.4954 91.6231 37.0593 91.591 36.9349 91.5775C36.7273 91.555 36.7088 91.7378 36.7088 93.8171ZM39.1642 93.9465V96.2105H40.0689H40.9735V94.0185V91.8267L40.4242 91.7771C40.1222 91.75 39.715 91.7175 39.5196 91.7051L39.1642 91.6824V93.9465ZM53.5092 94.0112V96.2105H54.0907H54.6723V94.0112V91.8118H54.0907H53.5092V94.0112ZM51.0537 94.0818V96.3517L51.9261 96.3135L52.7984 96.2752L52.8338 94.0435L52.8691 91.8118H51.9615H51.0537V94.0818ZM49.0183 91.8933C48.7313 91.9703 48.7275 91.9998 48.7275 94.1557V96.3399H49.6322H50.5368V94.0758V91.8118L49.9229 91.8136C49.5852 91.8145 49.1783 91.8505 49.0183 91.8933ZM43.9459 94.0758V96.3399H44.8505H45.7551V94.15C45.7551 91.6752 45.842 91.8537 44.6243 91.8268L43.9459 91.8118V94.0758ZM41.4904 94.0112C41.4904 96.2053 41.4911 96.2105 41.7812 96.2117C41.9412 96.2122 42.3774 96.2495 42.7505 96.2943L43.4289 96.376V94.0938V91.8118H42.4597H41.4904V94.0112ZM46.2721 94.1405V96.3399H47.2413H48.2106V94.1405V91.9412H47.2413H46.2721V94.1405ZM60.1001 94.1457C60.1001 96.1902 60.2235 95.9951 58.8434 96.1311L58.1684 96.1976L58.1326 94.3064C58.1068 92.9346 58.0526 92.4005 57.9354 92.3615C57.811 92.3201 57.7739 92.7556 57.7739 94.2592V96.2105H56.7476C55.8262 96.2105 55.4058 96.3412 55.6241 96.5597C55.7501 96.6857 58.0223 96.5968 59.8416 96.3945C62.2253 96.1295 63.1249 95.9368 63.1738 95.6805C63.2092 95.4938 63.0974 95.4965 62.012 95.7089C61.3513 95.8382 60.7381 95.9457 60.6493 95.9479C60.5277 95.9509 60.4878 95.5097 60.4878 94.1621C60.4878 93.1777 60.4506 92.3353 60.4052 92.2897C60.1736 92.0579 60.1001 92.5054 60.1001 94.1457ZM69.4246 94.2927C69.0583 95.1945 68.7588 95.9597 68.7588 95.9928C68.7588 96.0624 69.7422 96.4693 69.9105 96.4693C70.0273 96.4693 71.3434 93.4473 71.3434 93.1792C71.3434 92.9995 70.2801 92.4478 70.1677 92.5693C70.1251 92.6152 69.7908 93.3907 69.4246 94.2927ZM55.3765 93.0213C55.3345 93.1885 55.3188 93.7269 55.3416 94.218C55.3734 94.9032 55.4278 95.1108 55.5751 95.1108C55.8347 95.1108 55.8783 94.7926 55.7731 93.6678C55.684 92.7173 55.5198 92.4495 55.3765 93.0213ZM71.2566 94.9917C70.8871 95.8399 70.5809 96.5991 70.5764 96.6788C70.5685 96.8148 71.6926 97.2103 71.7779 97.1016C71.9179 96.9234 73.1811 93.8672 73.1343 93.8202C73.006 93.6919 72.1752 93.3774 72.056 93.4122C71.9859 93.4326 71.6262 94.1434 71.2566 94.9917ZM81.981 95.3083C81.3173 96.6502 81.17 97.079 81.4277 96.9196C81.5537 96.8416 82.9745 94.1028 82.9745 93.9378C82.9745 93.8951 82.9017 93.8811 82.8129 93.9068C82.724 93.9322 82.3498 94.5629 81.981 95.3083ZM73.0248 95.6374C72.6391 96.5583 72.3931 97.3107 72.4574 97.3719C72.52 97.4315 72.78 97.5366 73.0351 97.6054L73.499 97.7306L74.181 96.0586C74.5561 95.1389 74.8417 94.3682 74.8156 94.3458C74.737 94.2787 74.0033 94.0324 73.8493 94.0214C73.7703 94.0158 73.3993 94.743 73.0248 95.6374ZM80.1577 96.195C79.649 97.3687 79.5478 97.7077 79.6959 97.7414C80.1026 97.8338 80.4716 97.3653 81.0684 95.9991C81.406 95.2258 81.6823 94.5552 81.6823 94.5085C81.6821 94.4618 81.4857 94.4839 81.2456 94.5576C80.8438 94.6811 80.7572 94.8113 80.1577 96.195ZM74.7476 96.1175C74.3808 96.987 74.1247 97.7446 74.1783 97.8012C74.2319 97.8578 74.5258 97.916 74.8314 97.9305L75.387 97.957L76.0735 96.3399L76.76 94.7227L76.4102 94.6409C75.4562 94.418 75.4692 94.4064 74.7476 96.1175ZM79.2653 94.9491C79.0706 95.2067 77.8837 98.0142 77.9442 98.0741C77.9743 98.1039 78.1636 98.0966 78.3648 98.058C78.6829 97.9968 78.8128 97.8123 79.3571 96.648C80.231 94.7794 80.2292 94.7874 79.7682 94.7874C79.5588 94.7874 79.3325 94.8602 79.2653 94.9491ZM76.6561 96.395C76.293 97.2791 75.9958 98.036 75.9958 98.0769C75.9958 98.1177 76.2789 98.1511 76.6247 98.1511H77.2534L77.9054 96.5676C78.264 95.6966 78.5301 94.9398 78.4968 94.8857C78.4633 94.8316 78.1842 94.7874 77.8762 94.7874H77.3164L76.6561 96.395Z" fill="white"/>
</svg>
