<svg width="22" height="22" viewBox="0 0 22 22" fill="none" xmlns="http://www.w3.org/2000/svg">
<g clip-path="url(#clip0_9_1021)">
<path d="M11.064 0.766479C16.8627 0.766479 21.564 5.46775 21.564 11.2665C21.564 17.0652 16.8625 21.7665 11.064 21.7665C5.26544 21.7665 0.563965 17.0665 0.563965 11.2665C0.563965 5.46649 5.2646 0.766479 11.064 0.766479Z" fill="#0094FF"/>
<path fill-rule="evenodd" clip-rule="evenodd" d="M11.8761 5.56893L11.0063 9.96122H15.4535C15.7395 9.96122 15.9841 10.1118 16.114 10.3665C16.2438 10.6212 16.2203 10.9077 16.0518 11.1384L10.7824 18.3613C10.5753 18.6457 10.2087 18.7442 9.88628 18.6031C9.56442 18.4621 9.38865 18.1257 9.45695 17.7803L10.3268 13.3886H5.87962C5.59358 13.3886 5.34898 13.238 5.21911 12.9833C5.08981 12.7286 5.11276 12.4421 5.28124 12.2109L10.5506 4.98792C10.7578 4.70356 11.1244 4.60505 11.4468 4.74611C11.7687 4.88716 11.9444 5.22357 11.8761 5.56838V5.56893Z" fill="white"/>
</g>
<defs>
<clipPath id="clip0_9_1021">
<rect width="21" height="21" fill="white" transform="translate(0.563965 0.766479)"/>
</clipPath>
</defs>
</svg>
