<svg width="91" height="101" viewBox="0 0 91 101" fill="none" xmlns="http://www.w3.org/2000/svg">
<g clip-path="url(#clip0_9_588)">
<path fill-rule="evenodd" clip-rule="evenodd" d="M12.6018 95.3679C11.332 94.9673 10.2034 93.9669 9.62187 92.7269L9.29332 92.0262L9.25466 80.4187C9.21415 68.2742 9.22379 68.0127 9.74896 66.9777C10.0753 66.3347 10.8707 65.4915 11.4963 65.1257C12.515 64.53 13.1555 64.4276 15.862 64.4276C17.2423 64.4276 18.3716 64.4035 18.3716 64.374C18.3716 64.3094 17.7423 63.2481 17.1825 62.3686C16.737 61.6686 16.0822 61.1621 14.9626 60.651C13.8419 60.1395 12.9645 59.49 11.9286 58.4053C10.0868 56.4765 9.58222 54.5814 10.4007 52.6658C10.4699 52.5041 10.435 52.4497 10.262 52.4497C9.93028 52.4497 8.81533 52.0251 8.20764 51.6673C7.54376 51.2764 6.46573 50.1858 6.09062 49.5256C5.9308 49.2443 5.66994 48.662 5.51098 48.2314C5.22307 47.4521 5.22158 47.417 5.15785 40.2249L5.09387 33.0011L4.40553 31.828C2.78442 29.0653 1.46727 25.4291 1.07623 22.637C1.00904 22.1569 0.890591 21.3583 0.813025 20.8623C0.670367 19.9499 0.67259 19.9231 1.09587 17.4623C1.47617 15.2517 2.83037 12.6647 4.37305 11.2019C6.31011 9.36525 7.98161 8.47073 10.9608 7.67686C11.9925 7.40186 16.8463 7.29257 19.2429 7.49027C22.4535 7.75526 24.7464 7.98347 26.1529 8.1782C26.9341 8.28638 28.0735 8.42899 28.6849 8.49506C29.2963 8.56124 30.2397 8.6704 30.7814 8.7377C32.2453 8.91959 34.0344 8.88909 34.8072 8.66904C35.6498 8.42924 37.2675 7.75848 37.5259 7.54176C37.6331 7.45187 37.7634 7.37827 37.8155 7.37827C37.8676 7.37827 38.354 7.07265 38.8964 6.69911C40.0431 5.90944 40.589 5.81077 40.9903 6.32076C41.1205 6.4861 41.3686 6.63898 41.5419 6.66034C41.7395 6.68466 41.9341 6.83717 42.0641 7.06956C42.1781 7.27332 42.32 7.46088 42.3794 7.48632C42.7119 7.62882 42.967 8.03743 42.8971 8.31564C42.8515 8.49728 42.901 8.73462 43.0236 8.92145C43.1342 9.09037 43.1961 9.30363 43.1609 9.39538C43.0843 9.59468 46.5766 9.72384 52.0798 9.72545C55.0388 9.72619 55.5861 9.75632 56.2376 9.95451C57.6673 10.3892 58.9441 11.3852 59.8077 12.7395C60.5823 13.9544 60.6368 14.314 60.7026 18.6461L60.7622 22.5667L61.3361 22.5677C62.4743 22.5697 65.7732 23.0813 66.974 23.442C67.1778 23.5032 67.7336 23.6666 68.2092 23.8051C71.529 24.7723 74.758 26.517 78.152 29.1777C79.9056 30.5523 81.3873 31.0625 85.3158 31.6442C86.0291 31.75 86.7877 31.8637 87.0016 31.8971C87.4922 31.9738 88.0331 32.3919 88.0331 32.6943C88.0331 33.1744 87.6088 33.2952 86.1353 33.2343C84.8452 33.181 84.7868 33.1885 85.1923 33.3567C85.6238 33.5355 86.5302 33.808 87.492 34.0481C88.0274 34.1816 88.6506 34.5953 88.6506 34.8169C88.6506 34.8889 88.5309 35.0516 88.3847 35.1785C88.0895 35.4344 87.2223 35.4806 86.3656 35.286C85.2278 35.0276 84.5895 34.8475 84.5026 34.7606C84.4517 34.7097 84.2692 34.6681 84.0971 34.6681C83.5957 34.6681 83.9073 34.8563 85.4043 35.4572C86.1663 35.763 86.9028 36.0738 87.0409 36.1477C87.3376 36.3065 87.3734 36.793 87.1047 37.0159C86.8888 37.1951 85.5134 37.1268 85.1238 36.9176C84.9917 36.8466 84.5778 36.6653 84.2041 36.5147C83.8305 36.364 83.2278 36.1052 82.8648 35.9395C82.5016 35.7738 82.1821 35.6607 82.1544 35.6882C82.0895 35.7532 83.2258 36.527 84.0189 36.9579C84.807 37.386 85.0687 37.6168 85.0687 37.8836C85.0687 38.1337 84.5658 38.4961 84.2187 38.4961C83.6965 38.4961 82.3842 37.7961 79.8194 36.1492C78.7672 35.4736 78.5471 35.4994 77.8222 36.3832C76.8444 37.5753 75.9644 38.0202 75.501 37.557C75.2619 37.3179 75.3301 37.037 75.8125 36.2719C76.3247 35.4595 76.5744 34.7967 76.4919 34.4678C76.2974 33.6937 74.6394 32.5602 72.8739 31.9944C72.0004 31.7146 69.8363 31.684 68.6415 31.9347C66.8194 32.3169 63.8484 33.3546 61.5703 34.4045L60.7366 34.7887V39.9765C60.7366 42.8297 60.7782 45.164 60.8293 45.1637C60.8803 45.1635 61.0886 45.0617 61.2924 44.9375C61.791 44.6337 63.2106 44.0657 64.195 43.7761C64.7953 43.5995 65.5431 43.5237 67.1593 43.4757C70.4745 43.3773 72.5502 43.7946 75.2494 45.1025L76.3611 45.6411L80.8075 45.691C85.2507 45.7407 85.2546 45.741 86.0878 46.0634C87.1021 46.4558 88.1151 47.1126 88.694 47.7533C89.2474 48.3656 89.9764 49.8801 90.1377 50.7527C90.2195 51.195 90.2511 56.4213 90.2283 65.74C90.1949 79.3903 90.1827 80.0758 89.9616 80.6481C89.4017 82.0978 88.4935 83.195 87.2065 83.9766C85.8407 84.8061 85.823 84.8077 77.4534 84.8374L69.9384 84.8641L69.9796 85.618C70.0022 86.0325 69.9516 86.6029 69.8668 86.8854C69.6652 87.5584 69.0104 88.2258 68.4487 88.3312C67.9793 88.4192 66.9895 88.3476 66.6344 88.1999C66.4895 88.1396 66.4182 88.1662 66.4182 88.2803C66.4182 88.5943 65.6787 89.3516 65.2263 89.5008C64.6149 89.7026 63.6659 89.5699 63.0224 89.1929L62.4925 88.8825L62.2828 89.5282C62.0357 90.2882 61.8253 90.5495 61.2047 90.8661C60.5473 91.2017 59.9605 91.1591 59.0467 90.7093C57.744 90.0681 56.7206 88.7079 56.2868 87.0409C56.0876 86.2753 56.1028 85.8833 56.3649 85.0185C56.426 84.8165 56.2194 84.8024 53.2067 84.8024C49.6068 84.8024 49.6662 84.7867 50.0475 85.6369C50.1614 85.891 50.3033 86.2101 50.3629 86.3459C50.4223 86.4817 50.6059 86.8985 50.7711 87.272C50.9361 87.6456 51.3006 88.2413 51.5809 88.5959C52.1529 89.3193 52.2563 89.8914 51.8538 90.1067C51.4039 90.3474 50.8726 90.1046 49.9371 89.2314C49.4376 88.765 48.9746 88.3834 48.9082 88.3834C48.5804 88.3834 48.6156 90.5306 48.9595 91.5169C49.0513 91.78 49.1264 92.2385 49.1264 92.5356C49.1264 93.05 49.1092 93.0758 48.7663 93.0758C48.4929 93.0758 48.285 92.9381 47.9017 92.5027C47.6242 92.1875 47.3931 91.8402 47.388 91.7309C47.3707 91.3572 46.9525 90.5497 46.8566 90.7049C46.7447 90.886 46.0832 90.9017 45.9744 90.7257C45.9286 90.6515 45.7175 90.6319 45.4681 90.6787C45.0187 90.763 44.5564 90.4985 44.5564 90.1571C44.5564 90.0671 44.4035 89.9571 44.2167 89.9127C43.6324 89.7739 43.4448 89.5165 43.4448 88.8532C43.4448 88.2781 43.5647 87.965 44.1684 86.9633C44.3747 86.6213 44.9662 84.913 44.896 84.8623C44.879 84.85 44.5317 84.7753 44.1241 84.6963C42.0761 84.2992 40.308 82.7437 39.5216 80.6473L39.2043 79.8013L39.159 74.368C39.1209 69.8115 39.0805 68.8052 38.9082 68.1321C38.6056 66.9495 38.6059 62.838 38.9086 62.159C39.0979 61.7342 39.1218 61.1727 39.1218 57.127V52.5732H32.2559H25.3901L25.4768 53.098C25.5246 53.3866 25.5711 53.6228 25.5803 53.6228C25.7514 53.6228 26.1186 53.9721 26.2062 54.2184C26.3541 54.633 26.0163 55.0429 25.5268 55.0429C25.2537 55.0429 25.1136 55.1593 24.8218 55.6294C24.6216 55.9521 24.1459 56.5196 23.7648 56.8908C23.0762 57.5616 23.0733 57.5672 23.3095 57.8185C23.883 58.4288 24.1017 59.224 24.1085 60.7231C24.1139 61.9319 24.0705 62.2626 23.816 62.9458C23.6516 63.3873 23.4136 63.8985 23.287 64.0819L23.0569 64.4154L27.2296 64.4523C31.247 64.488 31.4244 64.4996 32.0004 64.7653C32.8095 65.1386 33.7062 65.9101 34.1692 66.6314C34.9495 67.8472 34.9195 67.3172 34.921 79.9332C34.9225 92.4629 34.942 92.0923 34.221 93.2339C33.7448 93.9883 32.8327 94.8111 32.0815 95.1644L31.4022 95.4837L22.2622 95.5079C14.9483 95.5273 13.0182 95.4992 12.6018 95.3679ZM31.958 94.8205C32.9985 94.2726 33.5277 93.7387 34.0224 92.7382L34.49 91.7923L34.5243 81.197C34.543 75.3696 34.5152 70.6036 34.4625 70.606C34.4098 70.6082 33.505 71.8683 32.4521 73.4062C29.7843 77.3025 29.5285 77.6403 29.2453 77.6403C28.7927 77.6403 28.7391 77.2812 28.8547 75.0231C28.9149 73.8478 28.929 72.8507 28.8862 72.8073C28.8434 72.7638 28.4946 72.639 28.1109 72.5297C27.7273 72.4204 27.1196 72.1104 26.7606 71.8406L26.1076 71.3501L25.6054 71.758C25.3291 71.9822 24.575 72.5941 23.9297 73.1176C23.2843 73.6411 22.6252 74.1024 22.4652 74.1428C22.157 74.2205 21.9587 74.0357 21.9553 73.668C21.9543 73.5546 22.6142 71.5125 23.4218 69.13L24.8901 64.7981H23.7305C23.0928 64.7981 22.571 64.8437 22.571 64.8997C22.571 65.1606 21.4714 65.539 20.7129 65.539C19.9403 65.539 18.8656 65.1733 18.8656 64.9106C18.8656 64.8461 17.6252 64.7981 15.9603 64.7981H13.055L12.2728 65.1526C11.2186 65.6305 10.5503 66.265 10.0665 67.2472C9.69005 68.0116 9.66102 68.1631 9.62027 69.5802C9.5963 70.4137 9.5963 71.0957 9.62027 71.0956C9.64423 71.0956 9.9498 70.9869 10.2992 70.8542C11.9394 70.231 14.2738 70.3343 15.8274 71.0989C16.9741 71.6634 18.5062 73.3968 19.7806 75.572C20.0815 76.0857 20.1753 76.1585 20.5358 76.1585C20.8333 76.1585 21.0183 76.2487 21.2033 76.4839C21.5088 76.8721 21.5157 76.9738 21.2687 77.4473C21.0891 77.7916 21.1001 77.8554 21.4842 78.709L21.8888 79.6079L22.7832 79.5323C23.8217 79.4446 25.5353 79.6905 25.5353 79.9274C25.5353 80.0113 25.3977 80.3806 25.2296 80.7477C25.0615 81.1147 24.843 81.941 24.744 82.5839C24.6449 83.2267 24.4782 84.3229 24.3733 85.0197C24.1332 86.6157 23.7511 87.446 22.9045 88.2111C21.2058 89.7462 18.3007 90.235 15.9974 89.3735C15.3828 89.1436 15.2311 89.1295 14.7652 89.2591C14.473 89.3404 13.7892 89.4113 13.2458 89.4166C12.4256 89.4246 12.0687 89.3579 11.146 89.0246C10.5346 88.8039 9.93164 88.5891 9.80603 88.5474C9.58976 88.4758 9.58 88.5631 9.62187 90.1871C9.66164 91.7281 9.69919 91.9733 9.99043 92.5966C10.4526 93.5854 11.0954 94.2372 12.1071 94.7433L12.9822 95.181L22.1922 95.1471L31.4022 95.1132L31.958 94.8205ZM28.1291 93.7269C24.9076 92.6037 24.6285 88.2494 27.6868 86.8258C28.5672 86.4158 29.9166 86.4154 30.7846 86.8248C33.8549 88.2724 33.5475 92.6532 30.2995 93.737C29.5542 93.9857 28.8622 93.9825 28.1291 93.7269ZM30.1574 93.3936C30.9826 93.1453 31.5236 92.7446 32.0413 91.9985C32.4317 91.4357 32.4962 91.2381 32.5468 90.4499C32.5946 89.7038 32.5568 89.4353 32.3295 88.9071C31.8833 87.8698 31.8061 87.8586 30.9567 88.7078L30.2182 89.4461L30.408 89.81C30.6438 90.2619 30.6722 91.5151 30.445 91.4402C30.3538 91.4102 30.2653 91.0815 30.2288 90.6375C30.164 89.8477 30.0844 89.6637 29.8662 89.7986C29.776 89.8543 29.7734 89.9535 29.8579 90.1115C30.0694 90.5064 30.0123 92.0965 29.7774 92.356C29.2822 92.903 28.4996 92.4837 28.4996 91.6713V91.1695L27.7586 91.9027C27.351 92.306 27.0175 92.669 27.0175 92.7096C27.0175 92.7501 27.2494 92.9136 27.533 93.073C28.4368 93.5808 29.218 93.6763 30.1574 93.3936ZM48.7044 92.4275C48.297 91.0146 48.1501 88.9212 48.4209 88.3834C48.7038 87.8213 49.133 87.9121 49.9926 88.7159C50.829 89.4982 51.1729 89.7306 51.504 89.7374C51.8272 89.7439 51.7704 89.5513 51.2393 88.8411C50.0226 87.2139 48.8806 84.0247 48.0021 79.8013C47.8749 79.1901 47.7702 78.5704 47.7693 78.4242C47.7682 78.2406 47.6531 78.1185 47.3972 78.0293C47.0946 77.9239 47.0266 77.831 47.0266 77.5233C47.0266 77.3159 46.9911 77.1464 46.9476 77.1464C46.9041 77.1464 46.4419 77.2879 45.9206 77.4608C44.8401 77.819 44.3928 77.7525 44.1836 77.2023C44.1088 77.0054 44.0623 73.8099 44.0623 68.8528C44.0623 61.6849 44.0839 60.7766 44.2636 60.398C44.5135 59.8716 44.5339 59.8609 46.6169 59.1664C48.7662 58.4497 48.7545 58.4562 48.7622 57.9713C48.7677 57.6322 49.1343 56.1211 49.4353 55.1972C49.5179 54.9432 49.4869 54.9194 49.0737 54.9194C47.9147 54.9194 45.933 55.4664 44.4951 56.1832C41.9775 57.4382 40.2001 59.5304 39.3379 62.2533C39.0975 63.0127 39.061 63.3891 39.0676 65.045C39.0741 66.7028 39.1204 67.1409 39.4136 68.3173C40.1954 71.4537 40.6214 72.5155 43.0548 77.3931C45.3167 81.9269 45.6346 82.7948 45.5012 84.0709C45.4589 84.4763 45.3323 85.0984 45.22 85.4534C44.9698 86.2444 44.9751 86.2203 45.0504 86.2321C45.0844 86.2374 45.3788 86.3906 45.7048 86.5725C46.0935 86.7895 46.3968 86.8784 46.5863 86.8308C47.1063 86.7003 47.2737 87.142 47.2737 88.6448C47.2737 90.6559 47.9501 92.5256 48.7394 92.6956C48.7642 92.7009 48.7485 92.5802 48.7044 92.4275ZM27.8821 90.7529C27.8821 90.0113 28.183 89.4325 28.6944 89.1897C29.0534 89.0196 29.1172 88.9259 29.1172 88.5702C29.1172 88.1771 29.0894 88.149 28.6635 88.113C28.414 88.092 28.1864 88.0029 28.1576 87.9154C28.1169 87.7915 28.3488 87.764 29.1979 87.7919C30.2958 87.8278 30.7113 88.0399 29.8274 88.113C29.3904 88.1491 29.3642 88.1751 29.3642 88.5717C29.3642 88.8737 29.438 89.0316 29.6263 89.1323C29.8599 89.2573 29.9734 89.1883 30.672 88.496C31.5501 87.6259 31.5493 87.5299 30.6611 87.1366C29.0773 86.4353 27.4371 86.9122 26.4277 88.3676C25.9786 89.0149 25.9676 89.0579 25.9676 90.1581C25.9676 91.181 26.0006 91.3403 26.3245 91.8811L26.6813 92.477L27.2817 91.8858C27.8187 91.3569 27.8821 91.2373 27.8821 90.7529ZM28.4996 90.4286C28.4996 90.1007 28.717 89.8848 29.1687 89.7641C29.5945 89.6502 29.5152 89.4278 29.0582 89.4542C28.8484 89.4663 28.5964 89.5917 28.4715 89.7458C28.241 90.0304 28.1594 90.9253 28.3761 90.7913C28.4441 90.7493 28.4996 90.5862 28.4996 90.4286ZM46.7398 90.3283C46.8369 90.1758 46.8052 87.3831 46.7053 87.2811C46.5678 87.1408 46.2858 87.7913 46.1572 88.545C46.031 89.2848 46.069 90.1087 46.2423 90.389C46.3327 90.5353 46.6311 90.4989 46.7398 90.3283ZM45.7111 89.0959C45.7489 88.5343 45.8163 87.8662 45.8609 87.6116C45.9621 87.0342 45.7008 86.974 45.3885 87.5026C45.129 87.9418 44.8034 89.1645 44.8034 89.6997C44.8034 90.1539 45.1043 90.4051 45.4359 90.2276C45.5936 90.1433 45.6587 89.8758 45.7111 89.0959ZM44.4359 89.178C44.5021 89.0038 44.5564 88.7506 44.5564 88.6154C44.5564 88.4802 44.7231 88.0336 44.9269 87.6229C45.1307 87.2123 45.2975 86.8542 45.2975 86.8271C45.2975 86.6811 45.0088 86.8222 44.6328 87.1523C44.004 87.7042 43.6106 88.9938 43.9635 89.3466C44.1863 89.5693 44.3029 89.5278 44.4359 89.178ZM19.829 88.4433C20.688 88.2409 21.0895 88.0539 21.6447 87.5983C22.1923 87.1488 21.9371 87.0694 21.3385 87.503C20.5777 88.0539 19.6982 88.311 18.5877 88.307C18.0613 88.3051 17.6305 88.3447 17.6305 88.395C17.6305 88.6697 18.7625 88.6947 19.829 88.4433ZM23.0411 85.3921C23.287 84.4197 23.3137 84.2005 23.1952 84.1273C23.1305 84.0874 23.0389 84.2645 22.9916 84.5211C22.9443 84.7777 22.8345 85.191 22.7476 85.4395C22.5969 85.871 22.6263 86.0939 22.8183 85.9753C22.8674 85.945 22.9677 85.6824 23.0411 85.3921ZM45.099 84.2366C45.2147 83.9351 45.1876 82.9731 45.0612 82.895C44.9992 82.8566 44.911 82.6036 44.8652 82.3327C44.8193 82.0618 44.7311 81.8088 44.6691 81.7704C44.6071 81.7321 44.5554 81.6067 44.554 81.4919C44.5519 81.2911 44.2305 80.6317 41.7377 75.7116C41.1141 74.481 40.6039 73.4336 40.6039 73.3841C40.6039 73.3346 40.5281 73.1189 40.4355 72.9049C40.1583 72.2647 39.8821 71.5458 39.8 71.2501C39.5679 70.4154 39.4923 71.2655 39.4925 74.7076C39.4927 79.955 39.7168 81.0001 41.1806 82.5808C41.9598 83.4222 42.4458 83.7493 43.497 84.1401C44.3983 84.475 44.9937 84.511 45.099 84.2366ZM57.1174 83.9335C57.7788 83.3011 58.541 82.9563 59.2853 82.9528C59.7233 82.9509 59.872 82.9032 59.872 82.7649C59.872 82.6475 59.7538 82.5797 59.5492 82.5797C59.2151 82.5797 58.2663 82.1117 58.2663 81.9468C58.2663 81.7231 58.5284 81.7281 58.9074 81.959C59.5046 82.3231 59.7485 82.2883 59.7485 81.8388C59.7485 81.5323 59.6984 81.4683 59.4583 81.4683C59.2987 81.4683 58.9374 81.3012 58.6554 81.0971C58.2502 80.8036 58.1428 80.648 58.1428 80.3544C58.1428 79.8816 58.7275 79.4937 59.4416 79.4931C59.9282 79.4926 59.9419 79.4804 60.1676 78.8443C60.4314 78.1004 60.9857 77.2454 61.3857 76.9654C61.6173 76.8032 61.6359 76.7398 61.5054 76.5585C60.7627 75.5275 60.7018 75.1945 61.138 74.5492C61.4593 74.0739 61.9436 73.899 62.6629 73.9987C63.014 74.0473 63.2122 74.0165 63.3106 73.8979C63.3887 73.804 63.6751 73.6266 63.9472 73.504C64.5498 73.2322 64.5797 72.9575 64.0406 72.6453C63.8198 72.5175 62.6943 71.7929 61.5395 71.0352C58.9483 69.3352 56.3746 67.7617 56.185 67.7617C56.0826 67.7617 56.0431 68.4798 56.0431 70.3394C56.0431 71.7571 56.008 73.0927 55.965 73.3074C55.8334 73.9656 55.3467 74.3455 54.1525 74.7229C53.2689 75.0021 53.0909 75.0982 53.2042 75.2346C53.2809 75.3271 53.3257 75.5588 53.3038 75.7494C53.269 76.0534 53.165 76.1321 52.4612 76.3869C49.1491 77.586 48.5386 77.801 48.2926 77.8549C48.1397 77.8887 48.0147 77.9285 48.0147 77.9437C48.0147 78.031 48.5425 80.499 48.6496 80.9126C48.935 82.0145 49.4454 83.8909 49.565 84.2776C49.6016 84.3964 50.4182 84.4317 53.1058 84.4306L56.5989 84.4292L57.1174 83.9335ZM65.7389 84.1515C66.3475 83.8109 66.7178 83.0972 66.8918 81.9285C67.0882 80.6109 67.639 79.8988 68.516 79.8293L68.9462 79.7952L69.3546 78.3783C69.5793 77.5988 69.8935 76.5444 70.0529 76.035C70.2122 75.5257 70.4646 74.7061 70.614 74.2137C70.7932 73.6221 70.948 73.3184 71.0701 73.3184C71.2088 73.3184 71.2357 73.4057 71.1779 73.6686L71.101 74.0188L71.8166 73.9609C72.4976 73.9058 73.1771 73.7316 73.0742 73.6386C73.0355 73.6035 68.143 70.1851 63.5157 66.9599C61.9724 65.8842 61.6643 65.6816 61.6279 65.7181C61.5956 65.7502 61.8955 66.9246 62.5752 69.4287C63.1688 71.6153 63.1769 71.6332 63.6954 71.9292C63.9632 72.0821 64.2199 72.2071 64.2661 72.2071C64.3123 72.2071 64.315 71.9881 64.2723 71.7205C64.2008 71.274 64.3416 70.9542 64.5277 71.1403C64.5939 71.2064 64.8168 72.6086 64.9917 74.0593C65.0643 74.6618 65.1174 74.7603 65.4616 74.9317C65.9637 75.1817 67.2783 77.0748 67.281 77.5515C67.2839 78.1002 66.934 78.127 66.5191 77.6098C66.324 77.3667 65.8754 76.9824 65.522 76.7558C64.9547 76.3919 64.7856 76.3449 64.0742 76.3538C62.562 76.3727 61.4028 77.1628 60.696 78.6566C60.2942 79.5058 60.2878 79.6599 60.6451 79.8939C60.7985 79.9944 61.0001 80.2185 61.0928 80.392C61.2439 80.6742 61.2331 80.7477 60.9908 81.0879C60.8153 81.3342 60.614 81.4683 60.4194 81.4683C60.1785 81.4683 60.119 81.5317 60.119 81.7886C60.119 82.005 60.1992 82.1298 60.3661 82.1734C60.6576 82.2497 60.7004 82.5797 60.4188 82.5797C59.9487 82.5797 60.371 82.9953 61.1689 83.318C64.1949 84.5415 64.8336 84.658 65.7389 84.1515ZM85.8426 84.195C87.6993 83.5563 89.1623 82.0184 89.6776 80.1636C89.8672 79.4813 89.8858 78.1562 89.885 65.2838C89.8847 55.5369 89.8429 50.9999 89.7508 50.6592C89.4798 49.658 89.0004 48.7452 88.7455 48.7452C87.993 48.7452 87.2555 49.8414 87.0421 51.2766C86.7511 53.2348 86.3098 53.9049 85.0785 54.258C84.6994 54.3668 84.3494 54.4789 84.3004 54.5073C84.2514 54.5357 84.3183 54.8485 84.449 55.2023C85.386 57.7397 85.5172 60.3766 84.8649 63.5632C83.8185 68.6757 80.268 72.413 75.1877 73.7495C74.7461 73.8657 74.2579 74.0104 74.1027 74.071C73.7954 74.1912 71.7128 74.4668 71.2696 74.4461C70.9506 74.431 70.7803 74.6971 70.6708 75.3821C70.5967 75.8458 70.6143 75.8818 71.0065 76.0685C72.1758 76.6249 72.9785 77.8442 72.7776 78.7587C72.6589 79.2991 71.9547 79.9576 71.3915 80.0551C70.5253 80.2047 69.6135 80.5019 69.5553 80.6537C69.5235 80.7367 69.6093 81.0512 69.746 81.3526C70.1498 82.2423 70.016 83.1179 69.4208 83.4811C69.2081 83.6109 69.2167 83.7586 69.4585 84.1275L69.658 84.4319H77.4057C84.7232 84.4319 85.1919 84.4187 85.8426 84.195ZM16.202 83.4431C17.3091 81.8233 19.468 80.2326 21.1197 79.8197C21.4806 79.7296 21.5197 79.6555 21.3486 79.3855C21.2618 79.2483 21.173 79.2674 20.8763 79.4867C20.5033 79.7623 19.6384 80.0207 19.4591 79.91C19.2064 79.7538 19.3798 79.4926 19.7364 79.4926C20.1493 79.4926 20.711 79.2431 20.952 78.953C21.0888 78.7881 21.027 78.49 20.7897 78.1709C20.7794 78.1571 20.4457 78.31 20.048 78.5105C18.8152 79.1323 17.5063 78.9506 17.5075 78.1581C17.5082 77.6286 17.9385 77.0633 18.6444 76.6646C19.0038 76.4614 19.3811 76.2446 19.4828 76.1827C19.6352 76.0901 19.5222 75.8517 18.8408 74.8284C17.6605 73.0561 16.625 71.8945 15.8962 71.5253C14.2451 70.6888 12.0264 70.6045 10.127 71.3059L9.60211 71.4998V77.2118V82.9238L10.127 82.805C11.1156 82.5813 13.0616 83.0882 14.8514 84.0359C15.1232 84.1798 15.4051 84.2999 15.478 84.303C15.551 84.306 15.8768 83.9191 16.202 83.4431ZM63.5444 83.6771C63.0105 83.5548 62.5169 83.2613 62.4199 83.0084C62.3015 82.7001 62.5418 82.7034 62.9654 83.0159C63.2927 83.2573 63.5271 83.3206 64.0954 83.3206C64.4898 83.3206 64.8126 83.3728 64.8126 83.4368C64.8126 83.6948 64.1613 83.8182 63.5444 83.6771ZM13.7021 83.1642C13.5074 82.9297 13.6359 82.8266 14.1229 82.8266C14.724 82.8266 15.0833 82.6503 15.6202 82.0917C16.049 81.6454 16.2718 81.5627 16.2718 81.8499C16.2718 81.9013 16.1258 82.1167 15.9475 82.3286C15.3659 83.0198 14.0031 83.5269 13.7021 83.1642ZM69.3777 82.9268C69.6564 82.6278 69.7138 81.9724 69.4817 81.7404C69.3671 81.6258 69.2841 81.7238 69.1113 82.1787C68.7421 83.1505 68.8602 83.4822 69.3777 82.9268ZM63.5018 82.4027C62.9568 82.1655 62.5893 81.7274 62.5893 81.3146C62.5893 81.0143 62.6727 80.9236 63.1393 80.7173C63.6214 80.504 63.761 80.4921 64.2684 80.6197C64.9689 80.7961 65.6771 81.3798 65.6771 81.7809C65.6771 82.4603 64.4441 82.8128 63.5018 82.4027ZM65.1149 81.9693C65.3234 81.7391 65.3195 81.7169 65.0161 81.4136C64.6016 80.9992 64.4039 81.0151 64.2295 81.4772C64.1098 81.7943 64.0292 81.85 63.7392 81.8168C63.522 81.7918 63.3466 81.6732 63.2702 81.4992C63.1354 81.192 62.9599 81.1287 62.9599 81.3874C62.9599 82.0262 64.6503 82.4826 65.1149 81.9693ZM81.7339 81.9363C80.7066 81.543 79.7216 80.4845 79.3929 79.4206C79.0883 78.4346 79.0761 77.9004 79.3383 77.018C80.4078 73.4172 85.2083 72.9865 86.9214 76.3376C87.3037 77.0854 87.3537 77.2922 87.3537 78.1244C87.3537 78.9389 87.299 79.1766 86.9477 79.89C85.9787 81.858 83.7817 82.7203 81.7339 81.9363ZM12.268 81.5517C12.0925 81.3762 11.9491 81.1328 11.9494 81.0108C11.9513 80.0668 13.8529 78.8544 15.0319 79.0457C15.5535 79.1303 15.7778 79.399 15.7778 79.9389C15.7778 80.7419 14.5405 81.6395 13.2177 81.796C12.6524 81.863 12.5541 81.8377 12.268 81.5517ZM84.986 81.4703C86.256 80.8261 86.9765 79.621 86.9806 78.1343C86.9827 77.3658 86.924 77.0877 86.636 76.5013C86.2728 75.7618 85.6018 75.0947 84.8396 74.7155C84.2065 74.4005 82.3491 74.4005 81.716 74.7155C80.9846 75.0794 80.2648 75.7717 79.9122 76.4502C79.6304 76.9922 79.5824 77.2377 79.5824 78.1343C79.5824 79.0301 79.6306 79.2765 79.9112 79.8165C80.3037 80.5718 81.1849 81.3819 81.8974 81.6426C82.6984 81.9356 84.2379 81.8498 84.986 81.4703ZM14.2489 81.136L14.9278 80.8037L14.6148 80.6397C14.2241 80.435 14.0112 80.0521 14.1118 79.7349C14.2151 79.4096 14.1014 79.4291 13.3341 79.8692C12.5766 80.3035 12.1656 80.9491 12.438 81.2772C12.6834 81.5728 13.4841 81.5104 14.2489 81.136ZM60.6653 80.8062C60.7732 80.6301 60.7328 80.5319 60.4518 80.2877C60.0074 79.9014 59.8975 79.9085 59.8493 80.3261C59.8158 80.6173 59.7475 80.671 59.3697 80.7026C58.9911 80.7345 58.9063 80.691 58.7668 80.3939C58.6622 80.1711 58.5832 80.1077 58.5444 80.2155C58.3979 80.6226 59.614 81.269 60.2209 81.1068C60.3923 81.061 60.5922 80.9256 60.6653 80.8062ZM81.133 80.3129C80.448 79.584 80.7517 78.4989 82.0077 77.1879C83.3589 75.7775 84.5854 75.3108 85.3536 75.9148C85.9729 76.4018 85.8997 76.9181 85.1452 77.3842C84.8165 77.5874 84.6567 77.6185 84.4146 77.5264C84.244 77.4617 84.0682 77.3497 84.0236 77.2775C83.8808 77.0465 83.7097 77.1328 83.0234 77.7817C82.5799 78.2011 82.3514 78.516 82.3514 78.7078C82.3514 78.8678 82.4059 78.9987 82.4726 78.9987C82.772 78.9987 82.7453 79.6304 82.4257 80.1133C82.0366 80.7011 81.566 80.7737 81.133 80.3129ZM61.4046 80.0483C61.2172 79.7623 61.2172 79.7168 61.4046 79.4308C61.6068 79.1223 62.0162 79.0178 62.1534 79.2398C62.1933 79.3044 62.0761 79.4359 61.8929 79.5319L61.5597 79.7065L61.8275 79.9356C62.1603 80.2206 62.168 80.357 61.8511 80.357C61.7168 80.357 61.5159 80.2181 61.4046 80.0483ZM64.0158 78.8103C63.8331 78.5709 63.4831 78.2792 63.238 78.1621C62.7591 77.9331 62.5653 77.6403 62.8928 77.6403C63.4926 77.6403 64.5655 78.5436 64.5655 79.0485C64.5655 79.3626 64.3736 79.2795 64.0158 78.8103ZM16.7987 78.7208C16.7322 78.6359 16.4757 78.2007 16.2287 77.7536L15.7796 76.9408L16.0874 76.6516C16.706 76.0706 16.3839 75.4588 15.5351 75.6021C14.9982 75.6929 14.854 75.5241 15.2756 75.2985C15.6483 75.099 16.085 75.1471 16.4404 75.4266C16.841 75.7415 16.8715 76.2808 16.517 76.7785L16.2681 77.1279L16.702 77.8472C17.1347 78.5647 17.2333 78.8752 17.028 78.8752C16.9684 78.8752 16.8652 78.8056 16.7987 78.7208ZM19.5449 78.3675C19.7487 78.3043 20.0497 78.1493 20.2139 78.023L20.5124 77.7935L20.2446 77.7085C19.8931 77.597 19.7051 77.2278 19.8023 76.8403C19.8971 76.463 19.8721 76.4611 19.1745 76.7889C18.6157 77.0514 17.8759 77.7695 17.8794 78.046C17.8861 78.5862 18.4741 78.6998 19.5449 78.3675ZM49.8674 76.9001C53.1801 75.7239 53.1549 75.737 52.7616 75.4106C52.5987 75.2755 52.1909 75.3748 50.1987 76.0342C47.7918 76.8308 47.3972 77.0221 47.3972 77.3919C47.3972 77.7053 47.5132 77.761 47.8731 77.62C48.0529 77.5496 48.9504 77.2256 49.8674 76.9001ZM50.1403 75.605C53.2685 74.556 55.1993 73.8463 55.3583 73.687C55.6067 73.4383 55.6107 73.3225 55.605 66.6156C55.6018 62.8653 55.5578 59.6393 55.5073 59.4465C55.3261 58.7558 54.9618 59.5199 54.2806 62.0197C54.1068 62.6574 53.9751 62.8223 53.6404 62.8223C53.1819 62.8223 53.0347 62.3544 53.1104 61.1394L53.1777 60.0623L52.7605 60.7322C52.531 61.1008 52.342 61.4725 52.3405 61.5583C52.3389 61.6442 52.2856 61.8109 52.222 61.9288C52.1582 62.0467 51.9846 62.4014 51.8359 62.717C51.6796 63.0485 51.4326 63.3513 51.2505 63.4343C50.9598 63.5667 50.8952 63.5345 50.411 63.0146C49.8867 62.4518 49.534 61.7038 49.6807 61.4665C49.7234 61.3972 49.6738 61.3405 49.5703 61.3405C49.0598 61.3405 48.9952 60.3766 49.4405 59.4033C49.6133 59.0257 49.7302 58.6925 49.7006 58.6628C49.5752 58.5375 44.9756 60.171 44.7108 60.4349L44.4329 60.7119V68.7956C44.4329 73.2416 44.4666 76.9671 44.5078 77.0745C44.5491 77.182 44.716 77.2699 44.8787 77.2699C45.0415 77.2699 47.4092 76.5206 50.1403 75.605ZM11.9349 76.0586C11.6201 75.7773 11.535 75.5914 11.4856 75.0766C11.3807 73.9857 12.1129 73.0714 13.0911 73.0714C13.5485 73.0714 14.1922 73.4757 14.3879 73.8858C14.5654 74.2579 14.5639 74.3173 14.3694 74.614C14.253 74.7916 14.0748 74.9688 13.9735 75.0077C13.8721 75.0466 13.5981 75.377 13.3646 75.7419C12.8636 76.5249 12.5378 76.5971 11.9349 76.0586ZM75.8052 73.1082C81.6424 71.1851 84.8217 66.464 84.8217 59.7192C84.8217 57.4401 84.4329 55.8498 83.3523 53.7096C82.3022 51.6302 81.4954 50.5605 79.5372 48.6526C78.2496 47.398 78.233 47.3869 77.6361 47.3869C76.8684 47.3869 75.1843 47.8193 74.3848 48.2216C73.6197 48.6067 72.5577 49.3327 71.9454 49.8894C71.4992 50.2952 71.3483 50.747 71.6058 50.9062C71.9672 51.1296 71.4124 52.512 70.6925 53.1812C70.5155 53.346 70.3707 53.5551 70.3707 53.646C70.3707 53.737 70.6076 54.1024 70.8969 54.4581C72.054 55.8795 72.9665 58.1312 73.2967 60.3795C73.5015 61.7737 73.4577 62.513 73.176 62.4199C73.0782 62.3877 72.9998 61.9239 72.9501 61.0837C72.8195 58.8726 72.1967 57.0584 70.92 55.1702C69.6807 53.3372 68.0358 52.1278 66.0241 51.5705C64.0147 51.0137 62.0288 51.5253 59.9082 53.1458C58.9092 53.9092 57.6327 55.3335 57.2443 56.118C56.9919 56.628 56.991 56.6574 57.1952 57.7233C57.5623 59.6383 57.468 60.1225 56.5168 61.2062L56.0385 61.751L56.0716 64.4705L56.1049 67.1898L57.4018 67.9503C58.115 68.3687 59.5602 69.2752 60.6131 69.965C61.666 70.6549 62.5463 71.1628 62.5693 71.0939C62.5923 71.025 62.5257 70.6776 62.4212 70.3221C62.3167 69.9666 62.057 69.0366 61.8439 68.2556C61.6309 67.4746 61.3779 66.575 61.2818 66.2566C61.0537 65.5007 61.0561 65.045 61.2883 65.045C61.459 65.045 62.2718 65.5924 66.2033 68.3552C67.1027 68.9872 68.1165 69.6941 68.4562 69.9258C68.7959 70.1576 70.1298 71.0952 71.4205 72.0094C74.0921 73.9016 73.6976 73.8027 75.8052 73.1082ZM31.9843 70.9189C31.6573 70.2012 30.0034 69.5737 29.6287 70.0251C29.4403 70.2519 29.5564 70.5179 30.0422 70.9722L30.3722 71.2809L30.6196 70.9414C31.043 70.3601 31.8345 70.5331 31.8345 71.2068C31.8345 71.4429 31.8686 71.4815 31.9794 71.3707C32.0883 71.2618 32.0896 71.1499 31.9843 70.9189ZM27.6154 68.5412C27.1742 68.0686 26.446 67.7425 25.9281 67.7856C25.5415 67.8177 25.468 67.8717 25.436 68.1464C25.4086 68.3836 25.5014 68.5559 25.7852 68.7947C26.262 69.1958 26.321 69.197 26.5738 68.8113C26.9074 68.3023 27.7315 68.4994 27.7729 69.0979C27.7849 69.2715 27.7967 69.2683 27.8459 69.0781C27.8797 68.9465 27.7829 68.7208 27.6154 68.5412ZM51.4868 62.3593C52.0398 61.0996 52.5189 60.1447 52.8531 59.6365C53.0452 59.3444 53.2023 59.0594 53.2023 59.0032C53.2023 58.947 53.288 58.83 53.3928 58.743C53.7732 58.4274 53.8573 58.7718 53.6852 59.9397C53.5968 60.5404 53.5215 61.3047 53.5178 61.6381C53.5089 62.4482 53.7734 62.5371 53.8895 61.7631C53.992 61.08 54.5882 59.3448 54.8663 58.9205C54.9732 58.7574 55.1746 58.6239 55.3136 58.6239C55.763 58.6239 55.9349 58.9447 56.0088 59.9212C56.0473 60.4302 56.1255 60.8466 56.1827 60.8466C56.2399 60.8466 56.4391 60.6163 56.6253 60.335C57.0034 59.7638 57.0367 59.304 56.7896 58.0682C56.5549 56.8945 56.6627 56.0665 57.1405 55.3722C57.6135 54.685 59.0962 53.1493 59.8103 52.6073C61.1956 51.5555 62.7834 50.9679 64.24 50.9679H65.272L66.2384 50.1647C67.4615 49.148 68.3863 48.5205 68.7032 48.492C69.2701 48.4411 69.5108 48.5142 69.6933 48.7925C69.8689 49.0607 69.8675 49.1336 69.6756 49.6128C69.4736 50.1179 69.4744 50.1455 69.6991 50.3096C69.8608 50.4279 70.0981 50.456 70.4679 50.4005C70.8945 50.3365 71.1442 50.1833 71.7013 49.6441C73.1471 48.2439 74.8634 47.3842 76.8242 47.0777C77.079 47.0378 77.2874 46.9562 77.2874 46.8963C77.2874 46.608 74.4373 45.1574 72.7792 44.6017C71.4575 44.1589 69.239 43.815 67.671 43.81C66.4668 43.8061 64.2817 44.1003 64.0097 44.3028C63.9418 44.3534 63.6917 44.436 63.4539 44.4864C62.7746 44.6305 61.0508 45.5171 60.8362 45.8329C60.7891 45.9023 60.7139 46.3219 60.6692 46.7655C60.5024 48.418 59.9631 49.5766 58.8236 50.7298C57.9271 51.6373 56.9294 52.1747 55.5491 52.494C55.303 52.551 55.0972 52.8488 54.5369 53.9592C53.9467 55.1282 53.6889 55.492 52.9365 56.2166C50.225 58.828 49.8204 59.328 49.551 60.4008C49.485 60.6635 49.5135 60.7231 49.7048 60.7231C49.867 60.7231 50.0439 60.5101 50.2776 60.0339C50.6956 59.1819 51.586 57.9854 51.734 58.0767C51.9128 58.1873 51.8653 58.3131 51.4287 58.8848C50.6479 59.907 50.238 60.8198 50.238 61.5359C50.238 62.1391 50.4286 62.56 50.5305 62.1818C50.9194 60.7372 52.2057 58.3769 52.6039 58.3769C52.8105 58.3769 52.699 58.6669 52.1591 59.5332C51.0359 61.3357 50.5416 62.9458 51.1115 62.9458C51.1763 62.9458 51.3452 62.6819 51.4868 62.3593ZM49.9293 58.0744C50.2568 57.9758 50.5574 57.8431 50.5974 57.7794C50.6376 57.7158 51.1267 57.2787 51.6846 56.8081C52.9474 55.7429 53.3101 55.3097 53.0664 55.1578C52.7868 54.9836 51.9743 54.9016 50.9356 54.9427L49.9659 54.9811L49.6265 56.0307C49.2435 57.2152 49.0548 58.2534 49.2227 58.2534C49.284 58.2534 49.602 58.1728 49.9293 58.0744ZM23.33 56.7724C23.6454 56.502 24.1143 55.9606 24.3717 55.5692C24.9171 54.74 24.9921 54.6769 25.4354 54.6743C25.9479 54.6714 25.9964 54.4225 25.5562 54.055C25.2934 53.8356 25.1648 53.6184 25.1648 53.3937C25.1648 52.9244 24.8413 52.2028 24.6308 52.2028C24.534 52.2028 24.2184 52.2861 23.9297 52.388C22.6377 52.8438 21.7296 52.3599 22.1207 51.4242C22.3597 50.8522 22.9998 50.5635 23.9091 50.6176C24.5356 50.6549 24.6128 50.6328 24.645 50.4073C24.6909 50.0872 24.2445 49.4281 23.6677 48.9642C23.0166 48.4405 21.3262 47.8845 20.3786 47.8824C19.7728 47.8812 19.5536 47.8277 19.3597 47.6339C19.0448 47.3191 19.0493 47.2424 19.402 46.9111C19.5788 46.7452 19.9612 46.5955 20.3844 46.5266C21.1749 46.3979 21.4232 46.2863 21.7695 45.9034C22.3432 45.2693 23.3897 45.0168 24.2876 45.2957C24.3969 45.3297 24.8097 44.8525 25.4111 43.9974C25.934 43.2539 26.426 42.6241 26.5044 42.598C26.7521 42.5155 26.6587 42.8604 26.2784 43.4336L25.9108 43.9875L26.1862 44.0951C26.3378 44.1544 27.2079 44.2535 28.1201 44.3157C29.9254 44.4386 30.3908 44.3591 31.5032 43.7375C32.3777 43.2488 32.704 42.8201 32.7828 42.056C32.8767 41.1467 32.5564 40.5415 31.5363 39.7012C30.0186 38.4509 27.9606 37.6095 24.9178 36.9951C23.2141 36.6511 19.7616 36.6227 18.4333 36.9418C15.6845 37.6022 14.575 38.5687 14.9192 40.0031C15.0983 40.7493 15.4589 41.007 17.3217 41.7204C17.7293 41.8764 18.1322 42.0551 18.2172 42.1175C18.3284 42.1992 18.4248 42.0974 18.5624 41.7526C18.8751 40.969 19.0204 40.7236 19.1313 40.792C19.3053 40.8996 19.2554 41.1216 18.7985 42.272C17.3485 45.923 17.2599 46.2002 17.3991 46.6537C17.5774 47.2344 17.3637 48.0011 16.8654 48.5685C16.6541 48.8091 15.9755 49.3379 15.3576 49.7437C14.2232 50.4884 13.8016 50.9808 13.8016 51.5606C13.8016 51.9465 13.9978 52.2904 14.3149 52.4601C14.5472 52.5843 14.6444 52.5234 15.2075 51.9008C15.9323 51.0997 16.5161 50.8994 17.0697 51.2621C17.5556 51.5803 17.7373 52.0794 17.868 53.455C18.0342 55.2035 18.2126 55.9543 18.533 56.2554C18.8563 56.559 19.6479 56.7541 21.1364 56.8971C21.7399 56.955 22.293 57.0617 22.3654 57.1341C22.5778 57.3465 22.7239 57.2918 23.33 56.7724ZM21.7064 56.52C20.9994 56.4359 20.1408 56.0679 19.8588 55.7281C19.6477 55.4738 19.8021 55.3161 20.0758 55.5065C20.5873 55.8623 21.4096 56.1542 21.9001 56.1542C22.4171 56.1542 22.7092 56.3306 22.4923 56.5117C22.4337 56.5607 22.08 56.5644 21.7064 56.52ZM21.5383 55.1673C20.8048 54.8809 20.4707 54.5938 20.4731 54.252C20.48 53.3127 22.0868 53.1462 23.2091 53.9684C23.7903 54.3942 23.7781 54.9233 23.1797 55.2327C22.7192 55.4707 22.2694 55.4528 21.5383 55.1673ZM22.324 54.6971C22.324 54.5749 22.3907 54.4082 22.4722 54.3267C22.7209 54.078 22.4045 53.903 21.7064 53.903C20.9639 53.903 20.7165 54.0639 20.9767 54.3774C21.1752 54.6165 21.7877 54.9074 22.1078 54.9146C22.2354 54.9174 22.324 54.8284 22.324 54.6971ZM24.0853 51.9482C24.6091 51.7987 24.712 51.8034 25.0306 51.9916C25.3625 52.1877 26.4419 52.2028 40.1046 52.2028C56.2002 52.2028 55.7978 52.2195 57.2165 51.4862C57.9544 51.1049 59.0913 49.9936 59.5574 49.1984C60.2638 47.9933 60.2784 47.8449 60.3338 41.29C60.3619 37.9707 60.3378 35.2079 60.2805 35.1506C60.223 35.0931 59.4269 35.4109 58.511 35.8566C57.5953 36.3023 56.4847 36.8333 56.0431 37.0366C55.6015 37.24 54.9068 37.5638 54.4992 37.7561C51.7935 39.0323 50.8543 39.4625 49.3734 40.1036C46.1462 41.5009 42.4586 42.7826 39.6158 43.4948C38.1002 43.8745 37.4258 44.0126 35.0933 44.4206C33.5177 44.6962 29.3498 44.9302 28.2526 44.8046C27.6752 44.7386 26.8137 44.6563 26.3382 44.6219L25.4736 44.5593L24.2793 46.3293L23.0851 48.0992L23.7068 48.502C24.8159 49.2204 25.4254 50.6302 24.777 50.9772C24.6168 51.0629 24.2815 51.0879 23.9266 51.0409C23.3286 50.9616 22.7137 51.1112 22.5446 51.377C22.3978 51.6076 22.4319 52.0519 22.6019 52.1261C22.812 52.2178 23.379 52.1498 24.0853 51.9482ZM11.0198 51.714C11.2275 51.3126 12.8625 49.6959 13.9157 48.8507C14.5258 48.3611 14.6109 48.2298 14.869 47.3812C15.2388 46.165 15.5736 45.8337 16.3974 45.869C16.9876 45.8944 16.9996 45.8874 17.1469 45.4368C17.2293 45.1851 17.5041 44.4695 17.7577 43.8469C18.2162 42.7212 18.2223 42.4476 17.7893 42.4476C17.7001 42.4476 17.5306 42.3964 17.4126 42.334C17.2946 42.2716 16.6652 41.966 16.0138 41.6549C12.2211 39.8439 9.08199 37.585 6.68719 34.9437L5.64968 33.7993V40.6329C5.64968 46.7028 5.67278 47.5343 5.85669 48.074C6.51205 49.9966 7.93715 51.4109 9.71228 51.9003C10.6166 52.1497 10.8087 52.1222 11.0198 51.714ZM14.1659 51.6973C14.0009 51.3891 14.1182 50.806 14.3311 50.8767C14.5081 50.9354 14.594 51.9558 14.4221 51.9558C14.3572 51.9558 14.242 51.8395 14.1659 51.6973ZM52.5022 49.5119C51.7147 49.2306 51.0776 48.7551 50.5899 48.0842C49.965 47.2248 49.8273 46.7931 49.8161 45.6581C49.807 44.7462 49.851 44.5162 50.1515 43.9043C51.6222 40.9103 55.8566 40.7921 57.4677 43.7003C57.8086 44.3156 57.8341 44.4517 57.8341 45.6581C57.8341 46.7775 57.7949 47.0281 57.5476 47.4912C57.1578 48.2216 56.3466 49.0065 55.6164 49.3599C54.7891 49.7603 53.3892 49.8287 52.5022 49.5119ZM55.5372 48.9786C56.0619 48.7164 56.4593 48.4006 56.7894 47.9831C58.5641 45.7383 57.2622 42.3836 54.4548 41.968C50.9256 41.4454 48.7083 45.6432 51.1468 48.2309C51.8738 49.0024 52.7008 49.3404 53.8927 49.3532C54.6367 49.3613 54.8842 49.3048 55.5372 48.9786ZM80.8104 47.3131C80.9071 46.899 81.0213 46.4683 81.0644 46.3561C81.1351 46.1719 80.9612 46.1521 79.2768 46.1521C78.1152 46.1521 77.4109 46.1986 77.4109 46.2755C77.4109 46.3435 77.4525 46.4 77.5035 46.4014C77.6532 46.4051 79.8433 48.2933 80.1501 48.6832L80.4309 49.0402L80.5328 48.5532C80.5888 48.2852 80.7138 47.7272 80.8104 47.3131ZM51.6694 47.7478C51.027 46.9846 51.4228 45.8126 52.7658 44.5027C54.265 43.0403 55.5886 42.7506 56.2386 43.7424C56.4957 44.1347 56.3752 44.474 55.8677 44.7876C55.3844 45.0863 54.8991 45.1141 54.6845 44.8555C54.4404 44.5616 54.285 44.6284 53.5995 45.3224C52.9056 46.0249 52.8484 46.1916 53.1523 46.6253C53.3937 46.97 53.3115 47.3566 52.9024 47.7979C52.4923 48.2403 52.0693 48.2231 51.6694 47.7478ZM33.6073 43.7546C34.4684 43.1083 34.7897 42.6224 34.8843 41.8241C35.0888 40.0977 33.0916 38.139 29.673 36.7134C27.308 35.727 23.7314 35.0341 21.0221 35.0373C18.8567 35.0399 15.9091 35.6538 14.7143 36.3508C14.0041 36.7652 13.3386 37.4417 13.1152 37.9762C12.8575 38.5929 12.9239 39.4783 13.2411 39.6566C13.3743 39.7314 13.694 39.9184 13.9513 40.0721L14.4191 40.3514V39.6646C14.4191 38.6539 14.8109 38.0639 15.9227 37.4002C17.3815 36.5294 20.2309 36.132 23.1508 36.3923C24.0207 36.4697 24.927 36.5846 25.1648 36.6473C25.4025 36.71 26.1529 36.8993 26.8322 37.0681C28.9807 37.6018 30.6069 38.393 31.897 39.5324C32.7538 40.2891 33.3167 41.1925 33.3167 41.811C33.3167 42.6061 32.7108 43.5455 31.9463 43.9353C31.681 44.0706 31.464 44.2081 31.464 44.2405C31.464 44.2731 31.7835 44.2992 32.1742 44.2985C32.8204 44.2973 32.9495 44.2483 33.6073 43.7546ZM37.0838 43.6647C37.7631 43.524 38.4579 43.3806 38.6277 43.3462C39.8393 43.1 44.4609 41.691 45.2357 41.3314C45.3716 41.2684 45.9829 41.0269 46.5943 40.7949C47.9669 40.2738 50.9571 38.9846 52.77 38.1323C53.5173 37.781 54.3337 37.3997 54.5844 37.2848C55.0958 37.0505 55.1806 36.9172 55.5414 35.7795C56.8332 31.7065 57.0903 31.1308 57.8355 30.6425C58.233 30.3822 59.1418 30.3814 59.7173 30.6408C59.9737 30.7564 60.3219 31.0529 60.4909 31.2996C60.7453 31.6705 60.7969 31.8885 60.7895 32.5599C60.7847 33.0063 60.6939 33.6078 60.5878 33.8963C60.4817 34.1849 60.4326 34.4211 60.4787 34.4211C60.5248 34.4211 61.1714 34.1524 61.9155 33.8241C64.2481 32.795 66.3379 32.0592 68.1474 31.6299C69.5452 31.2984 72.2788 31.3282 73.2617 31.686C74.1248 32.0001 74.0761 31.9942 74.0761 31.7837C74.0761 31.5224 74.807 30.2007 75.17 29.8057C75.3496 29.6104 75.7588 29.2405 76.0793 28.9839L76.6623 28.5175L76.2646 28.2219C74.2639 26.7345 70.2928 24.7628 68.0857 24.1607C64.2346 23.1099 61.1741 22.7923 57.2727 23.0386C55.9919 23.1194 54.805 23.2384 54.6356 23.3028C54.4093 23.3888 54.3045 23.5446 54.2422 23.8886C54.0196 25.114 53.2 25.983 51.3496 26.9555C50.6363 27.3304 49.9606 27.7072 49.8479 27.793C49.5043 28.0546 49.1584 28.8578 48.7484 30.3462C48.5334 31.1272 48.2572 31.9607 48.1348 32.1984C47.8356 32.7793 47.1462 33.4155 46.0904 34.085C45.5321 34.439 45.0442 34.8735 44.741 35.2863C44.2761 35.9196 43.6787 36.308 43.3585 36.1852C43.0951 36.0841 43.1754 35.4396 43.5194 34.8948C44.1017 33.9723 46.0385 30.0046 46.0385 29.7338C46.0385 29.6614 46.0925 29.5054 46.1583 29.3875C46.342 29.0589 47.1502 26.5561 47.1502 26.3158C47.1502 26.1991 47.2028 25.9329 47.267 25.7243C48.4394 21.9177 48.1731 15.5277 46.6503 10.9284L46.3744 10.0949H44.6159C43.1911 10.0949 42.8278 10.1306 42.7012 10.2831C42.5188 10.5028 42.5133 10.4959 43.0746 10.7571C43.3126 10.8679 43.8127 11.209 44.1858 11.515C44.7432 11.9721 44.9144 12.2093 45.1443 12.8429C45.7289 14.4542 45.9254 15.6187 45.8882 17.2495L45.8533 18.7773L45.2357 18.9888C44.1977 19.3442 43.7235 19.7088 42.9355 20.7576C42.5196 21.3111 42.1403 21.7794 42.0927 21.798C42.0451 21.8167 41.5933 21.5601 41.0889 21.2279C37.8802 19.1148 33.9479 17.9157 29.7348 17.7659L27.5733 17.6891L27.5433 17.2569C27.4956 16.5727 27.2335 15.5179 27.1204 15.5556C27.0637 15.5745 26.7255 15.9765 26.3689 16.4491C25.4541 17.6614 24.9036 17.9278 23.3801 17.896C22.399 17.8755 22.1918 17.9073 21.9207 18.1206C21.6221 18.3555 21.6024 18.4425 21.5629 19.7062C21.5232 20.9766 21.5026 21.0665 21.1506 21.5092C20.1261 22.7973 19.9772 23.0886 19.9772 23.806C19.9772 24.5643 20.3327 25.262 21.0723 25.9548C21.4703 26.3277 21.5778 26.6438 21.305 26.639C20.9141 26.6323 18.9776 24.4511 18.3473 23.3076C18.0131 22.7013 17.507 21.3213 17.507 21.0164C17.507 20.9113 17.3263 20.7488 17.1055 20.6552C16.0057 20.1889 13.6979 18.8123 13.3384 18.4081C12.8109 17.8148 12.78 17.1514 13.2624 16.772C13.6857 16.4391 14.0507 16.4492 15.0803 16.8225C15.715 17.0527 15.9842 17.0978 16.1604 17.0034C16.451 16.848 16.455 16.8933 16.0938 16.2576C15.8056 15.7502 15.8014 15.7117 15.9964 15.3815C16.4137 14.6752 17.2841 14.6813 19.3611 15.4056L20.4125 15.7721L21.3317 15.3982C21.8372 15.1924 22.4479 14.9761 22.6888 14.9173C22.9297 14.8584 23.5437 14.7018 24.0532 14.5693C25.6103 14.1644 29.6047 13.5524 30.6913 13.5524H31.0498L30.748 12.6572C30.4855 11.8786 30.4561 11.6251 30.5225 10.7123C30.5647 10.135 30.6312 9.5459 30.6706 9.40315C30.7351 9.16915 30.6774 9.13581 30.0841 9.06432C29.7222 9.0206 28.7868 8.90046 28.0056 8.79723C25.618 8.48173 23.5747 8.255 21.8917 8.11893C21.0086 8.04755 19.6381 7.93507 18.8462 7.86887C15.0003 7.54782 11.6574 7.78911 9.41684 8.54964C7.38579 9.23892 5.88905 10.2118 4.37898 11.8243C2.19996 14.151 1.07117 17.4032 1.27212 20.7762C1.50272 24.6478 3.05986 29.1414 5.37536 32.6172C6.84406 34.8218 8.94847 36.8883 11.3874 38.521L12.5047 39.2691L12.5666 38.6048C12.7298 36.8525 14.4094 35.6662 17.8157 34.8972C18.811 34.6724 23.2857 34.6738 24.5472 34.8991C28.7795 35.6552 31.8136 36.9385 33.8014 38.8132C35.4973 40.4126 35.76 42.1405 34.5113 43.4811C34.2174 43.7965 33.9945 44.072 34.0159 44.0933C34.089 44.1665 35.8492 43.9206 37.0838 43.6647ZM84.5465 37.8561C84.5197 37.7757 84.1999 37.5491 83.836 37.3524C82.9727 36.8862 81.8553 36.1229 81.5684 35.8033C81.421 35.6392 81.3696 35.4601 81.4224 35.2942C81.5226 34.9784 81.7557 35.0235 83.1543 35.6291C84.644 36.2739 86.0757 36.7673 86.4573 36.7673C87.1086 36.7673 86.7941 36.4528 85.7172 36.0274C83.9359 35.3237 83.1596 34.8904 83.1148 34.575C83.0392 34.043 83.3249 34.0622 86.1573 34.7787C86.7221 34.9216 87.3751 35.0386 87.6085 35.0386C88.2448 35.0386 88.1494 34.7244 87.4464 34.504C87.1238 34.4027 86.2945 34.1469 85.6037 33.9354C84.9129 33.7238 84.2181 33.4411 84.0598 33.3068C83.777 33.0674 83.7762 33.0596 84.0116 32.8777C84.2774 32.6722 84.6355 32.6608 86.1801 32.8079C87.2919 32.914 87.539 32.8829 87.539 32.6369C87.539 32.442 86.8333 32.2351 85.8098 32.1303C83.4986 31.8932 81.1409 31.3371 79.7832 30.709L79.0033 30.348L78.4852 30.6122C77.808 30.9576 76.6698 32.1288 76.3753 32.7834L76.1423 33.3008L76.5296 33.7417C77.1517 34.45 77.0078 35.3967 76.0962 36.5937C75.7553 37.0415 75.7258 37.2613 76.0068 37.2613C76.3483 37.2613 76.9527 36.8017 77.5344 36.0993C77.8401 35.7303 78.2359 35.3647 78.4138 35.2869C78.8337 35.1033 79.2143 35.261 80.8191 36.2829C82.6541 37.4514 83.7202 37.9952 84.1835 37.9989C84.4467 38.001 84.5776 37.9494 84.5465 37.8561ZM79.3819 34.2162C79.5206 33.9573 79.6342 33.5364 79.6342 33.2808C79.6342 32.9498 79.6875 32.8159 79.8194 32.8159C79.9213 32.8159 80.0047 32.8959 80.0047 32.9938C80.0047 33.2842 80.2421 33.3445 80.5616 33.1352C80.9386 32.8882 81.1163 32.8865 81.1163 33.1296C81.1163 33.2343 80.8941 33.4149 80.6226 33.5309C80.3017 33.6681 80.0483 33.8932 79.8986 34.1742C79.7635 34.4276 79.5568 34.6229 79.399 34.6465L79.1297 34.6866L79.3819 34.2162ZM76.1711 32.3104C76.6344 31.5577 77.5434 30.665 78.185 30.333L78.6502 30.0921L77.8989 29.4669C77.3082 28.9754 77.0843 28.8576 76.852 28.9159C76.1906 29.0818 74.6673 30.94 74.4978 31.7877C74.4253 32.1505 74.4566 32.1986 74.9187 32.4342C75.1932 32.5743 75.4527 32.7452 75.4953 32.8141C75.6397 33.0476 75.7831 32.9408 76.1711 32.3104ZM48.7647 24.1244C49.2911 23.9596 50.1773 23.722 51.3496 23.4315C52.9342 23.0388 55.8144 22.6886 58.1136 22.6092C60.2309 22.5361 60.2461 22.5335 60.3196 22.2409C60.3604 22.0787 60.366 20.377 60.3322 18.4593C60.2649 14.6468 60.2002 14.2176 59.5098 13.0113C59.0429 12.1954 58.4853 11.6193 57.6169 11.0557C56.2386 10.1611 56.3457 10.177 51.3209 10.1241L46.7839 10.0763L46.9746 10.6103C48.306 14.3404 48.7509 19.7388 48.0693 23.8942C47.9945 24.3506 48.0175 24.3582 48.7647 24.1244ZM43.5245 19.4934C43.7864 19.2757 44.348 18.9306 44.7725 18.7266L45.5445 18.3557V17.2642C45.5445 16.0692 45.2971 14.5533 44.8985 13.3055C44.6289 12.4613 44.2636 12.019 43.2811 11.3462C42.4508 10.7776 42.2549 10.758 41.7183 11.1892C41.4601 11.3967 40.8815 11.7682 40.4324 12.0151C39.9833 12.2618 39.6158 12.49 39.6158 12.5221C39.6158 12.5542 39.7879 12.7252 39.9981 12.9021C41.0334 13.773 40.4626 14.5056 39.1551 13.9841C38.0508 13.5437 37.1063 13.4414 35.8218 13.6235C35.1573 13.7175 34.0855 13.7947 33.4402 13.795C32.7948 13.7952 31.3219 13.8863 30.1671 13.9975C28.2788 14.1794 28.0368 14.229 27.7644 14.4904C27.4724 14.7707 27.4671 14.8044 27.618 15.4325C27.7041 15.7907 27.8127 16.3617 27.8592 16.7013L27.9438 17.3187L30.1053 17.3973C31.8854 17.4621 32.5501 17.5418 33.8725 17.8495C36.8059 18.5322 39.1312 19.4732 41.209 20.8191L41.9993 21.3309L42.524 20.61C42.8125 20.2135 43.2628 19.7111 43.5245 19.4934ZM40.1099 13.6927C40.1099 13.5084 39.466 12.9332 39.1791 12.8612C38.8547 12.7798 37.7309 13.1294 38.0102 13.2247C39.592 13.7651 40.1099 13.8805 40.1099 13.6927ZM32.8343 13.1784C32.448 11.7745 32.3919 10.6752 32.6499 9.5638L32.7303 9.21793L31.9504 9.2551L31.1704 9.29227L31.0108 9.90968C30.8011 10.7211 30.8066 11.1235 31.0424 12.1672C31.3043 13.3263 31.5006 13.5271 32.2808 13.4329C32.7311 13.3786 32.8716 13.314 32.8343 13.1784ZM34.8249 13.3028C36.268 13.1594 37.1499 12.9485 38.5614 12.4092C40.4475 11.6886 42.7037 10.0513 42.7037 9.4034C42.7037 9.02702 42.4944 9.02653 42.0929 9.40204C41.5529 9.90697 39.3479 11.3297 39.1054 11.3297C38.6654 11.3297 38.8813 11.116 40.1408 10.3051C40.837 9.85671 41.6431 9.25843 41.9317 8.97553C42.9586 7.96939 42.3525 7.59882 41.202 8.52914C40.337 9.22855 38.5126 10.3419 38.2315 10.3419C37.7961 10.3419 38.0271 10.1152 39.1527 9.43786C40.8161 8.43678 41.7156 7.69167 41.7156 7.31467C41.7156 6.82013 41.3054 6.93299 40.1925 7.73366C38.5239 8.93417 37.5144 9.52515 37.3735 9.38426C37.2309 9.24176 37.2792 9.20299 38.9365 8.12695C40.3242 7.22614 40.7499 6.83964 40.6478 6.57341C40.5318 6.27149 40.0875 6.43165 38.9428 7.18787C37.1606 8.36515 35.4632 9.05925 34.0094 9.20521C32.9763 9.30894 32.9774 9.30696 32.9579 11.0828C32.9454 12.2092 33.2064 13.429 33.4597 13.429C33.5116 13.429 34.1259 13.3722 34.8249 13.3028Z" fill="white"/>
</g>
<defs>
<clipPath id="clip0_9_588">
<rect width="89.5073" height="99.5769" fill="white" transform="matrix(1 0 0 -1 0.728149 100.436)"/>
</clipPath>
</defs>
</svg>
