<svg width="247" height="216" viewBox="0 0 247 216" fill="none" xmlns="http://www.w3.org/2000/svg">
<path fill-rule="evenodd" clip-rule="evenodd" d="M185.915 0.483447C184.278 0.868659 182.712 1.76437 181.973 2.73888C180.808 4.27604 180.065 4.99375 179.64 4.99375C179.392 4.99375 179.275 4.79703 179.347 4.4977C179.413 4.22502 179.346 3.8177 179.199 3.59264C178.922 3.16944 178.325 3.34462 177.136 4.19781C176.741 4.48183 176.565 4.42344 176.104 3.85483C175.372 2.95289 174.934 3.31656 174.217 5.41949C173.828 6.56323 173.201 7.51619 172.012 8.76962C170.332 10.5412 170.178 10.817 166.107 19.3081C165.136 21.3348 163.557 24.2033 162.599 25.6827L160.857 28.3721L160.697 26.2496C160.61 25.082 160.327 23.7274 160.069 23.2393C159.5 22.1636 158.081 20.9295 157.143 20.6945C156.764 20.5998 156.455 20.4099 156.455 20.2724C156.455 20.1332 150.95 19.9901 144.03 19.949C131.848 19.8764 131.603 19.864 131.527 19.3081C131.476 18.9374 131.722 18.585 132.237 18.2894C132.67 18.0408 133.269 17.3707 133.567 16.8004C134.019 15.9356 134.053 15.6405 133.772 15.024C133.431 14.2771 132.976 14.2213 131.676 14.7666C131.28 14.933 131.179 14.8321 131.179 14.2709C131.179 13.8837 131.37 13.408 131.605 13.2139C132.168 12.747 132.158 10.6863 131.587 9.87395C131.344 9.52644 130.738 9.03267 130.242 8.77671C129.746 8.52047 128.988 7.93542 128.558 7.47623C127.846 6.71544 127.639 6.65024 126.212 6.73897C125.35 6.79254 124.646 6.73415 124.646 6.60914C124.647 6.26447 122.781 5.5598 121.887 5.56689C119.675 5.58446 118.569 8.35805 119.807 10.7816C120.31 11.766 120.323 11.9468 119.949 12.6696C119.721 13.1096 119.535 13.8029 119.535 14.2111C119.535 14.9668 119.409 14.9846 117.938 14.4341C117.763 14.3687 117.4 14.5348 117.131 14.8029C116.49 15.443 116.746 16.7667 117.704 17.765C118.311 18.3971 118.375 18.6236 118.132 19.2633L117.845 20.0167H101.142C85.0487 20.0167 84.3983 20.0372 83.3345 20.5785C82.727 20.8878 81.8534 21.4935 81.3933 21.9249C79.8234 23.3969 79.7745 23.743 79.7745 33.4187V42.3035L79.0006 43.8446C78.323 45.1939 78.2258 45.7211 78.2196 48.0786C78.2134 50.4295 78.3025 50.9332 78.9225 52.0469L79.6325 53.3224L79.7745 64.6725L79.9165 76.0225L80.8935 77.2532C82.7386 79.5775 82.3802 79.5285 97.5956 79.5356L111.015 79.5418V87.3368V95.1317H105.903C101.169 95.1317 100.749 95.1737 100.223 95.6986C99.4666 96.4532 99.4921 97.7931 100.276 98.5221C100.89 99.0927 101.16 99.1001 121.396 99.1001C141.703 99.1001 141.901 99.0947 142.642 98.5125C143.592 97.7673 143.631 96.5892 142.734 95.748C142.125 95.1774 141.789 95.1317 138.19 95.1317H134.303V87.3368V79.5418H145.334C156.23 79.5418 156.38 79.5339 157.575 78.9035C158.24 78.5523 159.187 77.7107 159.679 77.0333L160.573 75.8017L160.657 61.0188L160.74 46.2361L162.077 45.3203C166.382 42.3693 170.433 37.1393 173.05 31.1516C174.538 27.7476 174.679 27.2119 174.188 26.8057C173.926 26.5883 173.888 26.3386 174.069 26.016C174.838 24.6399 175.192 23.3266 174.891 22.9638C174.66 22.6869 174.708 22.1979 175.074 21.0987C175.772 19.0006 176.55 17.3064 176.97 16.9702C177.168 16.8126 178.509 16.547 179.951 16.38L182.573 16.0768L185.29 17.8897C189.934 20.989 194.472 22.406 199.197 22.2325C203.13 22.0882 203.96 21.6015 206.561 17.9198C208.365 15.3653 208.549 14.9744 208.659 13.4588C208.76 12.0636 208.654 11.5514 208 10.2612C206.485 7.27101 202.456 4.00365 198.006 2.15497C194.033 0.503855 188.866 -0.210446 185.915 0.483447ZM195.363 1.73177C200.322 3.31145 204.774 6.26163 206.803 9.313C209.952 14.0484 207.81 17.6051 201.592 17.9645C195.97 18.2897 189.36 15.8089 184.987 11.7323C180.125 7.20099 180.229 2.77204 185.235 1.13C187.202 0.484864 192.422 0.794961 195.363 1.73177ZM187.219 2.16205C183.985 2.82675 182.654 4.90361 183.896 7.3464C185.666 10.8255 190.599 14.1011 196.19 15.5101C199.605 16.3707 203.33 16.2054 204.973 15.1207C206.321 14.2298 206.712 12.9727 206.185 11.2178C205.479 8.86685 201.3 5.41297 197.1 3.70971C193.834 2.38513 189.465 1.70059 187.219 2.16205ZM194.784 4.40842C199.291 5.96032 203.311 8.6038 204.973 11.1073C206.098 12.8026 206.106 13.5328 205.011 14.4528C202.674 16.4152 196.999 15.8925 191.468 13.2057C185.781 10.4431 182.469 6.11877 184.784 4.47928C185.925 3.67116 186.38 3.60001 189.825 3.69242C192.15 3.75478 193.418 3.93789 194.784 4.40842ZM175.387 5.63152C175.308 5.82653 175.244 5.66695 175.244 5.2772C175.244 4.88745 175.308 4.72815 175.387 4.92288C175.466 5.1179 175.466 5.43678 175.387 5.63152ZM177.786 5.38151C177.602 5.60232 177.172 5.85573 176.831 5.94501C176.308 6.08136 176.343 6 177.053 5.43423C177.939 4.72758 178.355 4.69754 177.786 5.38151ZM179.654 6.05669C179.382 6.32938 178.3 7.19136 177.25 7.9717C175.125 9.5511 174.29 10.832 174.608 12.0242C174.896 13.1025 176.37 13.9922 178.258 14.2278C179.143 14.3383 180.319 14.6337 180.87 14.8843L181.873 15.3398L180.311 15.4104C176.362 15.5892 175.99 15.9016 174.28 20.4825L173.631 22.2234L172.171 21.2509C171.367 20.716 170.107 19.7174 169.369 19.032C167.784 17.5586 167.786 17.5272 169.661 13.626C171.315 10.1846 172.518 9.00687 176.121 7.30275C178.853 6.01078 179.7 5.6369 180.017 5.58305C180.089 5.57086 179.926 5.78401 179.654 6.05669ZM180.432 8.94224C179.707 10.0364 179.175 10.4125 179.175 9.83115C179.175 9.68574 179.59 8.89774 180.098 8.08026C180.843 6.88126 181.038 6.7092 181.109 7.19136C181.157 7.51988 180.853 8.30788 180.432 8.94224ZM179.73 7.85265C179.555 8.17777 179.341 8.37222 179.253 8.28463C179.166 8.19705 179.256 7.93088 179.453 7.69335C179.964 7.07939 180.102 7.15876 179.73 7.85265ZM179.715 12.2161L180.584 13.7527L179.098 13.594C176.833 13.3522 175.643 12.6929 175.539 11.6223C175.452 10.7297 175.828 10.2359 177.755 8.7169L178.465 8.15736L178.655 9.41845C178.761 10.1121 179.237 11.3712 179.715 12.2161ZM181.095 10.3604C180.613 11.0724 180.179 11.7051 180.129 11.7663C180.081 11.8275 179.962 11.6753 179.867 11.4276C179.63 10.8116 181.431 8.19393 181.744 8.69961C181.885 8.9275 181.64 9.55507 181.095 10.3604ZM182.867 10.4859C182.867 10.6622 182.443 11.4009 181.926 12.1274C181.054 13.3519 180.96 13.4089 180.645 12.906C180.359 12.4488 180.451 12.1458 181.23 10.9698C181.922 9.92696 182.245 9.65003 182.511 9.87055C182.707 10.0327 182.867 10.3096 182.867 10.4859ZM183.411 13.1067C182.585 14.3043 181.948 14.6445 181.596 14.0756C181.503 13.9259 181.847 13.1699 182.36 12.3955C183.219 11.0993 183.331 11.0225 183.78 11.427C184.236 11.8386 184.213 11.9434 183.411 13.1067ZM123.435 14.0645C124.097 14.4052 125.145 14.7516 125.763 14.8347C126.635 14.9512 126.908 15.1209 126.975 15.5878C127.028 15.9631 126.848 16.2995 126.495 16.4807C125.094 17.2009 125.924 18.5986 127.754 18.6006L128.765 18.602L127.487 19.4507C126.384 20.1834 126.166 20.2415 125.893 19.8747C125.72 19.6412 125.407 19.4498 125.198 19.4498C124.902 19.4498 124.893 19.3742 125.158 19.1097C125.345 18.9226 125.499 18.5164 125.499 18.2066C125.499 17.4903 124.421 16.3319 123.754 16.3319C123.435 16.3319 123.301 16.1842 123.397 15.9362C123.627 15.3364 122.41 14.5926 121.763 14.9381C121.176 15.2516 121.049 16.0484 121.586 16.0484C121.777 16.0484 121.649 16.2471 121.302 16.4897C119.823 17.5235 120.975 18.7514 123.222 18.536C124.515 18.4118 124.539 18.4235 124.033 18.9289C123.746 19.2154 123.511 19.5774 123.511 19.7333C123.511 20.3563 122.602 19.953 121.386 18.7897C120.284 17.7364 120.103 17.403 120.103 16.4319C120.103 15.8097 120.303 14.6263 120.549 13.8018L120.995 12.3023L121.614 12.8737C121.954 13.1878 122.774 13.7235 123.435 14.0645ZM185.13 12.7776C185.409 13.1135 185.299 13.4353 184.548 14.4784C183.553 15.8619 183.434 15.9339 182.945 15.4461C182.708 15.21 182.859 14.7703 183.527 13.7505C184.518 12.2377 184.626 12.1719 185.13 12.7776ZM186.394 13.6694C187.033 13.9143 186.961 14.2332 185.943 15.6479C184.978 16.9892 184.922 17.0226 184.312 16.6366C183.984 16.4296 184.081 16.1184 184.838 14.9404C185.349 14.1467 185.806 13.4973 185.855 13.4973C185.904 13.4973 186.147 13.5747 186.394 13.6694ZM188.495 15.0901C188.656 15.183 186.513 18.0326 186.283 18.0326C186.161 18.0326 185.921 17.8651 185.751 17.6604C185.518 17.3801 185.689 16.9217 186.446 15.7998C187.325 14.4976 187.51 14.3568 187.928 14.6745C188.19 14.8741 188.445 15.0611 188.495 15.0901ZM130.438 15.0796C130.533 15.3262 130.611 16.0915 130.611 16.7803C130.611 17.6924 130.497 18.0326 130.193 18.0326C129.957 18.0326 129.841 17.8645 129.926 17.644C130.078 17.2483 129.358 16.3319 128.895 16.3319C128.755 16.3319 128.714 16.1417 128.803 15.9089C128.901 15.655 128.756 15.4058 128.439 15.2842C127.972 15.1051 127.993 15.0603 128.623 14.8851C129.797 14.5586 130.257 14.6079 130.438 15.0796ZM118.628 15.6941C119.252 16.2307 119.768 18.0326 119.298 18.0326C118.844 18.0326 117.547 16.337 117.547 15.7431C117.547 15.0662 117.881 15.0509 118.628 15.6941ZM133.012 15.4602C133.248 15.8423 132.646 17.0164 132.011 17.4124C131.521 17.7179 131.463 17.6737 131.463 16.9943C131.463 15.8712 132.581 14.7641 133.012 15.4602ZM189.831 15.7752C190.078 16.1737 188.306 18.8829 187.798 18.8829C187.007 18.8829 187.088 18.038 188.001 16.7687C188.913 15.5016 189.473 15.1972 189.831 15.7752ZM191.664 16.8378C191.653 17.1624 189.699 19.7339 189.467 19.729C189.351 19.7265 189.08 19.6128 188.864 19.4759C188.55 19.2778 188.692 18.9099 189.566 17.6618C190.474 16.3653 190.749 16.1428 191.167 16.3659C191.444 16.5141 191.668 16.7264 191.664 16.8378ZM193.635 17.3591C193.791 17.4994 191.659 20.5837 191.406 20.5837C191.299 20.5837 190.994 20.4244 190.728 20.2293C190.284 19.9042 190.328 19.7509 191.258 18.373C192.109 17.1131 192.373 16.9019 192.895 17.062C193.237 17.1669 193.57 17.3004 193.635 17.3591ZM121.996 17.6547C121.892 17.7585 121.807 17.6734 121.807 17.4657C121.807 17.2579 121.892 17.1729 121.996 17.2766C122.1 17.3806 122.1 17.5507 121.996 17.6547ZM123.795 17.4657C123.795 17.6216 123.738 17.7491 123.669 17.7491C123.6 17.7491 123.465 17.6216 123.369 17.4657C123.272 17.3098 123.329 17.1822 123.494 17.1822C123.659 17.1822 123.795 17.3098 123.795 17.4657ZM127.108 17.6547C127.004 17.7585 126.919 17.6734 126.919 17.4657C126.919 17.2579 127.004 17.1729 127.108 17.2766C127.212 17.3806 127.212 17.5507 127.108 17.6547ZM128.907 17.4657C128.907 17.6216 128.85 17.7491 128.781 17.7491C128.712 17.7491 128.577 17.6216 128.481 17.4657C128.384 17.3098 128.441 17.1822 128.606 17.1822C128.771 17.1822 128.907 17.3098 128.907 17.4657ZM195.445 18.1358C194.839 19.1369 193.294 21.15 193.135 21.1463C193.033 21.1438 192.777 21.0329 192.566 20.9C192.266 20.7098 192.406 20.3237 193.218 19.1035C194.09 17.7925 194.361 17.5697 194.946 17.6814C195.369 17.7622 195.564 17.9396 195.445 18.1358ZM205.762 18.1743C205.509 18.564 205.104 19.191 204.86 19.5678C204.616 19.9445 204.235 20.3223 204.012 20.4076C203.789 20.4929 204.071 19.8659 204.637 19.0142C205.204 18.1624 205.792 17.4657 205.944 17.4657C206.096 17.4657 206.014 17.7846 205.762 18.1743ZM197.592 18.4623C197.647 18.5176 197.2 19.2407 196.599 20.0692C195.674 21.3422 195.384 21.5618 194.724 21.4862C194.294 21.4368 193.943 21.3334 193.943 21.2566C193.943 21.1795 194.422 20.4235 195.008 19.5763C195.927 18.2474 196.17 18.0584 196.782 18.199C197.173 18.2888 197.537 18.4073 197.592 18.4623ZM203.598 19.6624C202.439 21.2795 201.945 21.6591 200.954 21.6976C200.089 21.7311 202.609 18.3781 203.558 18.2327C203.971 18.1695 204.412 18.0983 204.538 18.0751C204.663 18.0516 204.24 18.7662 203.598 19.6624ZM199.169 19.4144C197.902 21.4071 197.358 21.9496 196.778 21.7985C196.221 21.6531 196.217 21.614 196.669 20.9025C197.936 18.9099 198.48 18.3673 199.059 18.5184C199.616 18.6638 199.621 18.7029 199.169 19.4144ZM172.539 22.4451C173.299 22.8799 173.971 23.2739 174.033 23.3207C174.228 23.4683 173.175 25.9693 172.918 25.9693C172.497 25.9693 168.855 23.124 167.89 22.0409C166.693 20.6979 166.549 20.1945 167.114 19.3342L167.579 18.6258L169.368 20.14C170.351 20.9731 171.778 22.0103 172.539 22.4451ZM201.464 19.379C200.205 21.3566 199.575 22.0009 198.898 22.0009C198.516 22.0009 198.203 21.9352 198.203 21.8549C198.203 21.7744 198.668 21.0091 199.237 20.1542C200.105 18.8503 200.408 18.5995 201.116 18.5995H201.96L201.464 19.379ZM118.329 22.497C118.664 23.2373 119.215 24.1787 119.551 24.5888C119.962 25.0897 120.101 25.5291 119.974 25.9284C119.785 26.5211 119.747 26.5226 103.762 26.6002L87.739 26.6779L86.9518 27.463C86.1745 28.2383 86.1634 28.3001 86.0728 32.3342L85.9814 36.4199L84.5108 37.5355C83.7022 38.1492 82.4904 39.2099 81.8179 39.8925L80.595 41.134L80.6819 32.7721C80.7645 24.7958 80.7963 24.3669 81.3749 23.4678C82.1042 22.3337 82.9587 21.7019 84.1453 21.419C84.6312 21.3033 92.3836 21.1956 101.373 21.1795L117.718 21.1506L118.329 22.497ZM151.411 21.9901C153.049 23.1109 153.423 24.1917 153.557 28.1929C153.629 30.3188 153.563 31.8036 153.39 31.9765C153.211 32.155 152.196 32.1854 150.662 32.0578L148.219 31.8546V30.6037C148.219 29.9155 148.032 28.9055 147.803 28.3593C147.082 26.6374 146.49 26.5362 137.152 26.5362C131.132 26.5362 128.907 26.4483 128.907 26.2105C128.907 26.0313 129.342 25.4624 129.875 24.9463C130.407 24.4301 130.992 23.5245 131.174 22.9335C131.357 22.3428 131.559 21.692 131.624 21.4873C131.719 21.188 133.562 21.1327 141.067 21.2038L150.392 21.2923L151.411 21.9901ZM157.664 21.9595C159.098 22.8459 159.626 24.0106 159.791 26.6566C159.884 28.1422 159.818 29.2074 159.611 29.5952C159.168 30.4203 157.146 31.5411 155.674 31.7778L154.467 31.9716L154.461 28.3327C154.454 24.5421 154.076 22.9675 152.95 22.0372C152.015 21.2654 152.428 21.065 154.611 21.2296C156.023 21.3362 157.055 21.5831 157.664 21.9595ZM167.751 23.0916C168.645 24.0035 170.304 25.342 171.436 26.0662C172.568 26.7904 173.495 27.4446 173.495 27.52C173.495 27.5954 173.179 28.4942 172.793 29.5175C170.376 35.9272 165.531 42.1176 160.179 45.6366C158.116 46.9924 155.541 47.8563 152.049 48.3634C150.038 48.6554 149.409 48.6251 146.653 48.1032C142.974 47.4068 141.929 47.3722 140.882 47.9127C139.281 48.7387 138.832 51.2453 139.759 54.1728C140.007 54.9523 140.809 57.7585 141.542 60.4088C142.276 63.059 143.041 65.8015 143.242 66.503C144.739 71.7324 144.664 71.2667 144.102 71.8878C143.629 72.4087 143.228 72.4555 139.243 72.4555H134.9L134.459 70.8965C133.715 68.2632 133.262 66.4579 132.75 64.0937C132.481 62.8465 132.149 61.3796 132.012 60.8339C131.875 60.2883 131.619 58.5025 131.442 56.8656C130.963 52.4282 131.53 49.4165 134.129 42.5884C135.081 40.0903 135.063 39.658 133.963 38.5256L133.055 37.5908H133.84C134.86 37.5908 135.723 37.1194 135.723 36.5616C135.723 36.0157 134.913 34.8223 133.12 32.7237C132.365 31.8396 131.747 31.0422 131.747 30.9521C131.747 30.5263 135.384 30.8534 142.539 31.9223C149.744 32.9989 152.168 33.1392 155.033 32.646C158.574 32.036 159.8 31.1958 162.256 27.6992C163.601 25.7833 165.827 22.0403 165.827 21.6939C165.827 21.2149 166.116 21.4249 167.751 23.0916ZM126.922 22.5613C126.517 23.3164 125.6 23.7719 124.92 23.5565C124.05 23.281 124.257 22.936 125.57 22.472C127.181 21.9028 127.272 21.9091 126.922 22.5613ZM125.69 26.4741L128.011 26.3567L128.196 27.3389C128.336 28.0883 128.257 28.4376 127.862 28.812C127.215 29.4251 124.362 31.3571 124.118 31.3481C124.018 31.3441 123.189 30.6737 122.276 29.8579L120.615 28.3749L120.811 27.0725L121.007 25.77L122.188 26.1807C122.987 26.4585 124.12 26.5534 125.69 26.4741ZM122.233 30.8948L123.369 31.9014L122.233 32.8929C121.608 33.4385 121.024 33.8895 120.936 33.8952C120.718 33.9096 119.535 31.0289 119.535 30.4849C119.535 29.8106 120.125 29.3622 120.643 29.6425C120.892 29.7777 121.608 30.3409 122.233 30.8948ZM129.539 29.9376C129.731 30.2437 129.519 30.8364 128.784 32.053C127.315 34.485 127.351 34.4706 126.033 33.1548L124.872 31.9969L126.676 30.6882C128.531 29.3426 129.076 29.2 129.539 29.9376ZM115.483 30.4708L117.538 30.6462L115.554 32.7197C113.371 35.0018 113.153 35.6832 114.271 36.7317L114.972 37.3884L114.058 37.8439C113.205 38.2694 113.146 38.393 113.172 39.7167C113.187 40.4962 113.299 42.1544 113.421 43.4016C113.671 45.968 113.322 48.192 112.394 49.9443C111.324 51.9624 106.416 57.716 105.765 57.716C105.597 57.716 104.523 57.2675 103.378 56.7196C101.745 55.9387 101.328 55.617 101.447 55.2315C101.532 54.9611 102.043 53.5946 102.585 52.1952L103.57 49.6506L105.304 48.8776C106.258 48.4527 107.039 47.9927 107.039 47.8555C107.039 47.277 106.626 47.3175 105.24 48.0312C103.97 48.6857 103.43 48.7872 101.217 48.7872C98.1406 48.7872 97.0503 48.3994 93.9047 46.1871C90.6177 43.875 88.484 43.8455 88.484 46.1117C88.484 46.9136 88.7646 47.3181 90.3061 48.7387C92.4131 50.6801 95.5136 53.0614 98.424 54.9736L100.46 56.3112L99.7849 57.5161C99.0505 58.8274 98.2454 61.8467 98.2388 63.3142C98.234 64.3873 98.2743 64.3797 96.2466 63.6909C88.4959 61.0582 81.8267 56.3265 79.6351 51.9052C78.9083 50.4386 78.7936 49.8924 78.8027 47.9368C78.812 45.9076 78.916 45.4762 79.7907 43.8327C82.577 38.5988 90.0653 33.9609 99.6682 31.521C104.161 30.3792 109.93 29.9963 115.483 30.4708ZM118.399 32.7517C118.399 37.19 116.966 42.526 114.771 46.2648L114.256 47.1437L114.169 44.1389C114.121 42.486 114.063 40.56 114.039 39.8584C113.998 38.6232 114.025 38.5801 114.895 38.4959C116.329 38.357 116.458 37.1651 115.118 36.4491C114.015 35.8598 114.271 35.0658 116.189 33.1341C117.161 32.1556 118.056 31.3549 118.177 31.3549C118.299 31.3549 118.399 31.9833 118.399 32.7517ZM134.064 35.1531C135.076 36.5395 135.073 36.7405 134.039 36.7405C132.32 36.7405 132.03 37.8663 133.424 39.126C133.751 39.4214 134.019 39.861 134.019 40.1031C134.019 40.3451 133.521 41.8877 132.913 43.5314C132.306 45.1749 131.571 47.3926 131.28 48.4598L130.753 50.4003L130.57 47.8929C130.319 44.4609 130.29 36.5471 130.517 33.6386L130.703 31.2452L131.98 32.6465C132.682 33.417 133.62 34.5451 134.064 35.1531ZM124.759 33.0221C125.513 33.8549 125.099 35.0397 124.053 35.0397C122.997 35.0397 122.61 33.8929 123.379 33.0442C124.003 32.356 124.152 32.3535 124.759 33.0221ZM129.632 40.6379C129.648 49.6047 129.883 52.5951 131.167 60.2449C131.642 63.0724 132.031 65.446 132.031 65.5194C132.031 65.5926 130.868 65.6526 129.446 65.6526C123.28 65.6526 113.302 66.5588 107.615 67.6354C106.778 67.7936 106.038 67.8661 105.968 67.7967C105.707 67.5359 106.612 64.7306 107.006 64.5795C107.232 64.493 108.071 64.7754 108.87 65.2068C111.043 66.3797 112.694 65.8961 111.243 64.5117C110.643 63.9395 110.636 63.9009 111.157 64.0463C113.094 64.5877 113.81 64.5616 114.958 63.9069C115.598 63.5421 116.123 63.0931 116.124 62.9091C116.127 62.5046 115.343 61.6843 114.954 61.6843C114.799 61.6843 114.753 61.5548 114.851 61.3963C114.95 61.2379 115.15 61.1823 115.297 61.2727C115.755 61.555 116.695 61.1027 116.695 60.6001C116.695 59.7027 110.919 56.8237 109.098 56.814C108.005 56.8081 108 56.8194 110.265 54.1819C113.425 50.5012 116.703 45.0544 117.843 41.5895C118.549 39.4415 119.244 35.8516 119.274 34.1894L119.297 32.9138L119.705 33.8461C120.213 35.0049 120.812 35.2569 121.526 34.6114C122.055 34.1338 122.087 34.1423 122.349 34.8303C122.499 35.2237 122.57 35.7827 122.507 36.0724C122.445 36.3618 122.129 38.0656 121.805 39.8584C121.482 41.6513 121.099 43.6921 120.955 44.3937C120.81 45.0952 120.426 47.1361 120.1 48.9289C119.775 50.7218 119.323 53.043 119.096 54.0869C118.377 57.3917 118.464 57.7987 120.556 60.8955C121.587 62.4204 122.537 63.6685 122.669 63.6685C122.8 63.6685 123.82 62.4887 124.934 61.0465C126.899 58.504 126.956 58.386 126.802 57.1491C126.715 56.4475 126.509 53.45 126.345 50.4879C126.18 47.5258 125.923 43.8452 125.772 42.3086C125.395 38.4576 125.423 35.2282 125.837 34.815C126.1 34.5531 126.32 34.6117 126.814 35.0746L127.451 35.6724L128.472 34.0805C129.033 33.205 129.52 32.4887 129.554 32.4887C129.589 32.4887 129.624 36.156 129.632 40.6379ZM124.588 37.5971C124.666 39.0704 124.613 39.2116 123.629 40.1453L122.587 41.134L122.779 39.575C123.101 36.9511 123.481 35.843 124.023 35.9459C124.394 36.0162 124.524 36.3975 124.588 37.5971ZM123.257 45.9167C122.315 46.8572 121.473 47.5564 121.386 47.47C121.3 47.3838 121.385 46.6386 121.576 45.8143C121.873 44.5289 122.126 44.1544 123.356 43.1825L124.789 42.0492L124.88 43.1278C124.963 44.1167 124.828 44.3486 123.257 45.9167ZM52.5104 47.3322C51.0265 47.6786 49.5301 48.1177 49.1851 48.3076C48.1166 48.8958 47.1513 50.44 46.6606 52.3465C44.7901 59.6106 50.3429 71.5706 57.0195 74.6582C59.0166 75.582 60.0026 75.5726 63.5865 74.5973C66.9644 73.678 67.4739 73.2767 68.4611 70.7548C69.2929 68.6292 69.2909 64.4868 68.4562 61.1174C67.0544 55.4591 63.0866 49.5347 59.3776 47.5618C57.3421 46.479 56.3123 46.4445 52.5104 47.3322ZM55.4924 47.6996C53.4027 48.1341 53.3624 48.1367 53.3624 47.8351C53.3624 47.5318 56.1897 47.0065 56.7704 47.2019C57.0047 47.2807 56.4296 47.5046 55.4924 47.6996ZM159.715 74.0712C159.471 76.1384 158.613 77.281 156.728 78.0449C155.241 78.6481 152.185 78.9409 152.203 78.4789C152.207 78.3618 152.59 77.8944 153.054 77.44C153.518 76.9854 154.025 76.1563 154.181 75.5976C154.347 74.9995 154.472 69.4492 154.485 62.1095L154.506 49.6376L157.113 48.3408L159.721 47.044L159.805 59.8206C159.851 66.8477 159.811 73.2605 159.715 74.0712ZM189.257 47.2118C186.028 48.0035 181.444 51.8601 178.672 56.1184C176.891 58.8535 175.164 62.7328 174.302 65.9361C173.8 67.8001 173.651 69.1153 173.645 71.7469C173.631 77.4069 174.524 78.9355 179.976 82.5889C182.222 84.0932 182.809 84.3605 183.869 84.3605C187.426 84.3605 192.199 81.1351 195.968 76.1863C197.829 73.7415 200.591 68.1161 201.348 65.2275C202.531 60.7132 202.348 55.776 200.919 53.6541C200.022 52.3233 194.105 47.65 192.836 47.2704C191.636 46.9116 190.554 46.8937 189.257 47.2118ZM123.074 50.8028C121.674 52.1022 120.449 53.1688 120.352 53.1731C120.124 53.183 120.609 50.5766 120.886 50.304C121.002 50.19 121.991 49.4658 123.085 48.6942C124.974 47.3611 125.086 47.32 125.346 47.8657C125.584 48.3632 125.279 48.7563 123.074 50.8028ZM60.0481 48.5865C59.9805 48.654 59.1251 48.8759 58.1473 49.0797C56.6202 49.3978 56.2536 49.3904 55.5495 49.0267C55.0985 48.794 54.8009 48.5324 54.8884 48.4454C54.9755 48.3583 55.7861 48.135 56.6898 47.949C58.0663 47.6659 58.4815 47.68 59.2517 48.0372C59.7576 48.2719 60.116 48.5191 60.0481 48.5865ZM192.978 48.0522C195.699 49.2852 196.849 51.7493 196.828 56.2987C196.809 60.3543 195.885 63.8893 193.679 68.3454C187.372 81.0898 176.468 84.8858 174.382 75.0636C172.428 65.8615 180.247 50.978 188.513 48.1659C190.799 47.3881 191.475 47.3708 192.978 48.0522ZM54.4376 48.9774C57.1683 50.2759 60.628 54.3704 62.4854 58.5023C66.2717 66.9248 64.959 74.9176 59.8019 74.8439C53.8498 74.7588 46.8508 64.3564 46.8347 55.5708C46.8233 49.4224 49.8513 46.7965 54.4376 48.9774ZM61.3332 49.5058C62.2602 50.0009 61.9583 50.2677 60.0668 50.624C58.431 50.9321 58.172 50.9142 57.4518 50.4434L56.6526 49.921L58.0606 49.5939C59.895 49.1676 60.6615 49.1472 61.3332 49.5058ZM188.831 50.0304C185.217 51.2028 181.464 55.1436 178.677 60.6922C178.207 61.6276 177.406 63.6685 176.897 65.2275C176.096 67.681 175.968 68.4809 175.94 71.18C175.913 73.9201 175.99 74.4623 176.578 75.6537C179.325 81.2218 187.101 76.6583 191.816 66.7111C193.673 62.794 194.338 60.1386 194.355 56.5822C194.367 54.0319 194.275 53.4165 193.716 52.283C193.357 51.5554 192.732 50.7436 192.328 50.4791C191.463 49.9139 189.834 49.7047 188.831 50.0304ZM153.555 62.6055C153.473 75.1132 153.471 75.1511 152.823 76.1911C152.425 76.83 151.655 77.4888 150.835 77.8918L149.497 78.5497H117.121C80.7881 78.5497 83.1945 78.6906 81.6327 76.4709L80.7685 75.2421L80.6844 65.1141L80.6001 54.986L82.3419 56.6148C83.2995 57.5102 84.5187 58.5391 85.051 58.9008L86.0186 59.5584L86.0205 65.1708C86.0228 71.2962 86.2174 72.2202 87.6166 72.7512C88.6762 73.1534 145.717 73.1148 146.604 72.7115C148.118 72.0232 148.219 71.2868 148.219 60.966V51.48L148.858 51.4684C149.209 51.4621 150.327 51.1529 151.343 50.7813C152.358 50.41 153.29 50.0962 153.413 50.0843C153.536 50.0724 153.6 55.7069 153.555 62.6055ZM49.711 51.0642C46.3013 53.9276 48.7213 64.37 54.1514 70.2239C55.8792 72.0865 57.5796 73.0224 59.2358 73.0224C61.6902 73.0224 62.9372 70.699 62.6473 66.6677C61.9782 57.375 53.8586 47.5811 49.711 51.0642ZM53.5891 51.3629C56.4683 52.7947 59.6008 57.2477 61.3488 62.3929C61.8918 63.991 62.0233 64.9658 62.0239 67.4027C62.0245 70.0328 61.9466 70.5329 61.4283 71.2293C60.707 72.199 59.6848 72.3688 58.4222 71.7285C53.948 69.4603 49.88 62.309 49.4838 56.0152C49.304 53.1612 49.7318 51.5378 50.8064 50.9962C51.7743 50.508 51.9052 50.5253 53.5891 51.3629ZM62.8986 51.1257C63.2343 51.5772 63.0974 51.6628 61.3678 52.0792C60.0612 52.3941 59.3548 52.4471 59.1041 52.2493C58.4636 51.7442 58.905 51.3505 60.4854 51.0174C62.5868 50.5747 62.4857 50.5701 62.8986 51.1257ZM192.137 51.1319C193.385 52.1365 193.777 53.4103 193.773 56.4404C193.767 60.0241 193.053 62.6908 190.968 66.9282C188.286 72.377 184.731 76.2314 181.53 77.1611C179.66 77.7045 179.054 77.4213 178.238 75.62C176.97 72.8237 177.709 67.1651 180.001 62.1208C182.312 57.0345 186.499 52.1969 189.559 51.0784C191.032 50.5398 191.411 50.5474 192.137 51.1319ZM198.386 51.9528C200.624 53.8607 200.856 54.6232 198.68 52.9163C197.077 51.6591 196.175 50.6296 196.676 50.6296C196.763 50.6296 197.533 51.2252 198.386 51.9528ZM64.0431 52.5429C64.702 53.4092 64.4813 53.6393 62.6635 53.9823C60.9688 54.3021 60.8649 54.2885 60.3662 53.6864C59.7817 52.9806 59.7314 53.018 62.0154 52.4593C62.8012 52.2669 63.4942 52.0954 63.5552 52.0784C63.616 52.0611 63.8355 52.27 64.0431 52.5429ZM125.778 52.9681C125.781 53.0849 125.548 53.4038 125.26 53.6768C124.973 53.9497 123.76 55.1116 122.564 56.259C120.275 58.4563 119.535 58.6902 119.535 57.2174C119.535 56.5351 119.961 56.0949 122.427 54.2298C124.512 52.6532 125.384 52.1419 125.547 52.399C125.672 52.5951 125.776 52.8513 125.778 52.9681ZM199.38 54.2437C200.347 55.0192 201.126 55.8905 201.219 56.2987C201.307 56.6884 201.44 57.2304 201.514 57.5034C201.589 57.7763 201.574 57.9994 201.482 57.9994C201.133 57.9994 197.686 55.1388 197.522 54.7136C197.298 54.1317 197.302 52.8973 197.527 52.8973C197.623 52.8973 198.457 53.503 199.38 54.2437ZM65.2868 54.5909C65.6134 55.2 65.7397 55.1371 63.0256 55.7137C62.0954 55.9112 61.6964 55.8928 61.5388 55.6451C61.0926 54.9446 61.3534 54.6513 62.6635 54.3786C64.6844 53.9582 64.9593 53.9806 65.2868 54.5909ZM66.1325 56.28C66.2941 56.5816 66.4265 56.8832 66.4265 56.9501C66.4265 57.017 65.6415 57.2378 64.6821 57.441C63.0673 57.7831 62.9094 57.7715 62.5521 57.284C61.9696 56.4886 62.0537 56.3835 63.5155 56.0793C65.5316 55.6601 65.8116 55.6813 66.1325 56.28ZM200.728 58.35C201.5 59.0031 201.632 59.2891 201.557 60.1571L201.469 61.188L199.464 59.6196C197.551 58.1233 197.465 58.0045 197.578 57.0317L197.697 56.0121L198.754 56.793C199.335 57.2228 200.224 57.9235 200.728 58.35ZM102.15 57.0632C102.574 57.3279 102.961 57.5706 103.011 57.6026C103.061 57.6346 102.973 57.8965 102.816 58.1845C102.357 59.0249 101.643 61.4442 101.643 62.1599C101.643 62.6923 101.49 62.8181 100.845 62.8181C100.406 62.8181 99.8335 62.6588 99.5722 62.4638C99.1468 62.1466 99.136 61.9448 99.4671 60.5375C99.7852 59.1859 100.978 56.5822 101.279 56.5822C101.334 56.5822 101.726 56.7987 102.15 57.0632ZM125.905 57.3152C126.056 57.9155 125.783 58.458 124.394 60.3158L122.699 62.584L121.941 61.4397C121.523 60.8101 121.229 60.1537 121.287 59.9808C121.394 59.6607 125.206 56.6289 125.539 56.5986C125.639 56.5895 125.804 56.9121 125.905 57.3152ZM67.0689 58.2525C67.193 58.7265 66.9695 58.8438 65.3683 59.1454C63.8304 59.4348 63.4836 59.4275 63.276 59.1003C62.8492 58.4274 62.9702 58.333 64.7935 57.9181C66.7729 57.4677 66.8667 57.4813 67.0689 58.2525ZM110.437 57.9195C112.495 58.6976 115.46 60.2308 114.945 60.2497C114.686 60.2591 113.663 60.0136 112.673 59.7038C109.102 58.5864 108.979 59.0638 112.315 61.0984C114.944 62.7019 115.317 63.2393 113.101 62.2311C110.153 60.8892 109.25 60.5547 108.996 60.7109C108.542 60.991 108.955 61.3039 111.153 62.3456C114.339 63.8561 113.902 64.0007 109.925 62.7515C107.653 62.0381 107.198 62.3839 108.797 63.6095C110.061 64.5795 109.813 64.8967 108.518 63.9655C107.851 63.4856 107.56 63.4491 106.329 63.69C105.341 63.883 104.493 63.8692 103.544 63.6444C102.012 63.2813 102.026 63.3646 102.95 60.1253C103.571 57.9535 103.691 57.8359 104.92 58.212C105.791 58.479 106.187 58.4456 107.283 58.0116C108.971 57.3441 108.92 57.3455 110.437 57.9195ZM132.884 59.2735C132.6 59.6151 132.622 59.8351 132.998 60.4073C133.54 61.2336 133.811 61.2838 134.425 60.6721C134.958 60.1395 134.993 59.6519 134.53 59.1899C134.064 58.7245 133.308 58.7628 132.884 59.2735ZM199.868 60.6922C201.248 61.7827 201.73 62.8192 201.053 63.2371C200.902 63.33 199.969 62.7444 198.979 61.9354C197.396 60.6426 197.192 60.3654 197.298 59.6451C197.434 58.7194 197.303 58.6658 199.868 60.6922ZM67.6363 59.9516C67.7547 60.4037 67.5338 60.5349 66.2021 60.8019C64.1036 61.2226 63.9605 61.2081 63.7909 60.5613C63.6702 60.1009 63.8477 59.9601 64.823 59.7412C66.7724 59.3044 67.4807 59.3572 67.6363 59.9516ZM68.0748 61.7396C68.1413 62.0894 67.872 62.2934 67.0834 62.4904C64.4666 63.1449 64.5132 63.1464 64.37 62.3989C64.2513 61.7795 64.3669 61.6715 65.4024 61.4337C67.0308 61.0601 67.966 61.167 68.0748 61.7396ZM199.278 62.9494C200.383 63.7878 200.758 64.2552 200.755 64.7918C200.745 66.3718 200.359 66.3709 198.378 64.7861C197.344 63.9596 196.499 63.1869 196.499 63.0693C196.499 62.9513 196.626 62.5211 196.782 62.1132C197.098 61.2815 197.065 61.2702 199.278 62.9494ZM68.4145 63.4794C68.4145 64.0608 68.2171 64.1767 66.7815 64.4395C64.9712 64.7711 64.7225 64.7158 64.7225 63.9828C64.7225 63.6129 65.0792 63.4029 66.0715 63.188C68.2285 62.7215 68.4145 62.7444 68.4145 63.4794ZM134.134 64.0973C133.928 64.9205 134.415 65.6526 135.17 65.6526C135.766 65.6526 136.126 64.7725 135.865 63.9519C135.591 63.0908 134.361 63.194 134.134 64.0973ZM103.016 64.4346C103.693 64.6583 104.489 64.8593 104.784 64.8817C105.247 64.9162 105.297 65.0772 105.144 66.0356C105.045 66.6481 104.633 68.3114 104.226 69.7315L103.486 72.3138L99.0389 72.3917L94.5917 72.4697L95.4357 70.4076C95.8998 69.2735 96.3942 68.0903 96.5343 67.7785C96.6746 67.4667 96.9801 66.7334 97.2133 66.1487C97.5689 65.2578 97.7725 65.0857 98.4714 65.0857C99.0485 65.0857 99.4492 64.8666 99.7727 64.374C100.279 63.603 100.509 63.6072 103.016 64.4346ZM198.577 65.6475C199.847 66.6498 200.151 67.0387 200.015 67.49C199.714 68.4923 199.501 68.4883 198.199 67.4548C197.498 66.8984 196.635 66.213 196.28 65.9318C195.718 65.4857 195.678 65.3281 195.967 64.6951C196.341 63.8748 196.319 63.8666 198.577 65.6475ZM68.6246 65.4361C68.5423 65.6498 67.8127 65.9775 67.003 66.164C65.0388 66.6164 64.9525 66.6033 65.0576 65.8703C65.1323 65.3505 65.4271 65.1821 66.7105 64.9256C68.3168 64.605 68.8856 64.7566 68.6246 65.4361ZM68.6985 66.9047C68.6985 67.4982 68.5068 67.6309 67.2646 67.8967C65.2516 68.3276 65.0346 68.2998 65.209 67.6337C65.293 67.3134 65.6855 66.99 66.1053 66.8956C66.7514 66.7505 68.4187 66.3202 68.6275 66.2451C68.6664 66.2312 68.6985 66.5279 68.6985 66.9047ZM197.69 67.8613C199.228 69.0379 199.27 69.1059 198.963 69.9163C198.789 70.3775 198.558 70.7548 198.451 70.7548C198.343 70.7548 197.509 70.1578 196.596 69.4285C195.684 68.6992 194.888 68.0654 194.828 68.0203C194.768 67.9753 194.878 67.5535 195.074 67.0832C195.47 66.1269 195.394 66.1042 197.69 67.8613ZM123.174 67.5659C123.09 68.2981 122.981 68.3554 121.381 68.5093C119.53 68.6873 118.399 68.4342 118.399 67.8423C118.399 67.0552 119.104 66.7865 121.172 66.7865H123.264L123.174 67.5659ZM68.4494 68.8262C68.279 69.2857 67.8175 69.5419 66.6838 69.8061C65.8392 70.0028 65.1076 70.1692 65.0576 70.176C65.0079 70.1825 65.0079 69.9064 65.0576 69.5626C65.1266 69.0878 65.4563 68.8554 66.4265 68.5983C68.4312 68.0665 68.7189 68.0991 68.4494 68.8262ZM196.719 70.3004C198.022 71.3044 198.125 71.4663 197.848 72.072C197.681 72.4388 197.422 72.739 197.274 72.739C197.053 72.739 195.986 71.9388 193.858 70.1783C193.734 70.0751 193.787 69.6507 193.976 69.2355C194.361 68.3939 194.128 68.3038 196.719 70.3004ZM133.412 70.293C133.584 70.9745 133.804 71.7398 133.902 71.9938C134.062 72.4107 133.54 72.4555 128.511 72.4555H122.943V70.909V69.3625L125.002 69.2647C126.134 69.2108 128.419 69.1414 130.08 69.1105L133.099 69.0541L133.412 70.293ZM122.034 70.9898L122.12 72.4555H121.111H120.103V71.0581C120.103 69.8333 120.182 69.6454 120.742 69.5396C121.822 69.3355 121.946 69.4747 122.034 70.9898ZM68.0478 70.5606C67.9638 70.7792 67.3841 71.0397 66.7596 71.1392C66.1351 71.2389 65.4083 71.4031 65.1445 71.5042C64.7855 71.6417 64.6901 71.5564 64.7656 71.1655C64.8395 70.7831 65.2845 70.5606 66.4273 70.3344C68.1753 69.9886 68.2631 70.0008 68.0478 70.5606ZM119.073 70.7902C119.425 72.5482 119.708 72.4555 113.997 72.4555H108.743V71.7928C108.743 71.1717 108.927 71.0998 111.654 70.6564C114.497 70.1938 115.776 70.0487 117.866 69.9521C118.806 69.9087 118.911 69.9815 119.073 70.7902ZM195.345 72.112C196.783 73.311 196.94 73.5425 196.692 74.0961C196.538 74.4411 196.334 74.7231 196.238 74.7231C196.143 74.7231 195.269 74.0808 194.298 73.2959C192.709 72.013 192.566 71.8126 192.879 71.3118C193.071 71.0054 193.338 70.7548 193.473 70.7548C193.608 70.7548 194.45 71.3656 195.345 72.112ZM107.837 71.9626C107.913 72.3566 107.728 72.4555 106.917 72.4555C105.825 72.4555 105.6 72.095 106.4 71.6241C107.083 71.2214 107.723 71.3721 107.837 71.9626ZM67.3032 72.0006C67.1223 72.2183 66.5225 72.4807 65.9701 72.5842C65.418 72.6877 64.7662 72.8489 64.5217 72.9425C64.2226 73.057 64.1198 72.9819 64.2081 72.7132C64.3541 72.2681 65.9209 71.6457 66.9581 71.621C67.5031 71.6083 67.569 71.6808 67.3032 72.0006ZM193.891 73.7625C194.779 74.4811 195.55 75.19 195.605 75.3377C195.66 75.4853 195.487 75.847 195.22 76.1412C194.749 76.6602 194.682 76.6333 192.935 75.2362C191.153 73.8107 191.139 73.7894 191.616 73.1347C191.88 72.771 192.138 72.4694 192.187 72.4643C192.237 72.4595 193.003 73.0437 193.891 73.7625ZM66.4265 73.1531C66.4265 73.2251 65.9073 73.4235 65.2726 73.5941C64.6381 73.7648 63.9034 73.9796 63.6396 74.072C63.3078 74.1883 63.2476 74.1466 63.4445 73.9365C63.8707 73.4819 66.4265 72.8104 66.4265 73.1531ZM192.434 75.6146C194.329 77.0738 194.396 77.1843 193.793 77.8499C193.316 78.3757 193.261 78.3561 191.635 77.0815C189.925 75.741 189.713 75.3731 190.308 74.7798C190.773 74.3152 190.719 74.2943 192.434 75.6146ZM191.139 77.4669C192.817 78.7833 192.827 78.798 192.276 79.3477C191.725 79.8976 191.707 79.8913 189.988 78.5435C188.343 77.2532 188.28 77.1588 188.729 76.6628C188.99 76.3754 189.258 76.1404 189.325 76.1404C189.392 76.1404 190.208 76.7373 191.139 77.4669ZM191.103 80.4239C191.103 80.5515 190.845 80.7936 190.53 80.9619C190.045 81.221 189.69 81.0634 188.223 79.9364L186.489 78.6047L187.15 78.1076C187.799 77.6189 187.839 77.6328 189.457 78.9012C190.362 79.6113 191.103 80.2967 191.103 80.4239ZM187.666 80.2989C188.385 80.8712 189.088 81.439 189.229 81.5609C189.37 81.6827 189.15 81.9347 188.741 82.1207C188.062 82.4296 187.859 82.3534 186.422 81.2465C185.171 80.2831 184.914 79.9545 185.17 79.6461C185.681 79.031 186.264 79.1835 187.666 80.2989ZM186.876 83.041C186.474 83.2236 185.968 82.9878 184.749 82.049C183.36 80.9795 183.21 80.7729 183.608 80.48C183.987 80.2 184.349 80.3687 185.734 81.4721C187.182 82.6255 187.333 82.8333 186.876 83.041ZM183.892 82.1417C185.179 83.1108 185.379 83.3701 185.006 83.5788C184.668 83.7673 184.111 83.5079 182.861 82.581C181.273 81.4033 181.019 80.9591 181.933 80.9591C182.148 80.9591 183.029 81.4911 183.892 82.1417ZM181.656 82.4019C183.619 83.8809 183.416 84.1777 181.404 82.7709C179.419 81.3831 179.265 81.2425 179.731 81.2425C179.944 81.2425 180.81 81.7644 181.656 82.4019ZM120.813 83.492C125.888 84.642 129.058 85.9498 131.805 88.0267L133.143 89.0375L133.154 92.088L133.167 95.1385L122.588 95.0643L112.009 94.99L111.938 88.783L111.868 82.5756L115.062 82.7443C116.819 82.8372 119.407 83.1737 120.813 83.492ZM63.1849 85.6386C62.4098 86.8192 62.1204 90.6311 62.217 98.3914C62.3158 106.357 62.1701 107.886 60.7314 113.981C59.4202 119.537 57.5619 124.52 55.4626 128.108C53.8435 130.876 50.882 134.699 49.3944 135.942L48.0294 137.083H37.9514H27.8733L27.6958 136.197C27.3613 134.528 27.4334 134.418 29.2286 133.859C31.4986 133.153 33.6221 131.077 34.5877 128.619C35.5061 126.282 35.3261 124.512 33.9265 122.129C33.3605 121.165 32.3767 119.065 31.7403 117.462C31.1038 115.859 30.4157 114.229 30.2112 113.84C29.5302 112.543 27.9648 111.207 26.0983 110.332C24.4437 109.556 23.9726 109.466 21.5543 109.467C19.2604 109.468 18.6206 109.577 17.2812 110.195C15.3938 111.065 13.9013 112.326 12.4685 114.262C10.8858 116.4 10.326 117.657 9.49648 120.932C8.72684 123.972 7.90039 125.721 6.43552 127.409C5.93227 127.99 5.70876 128.467 5.86723 128.626C6.12056 128.878 7.70784 128.624 8.88559 128.141C9.37635 127.94 9.40503 128.016 9.21759 129.03C9.10456 129.639 8.69474 130.934 8.3068 131.907C7.91885 132.88 7.67745 133.799 7.77004 133.948C7.87057 134.11 8.46357 133.997 9.23207 133.668C10.8549 132.974 10.7995 132.965 10.7021 133.894C10.6211 134.666 10.6342 134.673 12.1113 134.576C13.3191 134.498 13.6023 134.564 13.6023 134.925C13.6023 135.171 13.928 135.453 14.3259 135.553C14.9536 135.71 17.5468 135.365 19.0693 134.922C19.4746 134.803 19.5663 134.957 19.5663 135.755C19.5663 136.53 19.4334 136.769 18.9273 136.904C18.576 136.998 15.2211 137.08 11.4723 137.085C5.49945 137.094 4.51539 137.159 3.51769 137.611C2.08178 138.262 0.61662 139.909 0.399075 141.116C0.307059 141.626 0.268719 153.464 0.313875 167.424L0.396235 192.804L1.3732 194.035C3.21807 196.36 2.85938 196.311 18.0753 196.318L31.4943 196.324V204.119V211.914H26.3823C21.6489 211.914 21.2283 211.956 20.7023 212.481C19.9721 213.21 19.9721 214.587 20.7023 215.316C21.2598 215.872 21.6489 215.883 41.822 215.883C62.1838 215.883 62.3809 215.877 63.1221 215.295C64.1278 214.506 64.1278 213.291 63.1221 212.502C62.4499 211.974 61.9881 211.914 58.5781 211.914H54.7824V204.119V196.324H65.7983C76.665 196.324 76.8308 196.316 78.0552 195.687C78.7433 195.333 79.6879 194.5 80.1744 193.818C81.0301 192.617 81.0548 192.494 81.1457 188.943L81.2391 185.3L82.7071 184.364C89.8889 179.783 94.8646 172.903 94.7337 167.736L94.6846 165.803L91.8494 162.45C89.3578 159.503 88.8012 159 87.2571 158.301C86.0242 157.743 84.8786 157.467 83.4182 157.375L81.3365 157.245L81.1945 149.077C81.042 140.3 80.9974 140.033 79.4425 138.584C78.004 137.244 77.0683 137.083 70.7234 137.083H64.7778L65.9928 134.319C67.4591 130.985 69.2031 124.201 69.6078 120.26C69.9745 116.688 69.7016 105.692 69.1747 102.814C68.8354 100.959 68.8462 100.48 69.2687 98.6655C69.5314 97.5374 70.2031 95.7851 70.7612 94.772C72.1874 92.1818 72.2973 90.8799 71.0892 90.8799H70.3562L70.9759 89.8791C72.2448 87.83 70.6893 86.555 68.9498 88.2183L68.1762 88.9581L68.4193 87.8824C68.5664 87.2319 68.5534 86.6035 68.3864 86.2923C68.0473 85.6599 66.9073 85.6219 66.3046 86.2231C65.8991 86.6282 65.8585 86.6205 65.8585 86.1381C65.8585 84.8038 63.965 84.4504 63.1849 85.6386ZM64.5268 87.4076C64.4001 88.1483 64.2965 89.5831 64.2965 90.5965C64.2965 92.0452 64.3876 92.4389 64.7225 92.4389C65.0087 92.4389 65.4279 91.5818 66.0005 89.8261C66.4691 88.3892 67.0124 87.0562 67.2075 86.864C67.6829 86.3963 67.6712 86.487 66.8533 89.6291C65.8099 93.6371 66.2498 93.9401 68.4301 90.7152C69.2293 89.5333 69.9546 88.6378 70.0424 88.7251C70.1298 88.8127 69.8836 89.3652 69.4948 89.953C68.6036 91.3009 67.738 93.8735 67.9711 94.4804C68.1188 94.8644 68.3142 94.7817 69.1336 93.9891C69.6752 93.465 70.1185 93.1138 70.1185 93.2082C70.1185 93.3029 69.749 94.16 69.2974 95.113C68.8459 96.066 68.3216 97.6632 68.1327 98.6621C67.7667 100.599 67.089 101.392 67.089 99.8838C67.089 99.25 66.8391 98.8172 66.1473 98.2537C65.2396 97.5142 65.2126 97.4342 65.3998 96.0255C65.658 94.0841 65.2658 93.3287 64.0889 93.501L63.2218 93.628L63.3823 90.6243C63.5458 87.5621 63.8966 86.0612 64.449 86.0612C64.6597 86.0612 64.6844 86.4867 64.5268 87.4076ZM69.8345 91.872C69.8345 91.95 69.7706 92.0137 69.6925 92.0137C69.6144 92.0137 69.5505 91.95 69.5505 91.872C69.5505 91.7941 69.6144 91.7303 69.6925 91.7303C69.7706 91.7303 69.8345 91.7941 69.8345 91.872ZM195.68 95.5821C192.634 97.0337 190.02 97.9663 188.999 97.9663C187.737 97.9663 187.945 98.4561 189.997 100.325L192.018 102.166L191.579 103.539C190.967 105.455 190.734 109.082 191.073 111.409C191.421 113.802 192.746 116.596 193.956 117.489C194.955 118.226 194.953 118.147 194.021 122.446C193.634 124.229 193.336 124.894 192.533 125.772C191.611 126.78 191.303 126.915 188.751 127.433C183.639 128.471 180.465 130.134 177.437 133.358C176.359 134.506 175.266 135.802 175.008 136.238C174.557 137.001 174.441 137.035 171.936 137.128C168.944 137.239 167.844 137.775 166.562 139.75C165.857 140.834 165.827 141.052 165.827 144.972V149.064L163.376 151.789C160.251 155.266 157.544 157.849 154.325 160.427C143.98 168.712 135.198 172.63 124.647 173.667C122.418 173.887 121.309 174.115 121.153 174.385C121.028 174.603 120.581 174.78 120.159 174.777C119.253 174.771 114.995 174.038 113.573 173.644C109.795 172.597 109.02 174.829 112.65 176.304C113.468 176.636 114.138 176.99 114.138 177.09C114.139 177.28 108.678 180.568 107.837 180.885C107.573 180.984 107.149 181.382 106.895 181.769C106.283 182.701 106.752 183.286 108.111 183.286C109.065 183.286 109.092 183.311 108.645 183.804C108.094 184.411 108.015 185.822 108.53 185.87C109.237 185.937 109.694 185.781 110.765 185.106C112.203 184.2 112.353 184.24 111.466 185.292C110.516 186.418 110.513 187.188 111.457 187.425C112.012 187.564 112.441 187.399 113.286 186.722C113.893 186.235 114.449 185.837 114.521 185.837C114.594 185.837 114.52 186.272 114.356 186.804C113.996 187.974 114.217 188.671 114.947 188.671C115.592 188.671 115.843 188.391 117.213 186.137C118.489 184.039 120.605 181.814 121.215 181.93C121.518 181.987 121.711 182.429 121.807 183.288L121.949 184.561L123.842 184.463C125.646 184.369 125.74 184.396 125.83 185.03C125.913 185.612 126.102 185.706 127.345 185.785C129.271 185.906 136.64 185.096 140.125 184.379C141.687 184.057 143.516 183.682 144.191 183.545C149.603 182.444 158.343 178.9 163.79 175.596C164.786 174.993 165.652 174.499 165.714 174.499C165.776 174.499 165.827 178.523 165.827 183.441C165.827 193.134 165.833 193.179 167.435 194.662C169.279 196.371 168.828 196.324 183.563 196.324H197.067V204.119V211.914H191.942C186.88 211.914 186.809 211.923 186.12 212.61C185.737 212.993 185.423 213.572 185.423 213.898C185.423 214.224 185.737 214.804 186.12 215.187L186.817 215.883H207.433H228.049L228.773 215.16C229.337 214.597 229.456 214.267 229.31 213.672C228.945 212.188 228.598 212.067 224.251 211.914L220.213 211.773L220.134 204.048L220.056 196.324H231.154C240.802 196.324 242.37 196.265 243.16 195.867C244.438 195.223 245.591 194.094 246.225 192.863C246.746 191.852 246.767 190.853 246.767 166.639V141.467L246.093 140.196C245.722 139.497 244.88 138.543 244.223 138.075L243.027 137.224L233.345 137.143L223.662 137.061L221.893 135.269C218.749 132.084 212.985 128.886 208.569 127.874C206.443 127.388 206.195 126.688 206.094 120.881L206.013 116.249L207.558 116.107L209.102 115.966L209.029 112.848C208.982 110.839 209.115 108.973 209.401 107.604C210.302 103.302 209.837 100.628 207.914 99.0558C207.467 98.6905 206.729 97.8464 206.273 97.1802C205.088 95.4475 202.6 94.276 200.15 94.2967C198.616 94.31 197.945 94.5027 195.68 95.5821ZM64.3067 95.8704C64.0826 97.3631 64.512 98.7117 65.2905 98.9583C66.3478 99.2931 66.2305 101.264 65.1371 101.537C63.5498 101.935 63.4442 101.747 63.4476 98.5272C63.451 95.4634 63.6166 94.5648 64.1777 94.5648C64.4032 94.5648 64.4427 94.9648 64.3067 95.8704ZM142.092 96.526C142.561 97.0439 142.557 97.0978 141.994 97.6598C141.406 98.2463 141.285 98.2497 121.401 98.2497C103.596 98.2497 101.35 98.2007 100.953 97.8044C100.368 97.2205 100.387 96.6465 101.004 96.2882C101.328 96.0997 108.461 95.9963 121.55 95.9906C140.961 95.9824 141.614 95.9994 142.092 96.526ZM68.4491 105.491C68.9032 109.464 68.9129 117.477 68.4676 120.841C67.9865 124.475 66.7159 129.296 65.276 132.95C64.2709 135.501 63.7662 136.365 62.4061 137.863C61.4985 138.863 60.2105 140.461 59.544 141.414C58.1061 143.472 56.4296 144.818 54.447 145.508C52.9234 146.038 51.8893 147.191 51.4977 148.796C51.2435 149.838 50.7167 150.005 46.9724 150.236C42.5363 150.508 39.1462 150.974 38.2476 151.433L37.4748 151.829L38.5932 153.556C39.2084 154.505 39.9678 155.966 40.2808 156.801C40.9757 158.654 42.2512 164.875 43.4156 172.089C43.8938 175.051 44.3491 177.762 44.4272 178.113L44.5692 178.75H40.4213C36.8926 178.75 25.2168 178.24 25.0489 178.079C25.0186 178.05 25.0975 176.626 25.2245 174.916C25.4548 171.811 25.4582 171.799 27.4374 167.837C29.7205 163.267 30.2161 161.667 29.7565 160.351C29.1292 158.555 27.7089 158.694 26.5743 160.663C26.1869 161.335 25.7862 162.331 25.684 162.877C25.5814 163.423 25.3108 164.652 25.0825 165.61C24.68 167.298 23.9493 175.313 23.9621 177.9L23.9683 179.175L25.6723 179.359C26.6095 179.46 32.4244 179.63 38.5944 179.736C45.4093 179.854 50.1282 180.05 50.6173 180.235C51.5434 180.585 51.9424 181.428 51.9424 183.034C51.9424 184.826 51.1356 185.419 48.381 185.648C47.1377 185.752 44.9063 185.956 43.4224 186.102C38.2005 186.615 29.4413 186.78 28.5123 186.383C27.9781 186.154 26.2829 186.008 23.9683 185.991C20.8105 185.967 20.0156 185.865 18.4757 185.286C16.2446 184.446 15.1606 183.413 14.9172 181.892C14.7903 181.102 14.3469 180.314 13.4804 179.34C12.1195 177.81 11.9528 177.128 11.9409 173.033C11.9363 171.479 11.8046 170.943 11.2019 170.035C9.98354 168.197 9.54732 165.363 9.72993 160.468C9.96224 154.228 11.0471 150.762 13.7681 147.567C15.4977 145.535 15.7133 145.429 16.968 145.988C18.6453 146.736 21.0979 147 26.39 147.002C31.8627 147.004 32.5139 146.835 32.6829 145.371C32.767 144.642 32.895 144.575 34.7604 144.282C45.3033 142.628 54.4805 134.593 59.0211 123.039C61.1296 117.674 62.8424 110.625 63.1846 105.903C63.4331 102.475 63.4197 102.503 64.7989 102.489C65.4597 102.482 66.3839 102.31 66.8525 102.107C67.4835 101.834 67.755 101.822 67.8993 102.062C68.0064 102.24 68.2537 103.783 68.4491 105.491ZM194.119 103.204C195.522 103.931 197.769 104.27 198.97 103.937C200.401 103.541 201.702 103.557 202.122 103.975C202.31 104.163 202.463 104.792 202.463 105.374C202.463 108.023 203.709 108.668 204.994 106.682C205.823 105.402 206.256 105.345 206.717 106.455C207.22 107.668 206.769 108.852 205.759 108.971L204.98 109.062L205.055 117.016L205.129 124.969L201.891 126.751C198.204 128.78 198.699 128.816 195.86 126.317C194.448 125.074 194.322 124.681 194.782 122.943C194.931 122.379 195.125 121.567 195.214 121.139C195.346 120.496 195.524 120.359 196.229 120.359C198.075 120.359 199.757 119.104 200.315 117.312C200.543 116.58 200.089 116.452 199.468 117.072C198.938 117.601 196.528 117.913 195.623 117.57C193.725 116.849 192.072 113.603 191.766 109.999L191.589 107.91L192.627 108.196C193.934 108.557 195.178 108.041 195.315 107.082C195.442 106.186 194.633 105.64 193.162 105.629C191.895 105.619 191.791 105.488 192.216 104.428C192.359 104.07 192.547 103.554 192.633 103.281C192.823 102.676 193.074 102.663 194.119 103.204ZM197.982 106.061C197.079 106.692 197.188 107.505 198.249 108.053C200.138 109.027 202.567 107.361 201.047 106.133C200.268 105.503 198.829 105.469 197.982 106.061ZM194.511 107.037C194.511 107.193 194.16 107.318 193.73 107.316C193.121 107.313 193.043 107.251 193.375 107.037C193.931 106.678 194.511 106.678 194.511 107.037ZM200.475 107.037C200.475 107.193 200.124 107.318 199.694 107.316C199.085 107.313 199.007 107.251 199.339 107.037C199.895 106.678 200.475 106.678 200.475 107.037ZM195.272 108.885C194.5 110.019 194.538 110.565 195.421 111.036C196.15 111.425 196.427 111.125 195.987 110.422C195.702 109.967 195.724 109.734 196.111 109.145C196.44 108.644 196.493 108.335 196.286 108.128C196.079 107.922 195.771 108.152 195.272 108.885ZM198.991 111.87C198.722 112.029 197.656 112.238 196.623 112.334C194.526 112.529 194.181 112.87 194.928 114.007C196.088 115.774 198.842 115.789 199.928 114.035C200.899 112.465 200.306 111.095 198.991 111.87ZM199.339 113.008C199.339 113.174 199.207 113.557 199.045 113.858C198.672 114.553 196.475 114.635 195.925 113.975C195.728 113.737 195.616 113.495 195.677 113.437C195.765 113.355 197.66 112.971 199.126 112.74C199.243 112.721 199.339 112.842 199.339 113.008ZM26.0322 116.241C27.3079 116.247 27.9003 116.371 28.0923 116.674C28.4862 117.296 28.4368 117.441 27.7725 117.614C26.8978 117.843 27.2707 118.494 28.3703 118.658C29.5782 118.839 29.8704 119.509 28.7412 119.509C27.6833 119.509 26.6663 120.234 26.6663 120.988C26.6663 121.316 26.9836 122.125 27.3715 122.786C27.9574 123.783 28.0054 124.014 27.6555 124.148C27.0415 124.383 27.1392 125.178 27.7822 125.178C28.3945 125.178 29.2223 124.469 29.2223 123.945C29.2223 123.757 29.0332 123.334 28.8023 123.004C28.4036 122.436 28.4291 122.398 29.2993 122.263C29.8037 122.185 30.3404 122.237 30.4924 122.38C30.644 122.522 30.7718 123.944 30.7764 125.538C30.7829 127.931 30.6818 128.633 30.1965 129.556C29.2658 131.327 27.9651 132.181 25.1591 132.866C23.7905 133.199 22.7411 133.543 22.8275 133.629C22.9138 133.715 23.7136 133.931 24.6045 134.109C26.3517 134.457 26.5772 134.747 26.6379 136.728C26.67 137.773 26.7637 137.75 24.0228 137.356C20.3714 136.83 20.7023 137.132 20.7023 134.329C20.7023 132.124 20.6319 131.795 20.0213 131.146C18.9318 129.987 18.1463 128.254 18.1463 127.009C18.1463 126.25 18.5223 125.08 19.2479 123.583C20.6992 120.587 21.8383 117.25 21.8383 115.993V114.982L23.0399 115.608C23.8996 116.055 24.7505 116.235 26.0322 116.241ZM22.3353 118.114C21.579 118.554 21.6886 119.332 22.4773 119.12C22.8286 119.027 23.4676 118.948 23.8973 118.946C24.4878 118.943 24.6783 118.803 24.6783 118.375C24.6783 117.922 24.4917 117.81 23.7553 117.816C23.2478 117.821 22.6088 117.955 22.3353 118.114ZM22.6903 120.441C21.6463 120.965 21.5625 122.252 22.548 122.627C24.8609 123.504 27.4391 121.898 25.8189 120.589C25.0825 119.994 23.7093 119.929 22.6903 120.441ZM29.2223 120.926C29.2223 121.082 28.8952 121.209 28.4956 121.209C28.0835 121.209 27.8446 121.087 27.9443 120.926C28.0409 120.77 28.3678 120.642 28.6711 120.642C28.9744 120.642 29.2223 120.77 29.2223 120.926ZM24.2523 121.493C24.352 121.654 24.1132 121.776 23.7011 121.776C23.3015 121.776 22.9743 121.649 22.9743 121.493C22.9743 121.337 23.2222 121.209 23.5256 121.209C23.8289 121.209 24.1558 121.337 24.2523 121.493ZM194.278 126.105C194.484 126.303 195.26 126.956 196.002 127.556C196.744 128.157 197.345 128.791 197.338 128.967C197.331 129.144 196.276 130.08 194.995 131.049L192.665 132.811L192.448 132.041C192.328 131.618 192.117 130.507 191.979 129.571C191.728 127.871 191.728 127.871 192.751 126.808C193.931 125.582 193.797 125.643 194.278 126.105ZM205.996 127.162C206.315 128.09 206.256 128.314 205.079 130.648C204.387 132.019 203.718 133.103 203.591 133.057C203.236 132.928 199.623 129.408 199.624 129.193C199.626 128.902 204.826 126.074 205.266 126.125C205.48 126.15 205.809 126.616 205.996 127.162ZM23.9956 127.401C23.3637 128.422 27.5831 129.041 28.8991 128.121C29.8202 127.477 29.2868 127.111 27.9602 127.477C26.933 127.76 26.3127 127.723 24.7814 127.286C24.4474 127.191 24.0938 127.242 23.9956 127.401ZM191.37 130.634C191.572 132.076 191.902 134.404 192.102 135.807C192.301 137.21 192.801 140.718 193.212 143.602C193.622 146.486 194.024 149.146 194.105 149.512C194.186 149.878 194.135 150.133 193.991 150.078C193.596 149.929 185.139 141.853 185.139 141.625C185.139 141.516 186.033 140.4 187.127 139.145C188.22 137.891 189.115 136.744 189.115 136.597C189.115 136.335 186.082 135.665 184.893 135.665C184.56 135.665 184.287 135.604 184.287 135.529C184.287 135.165 186.976 129.236 187.301 128.883C187.623 128.534 189.049 128.168 190.555 128.048C190.906 128.02 191.078 128.566 191.37 130.634ZM209.543 129.025L210.907 129.47L211.395 131.989C211.663 133.375 211.904 135.119 211.93 135.864L211.977 137.22L210.013 137.416C207.396 137.677 206.723 137.866 206.723 138.342C206.723 138.561 207.38 139.837 208.183 141.178C208.986 142.52 209.593 143.663 209.532 143.719C209.34 143.897 196.228 150.405 196.062 150.405C195.975 150.405 196.852 148.587 198.011 146.366C199.17 144.144 201.622 139.393 203.461 135.807C205.3 132.222 206.93 129.128 207.083 128.933C207.446 128.47 207.894 128.486 209.543 129.025ZM185.991 129.276C185.991 129.347 185.352 130.795 184.571 132.493C183.79 134.191 183.151 135.719 183.151 135.887C183.151 136.274 183.695 136.427 185.92 136.665C186.896 136.77 187.695 136.919 187.695 136.998C187.695 137.077 186.864 138.135 185.849 139.35C183.918 141.661 183.75 142.011 184.395 142.383C185.416 142.973 194.529 152.13 194.363 152.399C194.05 152.904 192.566 158.825 191.843 162.452C190.915 167.109 190.53 170.025 190.535 172.373C190.541 175.206 191.262 180.737 192.007 183.672L192.646 186.184L191.759 186.974C190.529 188.072 188.232 188.671 185.259 188.671C181.181 188.671 174.654 187.222 174.87 186.364C175.001 185.838 175.572 183.045 176.484 178.457L177.247 174.621L180.909 174.735C184.141 174.836 184.571 174.795 184.571 174.39C184.571 174.003 184.185 173.931 182.086 173.928C180.719 173.927 179.111 173.845 178.512 173.746C177.436 173.568 177.425 173.554 177.618 172.544C177.725 171.982 177.929 170.757 178.07 169.822C178.212 168.886 178.524 166.845 178.764 165.286C179.003 163.727 179.38 160.602 179.602 158.342C179.824 156.081 180.136 153.02 180.295 151.539C180.645 148.288 180.661 147.569 180.382 147.574C180.03 147.58 177.343 150.186 176.509 151.331C175.194 153.136 174.361 155.309 174.031 157.8C173.58 161.197 173.244 161.857 171.517 162.73C169.889 163.554 169.748 163.798 169.075 166.987C168.355 170.398 167.524 172.047 165.97 173.145C164.189 174.402 159.268 177.117 159.089 176.939C159.011 176.861 159.41 176.311 159.978 175.718C161.446 174.183 162.419 172.01 162.419 170.264C162.419 169.095 162.328 168.829 161.929 168.829C161.312 168.829 158.66 171.598 156.399 174.603C155.445 175.87 154.332 177.27 153.926 177.713C152.949 178.781 151.199 179.655 150.256 179.547C149.521 179.462 149.496 179.401 149.489 177.617C149.475 174.156 148.943 174.219 145.899 178.042C144.029 180.39 143.767 180.624 141.545 181.927C139.974 182.848 139.118 183.201 136.236 184.112C135.251 184.424 126.954 185.116 126.742 184.905C126.688 184.851 126.517 183.221 126.361 181.282C126.205 179.344 126.006 177.037 125.919 176.156L125.761 174.555L127.263 174.35C128.644 174.162 131.457 173.463 135.013 172.424C136.493 171.991 141.903 169.783 142.397 169.41C142.553 169.292 143.575 168.714 144.669 168.125C149.93 165.291 155.526 160.933 161.196 155.252C165.518 150.924 169.089 146.509 173.372 140.201C177.423 134.233 179.535 132.036 182.848 130.341C184.953 129.264 185.991 128.912 185.991 129.276ZM201.988 132.756L203.358 134.028L200.658 139.311C199.172 142.217 197.501 145.481 196.944 146.565C195.778 148.832 195.692 148.541 196.352 144.573C196.583 143.182 197.03 140.385 197.344 138.358C197.868 134.977 198.326 132.285 198.659 130.617L198.79 129.962L199.704 130.723C200.206 131.141 201.234 132.056 201.988 132.756ZM213.751 130.555C215.73 131.452 218.675 133.47 220.596 135.245C224.689 139.029 227.524 144.996 229.596 154.192C231.73 163.667 231.934 172.538 230.268 183.427C229.958 185.454 229.577 187.591 229.421 188.175L229.137 189.238H223.085H217.032L216.998 183.356C216.979 180.121 216.887 176.646 216.793 175.632C216.448 171.891 215.323 164.497 214.659 161.601C214.516 160.978 214.14 159.32 213.822 157.917C212.15 150.517 211.503 149.271 209.338 149.271C208.251 149.271 207.923 149.424 206.973 150.372C205.982 151.362 205.871 151.617 205.871 152.915C205.871 154.744 206.76 156.775 208.619 159.192C210.486 161.619 210.6 161.858 211.136 164.447C211.739 167.36 212.471 168.846 214.102 170.469C215.402 171.763 215.456 171.884 215.771 174.215C215.949 175.54 216.096 179.471 216.095 182.949L216.095 189.274L207.078 189.185C198.367 189.099 198.013 189.074 196.644 188.445C195.865 188.086 194.948 187.531 194.606 187.21C193.273 185.96 192.191 181.943 191.64 176.199C191.273 172.371 191.461 168.867 192.259 164.649C193.273 159.289 194.955 152.516 195.421 151.916C195.562 151.734 199.057 149.908 203.188 147.857C207.319 145.806 210.699 144.018 210.699 143.882C210.699 143.747 210.06 142.576 209.28 141.281C208.499 139.985 207.86 138.846 207.86 138.749C207.859 138.652 209.087 138.411 210.588 138.213L213.316 137.852L213.131 136.83C213.029 136.267 212.757 134.611 212.527 133.149C212.296 131.687 212.039 130.379 211.955 130.244C211.705 129.84 212.463 129.972 213.751 130.555ZM197.62 131.485C197.493 132.147 197.12 134.411 196.791 136.516C196.463 138.62 196 141.554 195.764 143.035C195.528 144.516 195.271 146.142 195.194 146.649C194.949 148.251 194.626 147.656 194.271 144.949C194.082 143.507 193.742 141.115 193.514 139.634C193.287 138.153 193.028 136.239 192.937 135.382L192.772 133.823L195.133 132.056C196.431 131.084 197.573 130.286 197.672 130.284C197.77 130.282 197.746 130.822 197.62 131.485ZM25.3568 138.492C27.3701 138.808 29.4788 139.069 30.0428 139.071C31.746 139.079 31.8678 139.285 31.8013 142.044C31.7687 143.401 31.6182 144.836 31.4671 145.233L31.1924 145.954L27.4382 145.794C25.3736 145.707 23.1092 145.503 22.4063 145.342C21.7034 145.181 20.6714 144.977 20.1127 144.889C19.5541 144.801 18.8512 144.549 18.5507 144.328C18.0199 143.939 18.0267 143.904 18.7853 143.112C19.6748 142.182 19.7307 141.687 19.1599 139.793C18.9361 139.052 18.8279 138.251 18.9193 138.013C19.1062 137.527 19.3056 137.542 25.3568 138.492ZM17.5783 139.733C17.5783 140.723 17.442 141.924 17.2753 142.401L16.9722 143.269L12.5952 143.365C8.24602 143.46 8.21308 143.466 7.43122 144.246L6.64426 145.032L6.57127 166.355C6.5014 186.763 6.52128 187.716 7.02965 188.544C7.37982 189.114 7.95208 189.525 8.70667 189.751C9.57003 190.009 16.7212 190.089 37.762 190.075C61.3937 190.058 65.8224 189.993 66.652 189.647C67.191 189.422 68.2233 189.236 68.9461 189.234C69.6689 189.231 71.0273 189.044 71.9645 188.819C72.9017 188.593 73.7818 188.403 73.9204 188.398C74.059 188.392 74.1061 189.209 74.0255 190.213C73.8443 192.465 73.0508 193.843 71.4388 194.703L70.2605 195.332L38.2286 195.408C2.0051 195.493 3.91614 195.599 2.18147 193.413L1.24824 192.237V166.835C1.24824 141.973 1.26045 141.41 1.81624 140.378C2.44701 139.207 3.35808 138.506 4.65029 138.196C5.1223 138.084 8.22415 137.978 11.5433 137.962L17.5783 137.933V139.733ZM46.2624 138.505C44.9821 139.512 40.2004 141.813 38.0264 142.467C36.8549 142.82 35.1935 143.124 34.3344 143.143L32.7723 143.177L32.8717 141.004C32.9694 138.865 32.9587 138.825 32.1617 138.393C31.4151 137.99 31.9593 137.955 39.1624 137.951L46.9724 137.946L46.2624 138.505ZM71.9284 138.917C73.9426 140.45 73.9426 140.45 74.0385 150.334C74.1022 156.894 74.0394 159.192 73.7963 159.192C73.616 159.192 72.395 159.694 71.0832 160.307L68.6985 161.423V153.779C68.6985 145.098 68.5798 144.446 66.8718 143.734C66.2785 143.486 64.9559 143.319 63.5955 143.319C61.5439 143.319 60.841 143.077 61.5749 142.625C61.718 142.536 62.4334 141.429 63.1644 140.164L64.4938 137.864L67.6792 137.986C70.6533 138.099 70.9355 138.161 71.9284 138.917ZM78.1347 138.737C78.6462 139.053 79.3201 139.734 79.6325 140.252C80.1588 141.124 80.207 141.786 80.2905 149.273L80.3806 157.354L78.1605 157.821C76.9396 158.077 75.7167 158.377 75.4435 158.487C74.9766 158.674 74.9465 158.166 74.9465 150.143C74.9465 140.847 74.8761 140.357 73.2984 138.676L72.5325 137.86L74.8687 138.011C76.517 138.118 77.4789 138.331 78.1347 138.737ZM173.395 138.349C173.126 139.051 169.207 144.778 167.905 146.373L166.679 147.876V144.837C166.679 142.352 166.785 141.578 167.261 140.597C168.144 138.777 169.584 138.026 172.318 137.962C173.297 137.939 173.522 138.02 173.395 138.349ZM237.186 138.738C237.773 139.103 238.41 139.677 238.601 140.013C239.636 141.842 239.658 142.411 239.663 166.588C239.667 192.391 239.683 192.13 238.076 193.804C236.395 195.555 237.818 195.491 202.588 195.408L170.513 195.332L169.229 194.7C166.834 193.522 166.833 193.517 166.736 182.976L166.65 173.738L168.866 172.078C170.084 171.165 171.273 170.229 171.507 169.998C171.885 169.625 171.949 170.621 172.075 178.94C172.192 186.695 172.29 188.389 172.643 188.814C173.725 190.114 173.253 190.095 203.13 190.075C229.053 190.058 231.429 190.017 232.31 189.576C232.838 189.312 233.429 188.777 233.624 188.388C234.112 187.412 234.15 145.97 233.664 144.905C233.171 143.825 231.79 143.319 229.337 143.319H227.187L226.306 141.547C225.822 140.573 225.162 139.35 224.839 138.829L224.253 137.883L230.185 137.979C235.823 138.07 236.17 138.108 237.186 138.738ZM243.765 138.986C245.997 140.542 245.907 139.315 245.836 167.129L245.773 191.647L245.058 192.923C244.472 193.966 244.06 194.312 242.786 194.827C241.259 195.445 238.247 195.719 238.247 195.24C238.247 195.111 238.56 194.712 238.943 194.354C240.544 192.852 240.519 193.288 240.519 166.517C240.519 144.137 240.476 141.803 240.042 140.702C239.779 140.037 239.492 139.428 239.403 139.35C239.314 139.272 238.985 138.903 238.673 138.53L238.105 137.851L240.357 138.016C242.212 138.151 242.813 138.323 243.765 138.986ZM86.1026 158.466C88.7132 159.395 90.5665 161.71 90.5665 164.041C90.5665 169.296 83.9294 176.931 75.8187 181.005C71.8574 182.995 64.7225 184.573 64.7225 183.46C64.7225 183.198 64.5342 182.912 64.3038 182.824C63.9449 182.687 63.9551 182.568 64.3748 181.992C64.7298 181.504 65.1445 181.317 65.884 181.31C67.7928 181.294 71.3897 180.18 74.5205 178.636C80.0778 175.896 84.778 171.785 86.6485 168.029C89.4206 162.462 86.5488 159.084 79.841 160.021C70.482 161.327 59.5465 169.851 58.8257 176.401C58.6644 177.867 58.4156 178.172 57.3762 178.179C56.8042 178.183 56.7364 178.089 56.9201 177.546C57.0388 177.195 57.1729 176.239 57.218 175.422C57.3203 173.574 58.1987 171.911 60.5519 169.109C64.57 164.324 70.8006 160.444 77.2185 158.73C80.0318 157.979 84.3722 157.849 86.1026 158.466ZM85.6576 162.298C87.0915 162.948 87.4059 163.804 86.9052 165.695C85.5306 170.887 77.9322 177.266 70.2361 179.689C67.4824 180.556 64.6009 180.943 64.3166 180.483C64.209 180.31 63.7997 180.168 63.407 180.168H62.6933L63.2755 179.429C63.741 178.838 63.7961 178.574 63.5498 178.115C63.2738 177.6 63.0537 177.558 61.4434 177.708L59.6451 177.875L60.0251 176.615C60.6539 174.53 61.8455 172.778 64.2683 170.376C69.4528 165.238 76.6849 161.79 82.3305 161.765C83.8383 161.758 84.8101 161.914 85.6576 162.298ZM93.9655 166.227C93.9706 166.433 93.3404 165.923 92.5653 165.094C91.7903 164.264 91.1553 163.394 91.1544 163.16C91.1522 162.643 93.9527 165.698 93.9655 166.227ZM94.2475 168.333C94.2659 169.157 93.7996 168.904 92.4347 167.346C91.6165 166.413 91.1371 165.598 91.1414 165.149C91.1476 164.506 91.2993 164.602 92.6923 166.137C93.5415 167.072 94.2415 168.061 94.2475 168.333ZM92.5006 168.399C93.5937 169.593 93.8857 170.1 93.759 170.583C93.6082 171.159 93.4659 171.072 92.0803 169.55C90.7108 168.046 90.1525 166.845 90.8221 166.845C90.9624 166.845 91.7179 167.545 92.5006 168.399ZM93.1183 171.938C93.1157 172.177 92.9913 172.564 92.8417 172.798C92.619 173.145 92.2799 172.935 90.9829 171.644C89.4726 170.141 89.4132 170.028 89.7481 169.294L90.0999 168.524L91.6114 170.013C92.4424 170.833 93.1206 171.699 93.1183 171.938ZM194.032 168.852C193.156 169.176 192.709 170.101 193.087 170.807C194.06 172.621 196.704 171.665 196.087 169.723C195.862 169.018 194.801 168.568 194.032 168.852ZM195.31 170.318C195.38 170.684 195.217 170.814 194.69 170.814C193.914 170.814 193.517 170.422 193.811 169.947C194.097 169.486 195.203 169.76 195.31 170.318ZM90.1613 171.735C92.3569 174.136 92.2882 174.007 91.7522 174.716L91.2675 175.358L89.6393 173.715C88.0767 172.139 88.0287 172.048 88.4527 171.443C89.0304 170.62 89.163 170.643 90.1613 171.735ZM90.5103 176.467C90.3098 176.787 90.0133 177.05 89.8514 177.05C89.6896 177.05 88.9077 176.313 88.1142 175.414C86.728 173.842 86.6885 173.752 87.112 173.116L87.5524 172.453L89.2136 174.169C90.7193 175.724 90.8409 175.939 90.5103 176.467ZM115.559 174.938C116.886 175.196 118.707 175.473 119.606 175.554C121.227 175.699 121.239 175.707 121.239 176.617C121.239 177.121 121.319 178.299 121.417 179.236C121.592 180.911 121.583 180.941 120.824 181.132C119.733 181.405 117.599 183.661 116.298 185.915C115.69 186.97 115.134 187.775 115.062 187.703C114.991 187.632 115.331 186.586 115.82 185.379C117.053 182.329 116.614 181.986 114.512 184.357C113.013 186.048 111.866 186.97 111.867 186.484C111.867 186.362 112.651 185.305 113.609 184.136C115.829 181.427 115.346 181.213 111.957 183.405C110.611 184.275 109.401 184.986 109.268 184.986C108.676 184.986 109.224 184.433 111.597 182.632C112.995 181.57 114.139 180.589 114.139 180.452C114.139 179.859 113.54 179.978 111.421 180.992C110.182 181.585 108.881 182.161 108.53 182.272C107.01 182.751 108.166 181.85 111.887 179.654C114.082 178.358 115.829 177.149 115.768 176.968C115.707 176.786 114.712 176.229 113.556 175.731C112.401 175.232 111.403 174.668 111.339 174.477C111.213 174.101 111.277 174.108 115.559 174.938ZM87.8132 176.143L89.4442 177.788L88.7788 178.412L88.1133 179.036L86.5187 177.234C85.0376 175.561 84.9575 175.4 85.3923 174.966C85.6496 174.709 85.9328 174.499 86.0214 174.499C86.1097 174.499 86.9163 175.239 87.8132 176.143ZM125.042 176.128C125.145 176.869 125.31 178.846 125.408 180.522L125.586 183.569H124.571C124.014 183.569 123.375 183.639 123.152 183.724C122.823 183.85 122.684 183.19 122.416 180.252C122.235 178.257 122.088 176.21 122.089 175.703C122.091 174.79 122.103 174.782 123.472 174.782H124.853L125.042 176.128ZM199.121 175.971C199.288 176.472 200.475 176.731 204.735 177.194C209.713 177.735 212.687 177.75 212.687 177.236C212.687 176.941 211.679 176.814 208.214 176.674C205.754 176.575 202.846 176.302 201.753 176.068C199.331 175.549 198.975 175.536 199.121 175.971ZM87.0748 180.104L86.4781 180.749L84.6897 178.98L82.9014 177.21L83.6809 176.584L84.4605 175.958L86.066 177.709L87.6712 179.459L87.0748 180.104ZM55.6393 177.467C54.5944 179.154 54.944 179.432 57.8425 179.218C59.2055 179.118 60.8316 178.955 61.4564 178.856C62.2252 178.734 62.5007 178.77 62.3085 178.965C62.0543 179.223 59.9723 179.795 57.4094 180.31C56.3723 180.519 56.1811 181.166 57.0732 181.449C57.3958 181.551 58.8976 181.561 60.4102 181.47C63.0966 181.31 63.1375 181.316 62.1665 181.759C61.6197 182.009 60.1932 182.281 58.9964 182.363C56.5126 182.534 55.8659 182.78 56.4265 183.339C56.6781 183.59 57.8153 183.702 60.16 183.705C62.0148 183.708 63.4842 183.788 63.4257 183.883C63.2687 184.136 60.2531 184.697 58.619 184.776C57.581 184.826 57.1785 184.966 57.1152 185.298C57.0465 185.661 57.4756 185.822 59.2427 186.098C60.4602 186.288 61.776 186.526 62.1665 186.626C63.9849 187.092 60.5471 186.962 56.6671 186.419C54.3834 186.099 52.4482 185.837 52.3667 185.837C52.2855 185.837 52.4122 185.375 52.6487 184.81C52.885 184.245 53.0784 183.368 53.0784 182.86C53.0784 181.863 52.4136 180.033 51.9467 179.745C51.4519 179.44 51.628 179.101 52.4394 178.797C52.8688 178.636 53.8594 178 54.6404 177.383C55.4214 176.767 56.107 176.306 56.1638 176.358C56.2206 176.41 55.9846 176.909 55.6393 177.467ZM85.2455 181.688L84.5051 182.269L82.8406 180.439L81.1761 178.609L81.8023 178.098C82.422 177.594 82.4472 177.607 84.2072 179.348L85.9859 181.107L85.2455 181.688ZM83.4461 183.073C83.1104 183.346 82.7327 183.569 82.6068 183.569C82.3422 183.569 79.2065 180.166 79.2065 179.879C79.2065 179.774 79.4939 179.553 79.8455 179.39C80.4132 179.125 80.6836 179.286 82.2706 180.835L84.0564 182.577L83.4461 183.073ZM80.2812 182.232L82.0491 184.012L81.1664 184.533L80.2834 185.053L78.463 183.252L76.6425 181.452L77.2855 180.958C77.6391 180.686 78.06 180.461 78.2207 180.457C78.3815 180.454 79.3085 181.252 80.2812 182.232ZM79.4905 185.287C79.4905 185.383 79.148 185.618 78.7294 185.808C78.0041 186.138 77.8819 186.068 76.1345 184.324L74.3007 182.494L75.1206 182.058C75.9394 181.623 75.9433 181.625 77.7155 183.367C78.6919 184.326 79.4905 185.19 79.4905 185.287ZM75.5068 184.553C76.5088 185.563 77.2719 186.43 77.2026 186.48C77.1333 186.531 76.7033 186.733 76.2475 186.929C75.4395 187.276 75.3694 187.237 73.4739 185.359L71.5291 183.433L72.4569 183.098C72.967 182.913 73.4521 182.752 73.5347 182.74C73.6174 182.728 74.5049 183.544 75.5068 184.553ZM72.6637 185.684C74.5625 187.596 74.5523 187.536 73.0562 187.971C72.6106 188.1 69.1816 184.502 69.4059 184.14C69.8512 183.421 70.9179 183.926 72.6637 185.684ZM70.0637 186.207C71.0398 187.19 71.7498 188.082 71.641 188.191C71.5325 188.299 71.0531 188.388 70.5757 188.388C69.8918 188.388 69.3298 188.014 67.9251 186.624C66.9448 185.654 66.1425 184.761 66.1425 184.64C66.1425 184.519 66.6253 184.419 67.2157 184.419C68.156 184.419 68.5085 184.64 70.0637 186.207ZM66.9504 186.612C67.8908 187.661 68.6326 188.548 68.5994 188.581C68.5658 188.614 67.9504 188.553 67.2319 188.444C66.1232 188.276 65.7193 188.017 64.5654 186.733C63.4854 185.532 63.2888 185.169 63.6092 184.966C64.5498 184.372 65.2561 184.72 66.9504 186.612ZM80.2857 188.884C80.1431 192.236 79.7606 193.341 78.4096 194.301C77.3594 195.047 75.3728 195.535 73.8417 195.422L72.6214 195.332L73.2487 194.624C74.5086 193.2 74.7434 192.595 74.915 190.329L75.0885 188.039L76.6505 187.459C77.5096 187.14 78.5959 186.653 79.0645 186.378C79.5331 186.102 80.0287 185.868 80.1659 185.857C80.3033 185.846 80.3573 187.208 80.2857 188.884ZM46.658 187.419C47.1374 188.666 47.1079 188.673 41.5054 188.642L36.1804 188.613L38.4524 188.206C39.702 187.982 41.6829 187.626 42.8544 187.414C45.7674 186.887 46.4538 186.888 46.658 187.419ZM64.2965 187.537C64.393 187.693 64.4081 187.821 64.33 187.821C64.2519 187.821 64.109 187.693 64.0125 187.537C63.9159 187.381 63.9008 187.254 63.9789 187.254C64.057 187.254 64.1999 187.381 64.2965 187.537ZM16.2225 188.103L17.1523 188.669L15.9453 188.67C14.6545 188.671 14.6485 188.667 14.9107 187.986C15.1262 187.425 15.1044 187.423 16.2225 188.103ZM41.3597 200.279C46.1255 201.34 50.8161 203.399 52.8654 205.331C53.6194 206.042 53.6464 206.169 53.6464 208.994V211.921L43.0674 211.847L32.4883 211.773L32.4179 205.566L32.3475 199.358L35.5419 199.527C37.299 199.62 39.917 199.958 41.3597 200.279ZM206.13 200.139C211.069 201.191 215.721 203.12 218.154 205.125L219.219 206.003V208.959V211.914H208.569H197.919V205.636V199.357L200.972 199.524C202.651 199.616 204.972 199.893 206.13 200.139ZM62.5714 213.309C63.0412 213.826 63.0366 213.88 62.4735 214.442C61.8859 215.029 61.7632 215.032 41.9836 215.032C28.8103 215.032 21.8994 214.933 21.5356 214.739C20.8704 214.383 20.8318 213.81 21.4325 213.21C21.8298 212.813 24.0848 212.765 41.9785 212.765C61.4337 212.765 62.0943 212.782 62.5714 213.309ZM227.861 213.21C228.106 213.455 228.307 213.765 228.307 213.898C228.307 214.032 228.106 214.342 227.861 214.587C227.464 214.983 225.229 215.032 207.536 215.032C194.376 215.032 187.472 214.933 187.108 214.739C186.424 214.373 186.395 213.455 187.056 213.071C187.38 212.882 194.475 212.779 207.484 212.773C225.231 212.766 227.463 212.813 227.861 213.21Z" fill="white"/>
</svg>
