<svg width="90" height="100" viewBox="0 0 90 100" fill="none" xmlns="http://www.w3.org/2000/svg">
<g clip-path="url(#clip0_9_547)">
<path fill-rule="evenodd" clip-rule="evenodd" d="M35.8437 13.2582C32.5221 13.6417 28.1377 15.2839 25.0683 17.2941C20.9034 20.022 17.4523 24.1023 15.5488 28.5498C13.0304 34.4336 12.7199 40.9271 14.6735 46.8601C14.9456 47.6865 15.1682 48.3816 15.1682 48.4046C15.1682 48.4278 12.3607 48.4467 8.92921 48.4467C3.94204 48.4467 2.61957 48.4764 2.33821 48.5941C1.78719 48.8249 1.28847 49.3022 0.996275 49.8785L0.728149 50.4073V67.1171V83.8268L0.995727 84.3809C1.30422 85.0201 1.92033 85.5749 2.49366 85.7298C2.75074 85.7993 11.5331 85.8274 27.2714 85.8091L51.6511 85.7808L52.0436 85.5369L52.4361 85.2929L53.0829 85.5369C53.7076 85.7725 53.8615 85.7808 57.6131 85.7808C61.8748 85.7808 61.8243 85.7872 63.3495 85.0536C63.7068 84.8817 64.0268 84.7837 64.0606 84.8357C64.2015 85.0526 64.8606 85.2895 65.6145 85.3941C68.1776 85.75 71.33 85.8519 77.9057 85.7913C84.1188 85.734 85.1563 85.6911 87.3568 85.3997C88.2427 85.2824 88.867 85.0626 89.0349 84.8089C89.0791 84.7422 89.116 83.453 89.117 81.9441C89.1185 79.4488 89.101 79.1847 88.9235 79.0241C88.7561 78.8728 87.8409 78.6778 86.1923 78.4424L85.8368 78.3915V76.702V75.0124H86.2969C86.6804 75.0124 88.3443 74.7895 89.1755 74.6268C89.297 74.603 89.5062 74.4813 89.6404 74.3565C89.8804 74.133 89.8844 74.0842 89.8844 71.3483C89.8844 68.1086 89.9972 68.3784 88.517 68.0755C87.8237 67.9336 83.4218 67.585 82.2541 67.5796C82.0104 67.5784 82.008 67.5633 82.008 66.0083V64.4381L82.9105 64.3629C84.1429 64.2601 85.5196 63.9251 85.695 63.6854C85.8022 63.5388 85.8368 62.8181 85.8368 60.727V57.9624L85.4036 57.7414C85.1653 57.62 84.8576 57.52 84.7199 57.5191C84.582 57.5183 84.3575 57.4877 84.2207 57.4511C83.9728 57.3847 83.9722 57.3782 84.0019 55.5194L84.0318 53.6545L84.7885 53.4702C85.2251 53.3639 85.6067 53.2017 85.691 53.0865C85.8016 52.9354 85.8368 52.329 85.8368 50.5725V48.2578L86.3255 48.0713L86.8142 47.8848L86.8451 45.122C86.8621 43.6025 86.8609 42.282 86.8425 42.1875C86.7608 41.7689 85.67 41.5291 82.9925 41.3408C82.1201 41.2795 80.8871 41.1805 80.2527 41.1209C78.7948 40.9842 69.7129 40.9787 68.6424 41.1139C68.2019 41.1696 67.1769 41.2442 66.3646 41.2795L64.8878 41.3437L64.9212 39.126C64.9445 37.5787 64.9039 36.529 64.7868 35.6536C64.5625 33.9743 64.1286 31.8873 63.958 31.6655C63.9117 31.6054 63.8376 31.3873 63.7934 31.1809C63.4356 29.5111 61.6219 25.8265 60.2916 24.0675C60.0415 23.7368 59.7898 23.3799 59.7323 23.2744C59.5405 22.9229 58.0075 21.1899 57.1208 20.3224C56.1248 19.3477 54.4237 17.9915 53.2845 17.2636C52.3635 16.6753 50.3183 15.5608 49.6273 15.2709C49.3566 15.1573 48.9135 14.9719 48.6428 14.859C48.372 14.7461 48.0521 14.6097 47.9317 14.5559C47.0988 14.1834 44.5174 13.5654 42.6808 13.2987C41.4643 13.1221 37.2395 13.0971 35.8437 13.2582ZM43.556 14.1103C45.1211 14.4238 47.2068 15.0203 48.3539 15.4824C49.3618 15.8886 51.7985 17.0875 52.2427 17.396C52.3987 17.5043 52.8216 17.7822 53.1826 18.0136C55.2265 19.3234 57.7458 21.6951 59.1746 23.6545C59.6394 24.292 60.0188 24.8548 60.0175 24.9052C60.0163 24.9556 59.7086 25.191 59.3338 25.4284C58.959 25.6658 58.037 26.2604 57.2849 26.7499C55.2643 28.0648 53.8319 28.9938 52.9092 29.5879C51.877 30.2525 50.543 31.115 49.1351 32.0278C48.5334 32.418 47.795 32.8954 47.4941 33.0888C46.7696 33.5546 44.5029 35.0202 43.6107 35.5998C43.2196 35.8538 42.5304 36.2975 42.0791 36.5858C41.6279 36.8739 40.8477 37.3779 40.3452 37.7057C39.8429 38.0334 39.3909 38.2597 39.3408 38.2086C39.2908 38.1575 39.1015 37.6729 38.9203 37.1317C38.7391 36.5906 38.2407 35.1393 37.8128 33.9067C37.3848 32.674 36.8918 31.2474 36.7172 30.7363C36.3709 29.723 35.3822 26.878 33.9815 22.865C33.4882 21.4519 33.0201 20.0991 32.9411 19.8586C32.8622 19.618 32.4518 18.4282 32.0291 17.2143L31.2606 15.0074L31.7745 14.8434C32.9722 14.4615 34.9274 14.0414 36.1509 13.9032C36.6137 13.8511 38.1984 13.822 39.6725 13.8387C41.9142 13.8642 42.5494 13.9086 43.556 14.1103ZM30.9492 16.1689C31.108 16.6348 31.5891 18.0246 32.0182 19.2573C33.2258 22.7264 33.5323 23.6115 33.8738 24.6141C34.0479 25.1252 34.542 26.5519 34.9718 27.7845C35.4016 29.0172 35.818 30.2225 35.8969 30.463C35.976 30.7035 36.3938 31.9088 36.8255 33.1414C37.257 34.374 37.6748 35.5793 37.7538 35.8198C37.9743 36.4918 38.9043 39.0794 38.9346 39.1054C38.9633 39.13 41.9035 40.3921 46.1814 42.216C49.017 43.4249 49.6719 43.7051 50.0102 43.854C50.1305 43.9069 51.1151 44.3246 52.1981 44.782C53.2811 45.2394 54.2656 45.6581 54.386 45.7123C54.5063 45.7667 54.8509 45.9148 55.1517 46.0416C55.4526 46.1684 55.7972 46.3158 55.9175 46.3691C56.0378 46.4225 57.0224 46.842 58.1054 47.3016C59.1884 47.7611 60.2379 48.2106 60.4375 48.3006L60.8006 48.4642L60.7657 50.1598C60.7321 51.7897 60.7208 51.8637 60.4726 52.0644C60.3306 52.1792 60.0919 52.2731 59.9421 52.2731C59.7925 52.2731 59.5026 52.3524 59.2979 52.4495L58.9258 52.626V53.5583V54.4906L58.4139 55.1037C57.6599 56.0064 56.1478 57.4923 55.1673 58.2938C54.1055 59.1618 53.5361 59.5875 53.4288 59.5933C53.3836 59.5958 53.3467 57.53 53.3467 55.0027C53.3467 49.9378 53.3482 49.9496 52.6574 49.23C51.9108 48.4522 52.6054 48.5073 42.7902 48.4467L33.9293 48.3921L33.8746 46.4242C33.8208 44.4869 33.8153 44.4504 33.5209 44.0659C32.9616 43.3353 33.2209 43.3632 26.9908 43.3632C21.3454 43.3632 21.3435 43.3633 21.0389 43.6027C20.2759 44.2026 20.2593 44.26 20.216 46.4486L20.1764 48.4467H18.0687H15.9608L15.7406 47.9274C15.3429 46.99 14.8357 45.2456 14.5619 43.8734C14.1691 41.9042 14.0367 40.1547 14.1099 37.897C14.2826 32.5704 16.0965 27.5857 19.4205 23.3026C21.309 20.8693 24.6401 18.0781 27.3109 16.691C28.2085 16.2248 30.2947 15.3282 30.4898 15.3247C30.6056 15.3226 30.7529 15.5933 30.9492 16.1689ZM45.1422 39.595C46.3154 39.6559 47.423 39.7305 47.6035 39.7608C47.9116 39.8126 49.6336 39.93 55.5346 40.3017C56.8884 40.3869 58.2175 40.4831 58.4883 40.5154C58.759 40.5476 59.8912 40.6233 61.0043 40.6834C64.0671 40.8488 64.1768 40.8661 64.1768 41.1846C64.1768 41.4056 64.1228 41.45 63.8539 41.45C63.4095 41.45 62.3383 41.739 62.0268 41.9428C61.7705 42.1108 61.7701 42.1147 61.7696 44.4863L61.7693 46.8615L61.2774 47.0637C61.0068 47.1749 60.7855 47.3348 60.7855 47.419C60.7855 47.5033 60.7134 47.5721 60.6254 47.5721C60.5373 47.5721 59.1959 47.0283 57.6444 46.3636C56.093 45.6988 53.839 44.7362 52.6357 44.2243C51.4323 43.7125 50.3493 43.2511 50.229 43.1992C50.1087 43.1472 49.8379 43.0303 49.6273 42.9393C49.4167 42.8484 47.9645 42.2287 46.4002 41.5624C44.8359 40.896 43.4575 40.3052 43.3372 40.2493C43.2168 40.1936 42.7984 40.0182 42.4073 39.8596C41.3734 39.4403 41.3341 39.3339 42.2432 39.4156C42.6644 39.4533 43.9689 39.5341 45.1422 39.595ZM64.7483 43.1466C65.7275 43.242 66.738 43.3451 66.9937 43.3756L67.4586 43.4313V45.7203V48.0094L66.7749 48.0066C65.9098 48.0031 64.1257 47.835 63.1649 47.6666L62.4264 47.5372V45.1523V42.7674L62.6972 42.8702C62.8462 42.9268 63.7693 43.0512 64.7483 43.1466ZM86.2492 45.1918L86.2197 47.5125L85.6289 47.6435C84.9241 47.7999 82.7299 48.0094 81.7977 48.0094H81.1329V45.7273V43.4452L81.4747 43.3768C81.6628 43.3392 82.0251 43.3085 82.28 43.3085C82.8113 43.3085 85.759 42.9819 85.8277 42.9154C85.8528 42.8911 85.9645 42.8712 86.076 42.8712C86.2679 42.8712 86.2771 42.9948 86.2492 45.1918ZM72.0153 43.5272H74.0222V45.8923V48.2573L71.1439 48.2071C69.5607 48.1795 68.2069 48.1209 68.1355 48.0768C68.0419 48.0189 68.0056 47.3528 68.0056 45.6908V43.3851L69.0069 43.4561C69.5576 43.4952 70.9114 43.5272 72.0153 43.5272ZM80.4765 45.7522V48.0867L79.6395 48.1574C79.1792 48.1963 77.8746 48.2281 76.7406 48.2281H74.6786V45.8798V43.5314L77.0579 43.4997C78.3665 43.4822 79.6711 43.4568 79.9569 43.4429L80.4765 43.4178V45.7522ZM32.3655 43.9688C32.5883 44.0307 32.8713 44.2092 32.9945 44.3656C33.2004 44.6273 33.2182 44.8013 33.2182 46.5534V48.4567L32.4798 48.4244L31.7414 48.3921L31.7105 47.1699C31.6809 45.9948 31.6677 45.935 31.3658 45.6121L31.052 45.2763L27.0756 45.2769L23.0993 45.2774L22.7711 45.5395C22.4465 45.7986 22.4422 45.8159 22.3882 47.0968L22.3335 48.3921L21.5951 48.4244L20.8567 48.4567V46.6335C20.8567 44.9788 20.8777 44.7763 21.0838 44.443C21.2218 44.2197 21.4471 44.0363 21.6581 43.9753C22.1493 43.8333 31.8558 43.8274 32.3655 43.9688ZM30.9628 46.0274C31.1157 46.1962 31.1425 46.4206 31.1165 47.312L31.085 48.3921H27.0374H22.9899V47.2879C22.9899 46.5127 23.0346 46.1301 23.1399 46.0033C23.2742 45.8421 23.688 45.823 27.0338 45.823C30.5523 45.823 30.7888 45.8353 30.9628 46.0274ZM63.1933 48.3793C64.0651 48.4773 65.1476 48.5941 65.5989 48.6388L66.4193 48.72L66.4489 50.9911C66.4736 52.8901 66.4526 53.2721 66.3203 53.3228C66.0864 53.4124 62.2316 53.0352 61.7774 52.8781L61.3872 52.7432L61.3577 50.4184C61.334 48.5652 61.3565 48.1045 61.468 48.1474C61.5451 48.1769 62.3214 48.2812 63.1933 48.3793ZM85.1804 50.5643V52.7913L84.7155 52.9134C84.2988 53.0229 83.7202 53.0867 80.9414 53.3291L80.1483 53.3983V51.0471V48.6959L81.7619 48.6183C82.6493 48.5756 83.6462 48.5011 83.9771 48.4526C84.308 48.4043 84.7141 48.3585 84.8796 48.3511L85.1804 48.3374V50.5643ZM70.3849 48.8454L72.9283 48.915V51.1954V53.4756L70.2755 53.4647C68.8165 53.4587 67.4996 53.4197 67.3492 53.3779L67.0757 53.3019L67.0459 51.1234C67.0296 49.9252 67.0424 48.8765 67.0746 48.7929C67.1157 48.6856 67.2369 48.6608 67.4872 48.7085C67.6821 48.7456 68.9859 48.8073 70.3849 48.8454ZM79.4919 51.0568V53.339L79.1501 53.4073C78.962 53.4449 77.6329 53.4756 76.1964 53.4756H73.5847V51.1818V48.888L76.1828 48.8566C77.6118 48.8393 78.9408 48.8138 79.1364 48.8L79.4919 48.7747V51.0568ZM5.69793 49.0903C5.73085 49.1436 5.67681 49.2543 5.5777 49.3363C5.47848 49.4183 5.30783 49.6821 5.19832 49.9226C5.00885 50.339 4.99923 51.1248 4.99693 66.3629C4.99452 82.0367 4.99015 82.3731 4.7812 82.7109C4.66382 82.9007 4.54732 83.2508 4.52227 83.4891L4.47665 83.9223L3.88778 83.8855C2.9355 83.8258 1.38747 83.2559 1.38211 82.9629C1.38069 82.8893 1.38178 75.5313 1.38451 66.6118C1.38977 48.8957 1.34535 50.1078 2.01167 49.4904C2.175 49.339 2.5069 49.1706 2.7491 49.116C3.32735 48.9857 5.62091 48.9657 5.69793 49.0903ZM8.49513 49.0497C8.49513 49.0806 8.33509 49.3881 8.1396 49.7329L7.78407 50.3599L7.72937 65.2513L7.67468 80.1429L6.63543 81.0081L5.59619 81.8733L5.56425 66.3353C5.5428 55.8752 5.56928 50.669 5.64542 50.4049C5.79693 49.8793 6.41643 49.2624 6.92938 49.1265C7.37078 49.0095 8.49513 48.9543 8.49513 49.0497ZM51.2414 49.1072C51.8044 49.2279 52.2592 49.5705 52.5167 50.0681C52.7295 50.4793 52.7423 50.954 52.7145 57.3612L52.6904 62.9412L52.0614 63.2481C48.226 65.1191 45.8182 69.3082 45.8023 74.1378C45.7913 77.45 46.9486 80.6315 48.9503 82.7921C49.3433 83.2165 49.4907 83.4453 49.3922 83.4785C48.8326 83.6666 43.3507 83.8975 37.9519 83.9601C31.8832 84.0307 21.7334 83.9558 19.8174 83.8264C19.2759 83.7898 17.4299 83.7062 15.7151 83.6406C14.0004 83.5749 11.9105 83.4638 11.071 83.3937L9.54466 83.2664L11.071 82.0019C15.1766 78.6011 18.8752 76.0903 23.0843 73.8468C24.5334 73.0744 24.9653 72.703 25.0713 72.1379C25.1573 71.6801 24.9111 71.0487 24.5563 70.8162C24.4149 70.7237 22.3556 70.0268 19.9799 69.2677C17.6042 68.5085 15.6245 67.8532 15.5805 67.8115C15.4588 67.6961 19.3273 65.533 21.7318 64.3719C24.621 62.9767 27.1697 61.9584 30.2646 60.9627C31.5047 60.5636 33.0308 60.1314 33.052 60.1732C33.0592 60.1875 33.2535 60.6296 33.4839 61.1556C33.7143 61.6818 33.9393 62.1122 33.9839 62.1122C34.1141 62.1122 37.6487 58.5035 37.6487 58.3704C37.6487 58.2215 37.3681 58.1321 34.4417 57.3496C32.9259 56.9443 32.0725 56.7633 32.0031 56.8327C31.9337 56.9021 31.9937 57.2372 32.1744 57.7905C32.3273 58.2588 32.4525 58.7014 32.4525 58.7744C32.4525 58.8474 32.1696 58.9676 31.8234 59.0416C28.667 59.7171 23.5365 61.4563 19.8721 63.0928C17.0824 64.3389 12.3185 66.9315 11.8322 67.4685C11.7315 67.5797 11.623 67.8644 11.5913 68.1011C11.4971 68.8028 11.8706 69.1025 13.6367 69.7423C14.4489 70.0366 16.2323 70.6887 17.5996 71.1914L20.0858 72.1056L19.0764 72.6428C15.6547 74.4642 11.8307 76.9133 9.17425 78.985C8.79564 79.2803 8.46407 79.5002 8.43748 79.4735C8.41079 79.4469 8.38596 72.9005 8.38213 64.9259L8.37535 50.4267L8.6391 50.0091C8.78426 49.7794 8.98194 49.5259 9.07842 49.4458C9.61358 49.002 9.31307 49.0083 30.4506 49.0007C44.1022 48.9958 50.8837 49.0305 51.2414 49.1072ZM60.4858 53.586C60.8612 53.6501 61.9314 53.7622 62.864 53.8351L64.5596 53.9676L64.6336 54.4595C64.6743 54.7301 64.7111 55.7831 64.7156 56.7995L64.7237 58.6474L63.2196 58.5726C62.3923 58.5315 61.2231 58.4132 60.6214 58.3098L59.5275 58.1219L59.498 55.7315C59.4719 53.6232 59.4882 53.3488 59.6358 53.4054C59.7279 53.4408 60.1104 53.522 60.4858 53.586ZM83.3207 55.8743C83.3207 57.0734 83.28 58.0795 83.2304 58.1102C83.0329 58.2321 80.7927 58.5313 79.5772 58.5981L78.2886 58.6688V56.3456V54.0223L79.1364 54.0133C79.6028 54.0084 80.6488 53.9412 81.461 53.8642C82.2733 53.787 83.0241 53.7172 83.1293 53.709C83.3057 53.6955 83.3207 53.8654 83.3207 55.8743ZM69.1732 54.1316H71.1824L71.1528 56.4547L71.1233 58.7778L68.2568 58.7739C66.6804 58.7717 65.3678 58.7471 65.3402 58.7192C65.3126 58.6914 65.2733 57.6166 65.253 56.3308L65.216 53.9933L66.19 54.0624C66.7257 54.1004 68.0681 54.1316 69.1732 54.1316ZM77.6322 56.4113V58.6911L76.7953 58.7618C76.3349 58.8007 75.0058 58.8325 73.8416 58.8325H71.725V56.482V54.1316H74.6786H77.6322V56.4113ZM59.3939 58.6182C59.6479 58.7334 59.9816 58.8288 60.1356 58.8301C60.7582 58.8355 60.7944 58.9489 60.7611 60.796L60.7308 62.4847L58.2148 62.4546C56.0182 62.4283 54.1626 62.5355 53.5382 62.7249C53.364 62.7777 53.3467 62.6752 53.3467 61.5872V60.3916L54.0461 59.9127C55.2302 59.1019 56.6597 57.869 57.7907 56.6836L58.8711 55.5509L58.9017 56.9798L58.9323 58.4088L59.3939 58.6182ZM85.1804 61.0563V63.3893L84.6061 63.5172C84.0781 63.6348 80.9661 63.9696 80.3944 63.9704L80.1483 63.9707V61.629V59.2872L80.832 59.2301C82.8485 59.062 84.183 58.9202 84.5241 58.8379C84.7346 58.7871 84.9685 58.7406 85.0437 58.7343C85.1491 58.7257 85.1804 59.2567 85.1804 61.0563ZM64.1221 59.2164C65.0246 59.2515 65.924 59.305 66.1207 59.3351L66.4784 59.3898L66.4489 61.6529L66.4193 63.9161L65.4348 63.8793C64.5578 63.8466 64.3602 63.7982 63.6262 63.4351C63.1731 63.2109 62.4715 62.9329 62.0673 62.8172L61.3325 62.6069V60.9019C61.3325 59.9641 61.3694 59.1596 61.4146 59.114C61.4597 59.0684 61.7181 59.0585 61.9889 59.0919C62.2596 59.1253 63.2196 59.1814 64.1221 59.2164ZM79.4919 61.6138C79.4919 62.9031 79.4551 63.9797 79.4099 64.0064C79.3647 64.033 78.0479 64.0728 76.4836 64.0948L73.6394 64.1347L73.6098 61.8247L73.5804 59.5148L76.1259 59.4106C77.526 59.3533 78.8561 59.2982 79.0817 59.2882L79.4919 59.2698V61.6138ZM71.3592 59.4884H72.9283V61.8234V64.1584L70.0567 64.1044C68.1222 64.068 67.1588 64.0107 67.1047 63.9286C66.9987 63.7678 66.997 59.55 67.1031 59.4387C67.1482 59.3914 67.7712 59.3832 68.4876 59.4206C69.2041 59.4578 70.4962 59.4884 71.3592 59.4884ZM57.8319 63.4255C60.5764 64.3817 62.5659 66.3898 63.8416 69.4916C64.1971 70.3563 64.4745 71.5882 64.6276 72.9833C65.089 77.1868 63.1633 81.7469 60.0348 83.8598C57.696 85.4392 54.8283 85.7336 52.4182 84.6414C49.7927 83.4518 47.871 81.1104 46.8927 77.9095C46.6107 76.9867 46.3455 75.1601 46.3455 74.1407C46.3455 73.0536 46.6805 71.0692 47.0565 69.9289C48.1716 66.547 50.9634 63.8519 54.0198 63.2065C54.8847 63.024 57.0336 63.1474 57.8319 63.4255ZM62.2077 63.4777C63.3494 63.8894 64.2169 64.3921 65.0718 65.1373C65.8197 65.7893 66.6928 66.8033 66.6928 67.0201C66.6928 67.2003 63.5072 67.1857 63.2863 67.0045C63.1946 66.9293 62.9425 66.6218 62.726 66.3212C62.0043 65.3192 60.7189 64.1909 59.5549 63.5376C59.2088 63.3434 58.9258 63.1578 58.9258 63.1251C58.9258 63.0924 59.4797 63.0918 60.1565 63.1237C61.1157 63.169 61.5683 63.2471 62.2077 63.4777ZM81.3516 66.5828C81.3516 68.418 81.3311 68.6561 81.1674 68.7189C80.8134 68.8547 77.7895 69.2167 77.0032 69.2175L76.2101 69.2183V66.9927V64.7669L77.9331 64.6608C78.8808 64.6023 80.0375 64.5461 80.5038 64.5359L81.3516 64.5173V66.5828ZM69.0995 67.0864C69.0995 69.8559 69.0398 69.9671 68.3212 68.535C67.6641 67.2256 66.9788 66.2083 66.2259 65.4246L65.5642 64.736H67.3318H69.0995V67.0864ZM75.6631 66.9707C75.6631 68.1998 75.6247 69.2291 75.5779 69.2579C75.5311 69.2869 74.202 69.3463 72.6243 69.3899L69.7559 69.4692V67.1026V64.736H72.7095H75.6631V66.9707ZM54.4954 65.5812C54.3149 65.6071 53.7503 65.8229 53.2407 66.0608C52.4603 66.4253 52.166 66.6451 51.3723 67.4566C50.6058 68.2404 50.3362 68.6114 49.9257 69.4476C49.2649 70.7937 48.9911 71.7558 48.8769 73.1328C48.6099 76.3535 49.5888 79.2832 51.5537 81.1434C52.336 81.8841 52.8661 82.2226 53.7296 82.5326C57.0897 83.7392 60.6443 81.3632 61.8726 77.0896C62.1748 76.038 62.2881 73.8104 62.1078 72.4631C61.8513 70.547 60.9509 68.7184 59.5887 67.3473C58.12 65.869 56.4716 65.2974 54.4954 65.5812ZM56.3861 66.2068C57.6273 66.3749 59.2525 67.5738 60.1951 69.0169C60.4597 69.4218 60.6761 69.7831 60.6761 69.8198C60.6761 69.8563 60.7722 70.0969 60.8896 70.3545C61.3813 71.4332 61.5901 72.5818 61.5872 74.1925C61.5841 75.8744 61.4407 76.674 60.9004 78.0224C60.2543 79.6351 58.9221 81.1322 57.54 81.7987C56.8382 82.1372 56.7192 82.1596 55.5893 82.1661C53.9005 82.176 53.296 81.9293 51.9968 80.7003C50.8581 79.6233 50.1604 78.4038 49.7119 76.7069C49.382 75.4585 49.3849 72.9355 49.7179 71.6704C50.5233 68.6105 52.5146 66.4999 54.9168 66.1603C55.2265 66.1165 55.5784 66.0948 55.6987 66.112C55.819 66.1293 56.1284 66.172 56.3861 66.2068ZM67.5707 68.349C68.2933 69.7795 68.7484 71.4052 68.8472 72.9078L68.9137 73.9192H67.1434C65.8253 73.9192 65.3612 73.8843 65.3262 73.7825C65.3003 73.7074 65.2268 73.1573 65.1628 72.5603C65.002 71.0586 64.5902 69.6317 63.9383 68.3163L63.6266 67.6877H65.4316H67.2366L67.5707 68.349ZM89.3096 71.5701C89.3245 72.7719 89.2954 73.8192 89.2451 73.8973C89.1333 74.0711 87.6658 74.3178 86.2073 74.4079C85.6124 74.4446 84.9165 74.5004 84.6608 74.5316L84.1959 74.5886V72.2381V69.8876L84.6608 69.8308C84.9165 69.7995 85.7903 69.7197 86.6026 69.6535C87.4148 69.5871 88.2763 69.4919 88.517 69.4417C89.3267 69.2728 89.2798 69.1468 89.3096 71.5701ZM83.6489 72.1727V74.4713L83.393 74.5685C83.2523 74.6219 81.9108 74.6794 80.412 74.6963L77.6869 74.7268L77.6575 72.3572L77.628 69.9877L80.0642 69.9561C81.404 69.9387 82.7587 69.9131 83.0746 69.8993L83.6489 69.8742V72.1727ZM70.5216 71.8092C70.5216 72.93 70.4826 73.5948 70.4204 73.5311C70.3237 73.4319 69.2082 70.743 69.0508 70.2295C68.9775 69.9905 68.9973 69.9835 69.7485 69.9835H70.5216V71.8092ZM77.0306 72.3821V74.7259L74.2533 74.6959C72.7257 74.6794 71.4089 74.6403 71.327 74.6089C71.2078 74.5632 71.178 74.0938 71.178 72.2659V69.9799L74.1043 70.0091L77.0306 70.0382V72.3821ZM68.845 75.5108C68.7604 76.798 68.2843 78.5058 67.6471 79.808L67.1851 80.7519L65.4074 80.782C64.4298 80.7985 63.6298 80.7845 63.6298 80.7511C63.6298 80.7175 63.7512 80.4506 63.8996 80.158C64.5591 78.8572 65.0143 77.2598 65.1768 75.6756C65.2351 75.1083 65.3076 74.604 65.3379 74.555C65.3682 74.5059 66.1851 74.4658 67.1534 74.4658H68.9137L68.845 75.5108ZM85.1804 77.1325C85.1804 79.0508 85.1622 79.2597 84.989 79.3262C84.6637 79.4512 81.5545 79.8225 80.832 79.8226L80.1483 79.8227V77.5815C80.1483 75.8669 80.1805 75.338 80.285 75.3302C80.3603 75.3247 81.4802 75.2582 82.7738 75.1826C84.0673 75.1071 85.138 75.0379 85.1531 75.0288C85.1682 75.0199 85.1804 75.9665 85.1804 77.1325ZM72.9196 77.5542C72.9149 78.7719 72.8843 79.6942 72.8517 79.604C72.819 79.5138 72.7268 79.2925 72.6467 79.1121C72.5665 78.9317 72.2289 78.1063 71.8964 77.2778C71.5639 76.4494 71.2399 75.6746 71.1763 75.556C71.0656 75.3493 71.0992 75.3404 71.9946 75.3404H72.9283L72.9196 77.5542ZM79.4919 77.6362V79.932H77.5397C76.4659 79.932 75.1367 79.9639 74.586 80.0031L73.5847 80.074V77.7073V75.3404H76.5383H79.4919V77.6362ZM88.4371 82.2461L88.4076 84.5602L88.1341 84.6383C87.6804 84.7678 85.8564 84.9843 84.6061 85.057L83.4301 85.1253V82.802C83.4301 81.0164 83.4617 80.4785 83.5669 80.4783C83.9919 80.4771 87.2151 80.1318 87.5602 80.0505C87.7855 79.9974 88.0817 79.9491 88.2183 79.9429L88.4666 79.932L88.4371 82.2461ZM82.7738 82.813V85.1475L81.9368 85.2181C81.4765 85.2571 80.1473 85.2889 78.9831 85.2889H76.8665V82.9406V80.5922L79.2458 80.5605C80.5544 80.543 81.8835 80.5175 82.1994 80.5037L82.7738 80.4786V82.813ZM76.3007 82.7517C76.3228 83.9117 76.3099 84.9844 76.2719 85.1354C76.209 85.3862 76.1588 85.407 75.6914 85.3766L75.1797 85.3435L74.2637 83.1024C73.7599 81.8698 73.3213 80.7983 73.2892 80.7214C73.2429 80.611 73.5488 80.5881 74.7455 80.6121L76.2605 80.6426L76.3007 82.7517ZM66.5834 81.5367C66.5834 81.6376 66.0789 82.2177 65.4621 82.8259C64.5403 83.7352 64.1756 84.0131 63.411 84.3891C62.3011 84.935 61.1009 85.2464 59.703 85.3516C58.6026 85.4344 58.4564 85.3328 59.2182 85.0147C60.3259 84.5522 62.1525 82.967 62.9289 81.7948L63.2213 81.3532H64.9024C66.4029 81.3532 66.5834 81.3729 66.5834 81.5367Z" fill="white"/>
</g>
<defs>
<clipPath id="clip0_9_547">
<rect width="89.1582" height="99.1885" fill="white" transform="translate(0.728149)"/>
</clipPath>
</defs>
</svg>
