<svg width="92" height="102" viewBox="0 0 92 102" fill="none" xmlns="http://www.w3.org/2000/svg">
<path fill-rule="evenodd" clip-rule="evenodd" d="M62.8528 6.62674C62.0556 6.79624 60.8535 7.47609 60.2062 8.12365C58.7739 9.55623 58.403 11.4978 59.2105 13.337L59.4387 13.8568H56.3278H53.2169V12.0143C53.2169 10.9845 53.1614 10.068 53.0909 9.93657C52.9419 9.65786 52.3538 9.33182 52.0003 9.33182C51.8015 9.33182 51.7497 9.2533 51.7497 8.95282C51.7497 8.68658 51.6367 8.4684 51.3699 8.21904L50.9902 7.86426H39.559H28.1279L27.7122 8.28007L27.2965 8.69587V11.3375V13.9791H17.882H8.46751V19.4197V24.8602L8.07014 25.0282C7.85153 25.1205 7.51835 25.3519 7.3297 25.5425C7.05436 25.8206 6.8926 25.8833 6.50942 25.8607C5.9465 25.8274 4.81554 26.1026 4.12706 26.4404C3.52588 26.7352 2.32767 27.9526 2.06786 28.5324C1.96234 28.7678 1.78958 29.208 1.68394 29.5107C0.841408 31.9235 1.99156 34.9727 4.14687 36.0403C4.53947 36.2347 4.95615 36.441 5.07291 36.4989C5.43653 36.6788 7.3017 36.6235 7.6894 36.4212C7.88197 36.3208 8.1358 36.2383 8.25354 36.2378C8.45442 36.237 8.46751 36.6063 8.46751 42.2835C8.46751 46.1826 8.4241 48.3567 8.34524 48.4055C8.26503 48.4551 8.22297 52.6282 8.22297 60.5266V72.5721L7.67278 73.4152C7.37017 73.8788 7.12258 74.2981 7.12258 74.3468C7.12258 74.3956 7.04763 74.5223 6.95593 74.6285C6.86423 74.7347 6.68976 75.0967 6.5681 75.4331C6.44645 75.7694 6.30425 76.1018 6.25205 76.1716C6.16279 76.2913 6.06033 76.6542 5.75687 77.925C5.59267 78.6124 5.69463 81.7747 5.89931 82.3428C6.12733 82.9756 6.7718 84.3075 7.05325 84.7276C7.74993 85.7672 9.0951 86.9258 10.2976 87.5216C10.8358 87.7883 12.2749 88.0911 12.9913 88.0885C13.7753 88.0856 15.5188 87.7831 16.379 87.5005C17.2542 87.2131 18.6146 86.4956 19.2757 85.9726C19.8809 85.4938 20.8055 84.5104 21.1196 84.0114C21.4938 83.4168 21.7543 83.1728 21.966 83.2183C22.1408 83.2559 22.1393 83.2964 21.9514 83.6269C21.6824 84.1002 21.6461 86.3978 21.899 86.9404C21.9902 87.1358 22.1434 87.4609 22.2397 87.6627C22.4337 88.07 23.1596 88.9468 23.3027 88.9468C23.353 88.9468 23.5156 89.0606 23.6642 89.1996C24.0102 89.5235 25.0478 90.0475 25.343 90.0475C25.468 90.0475 25.6043 90.1025 25.6459 90.1698C25.6888 90.2393 26.2993 90.2921 27.0592 90.2921C27.8694 90.2921 28.3969 90.2439 28.3969 90.1698C28.3969 90.1025 28.5104 90.0475 28.6492 90.0475C29.1257 90.0475 30.253 89.4289 30.9113 88.8062C31.6548 88.1029 32.3094 86.9015 32.3094 86.2405C32.3094 86.007 32.3754 85.75 32.4561 85.6693C32.5571 85.5683 33.177 85.5219 34.4429 85.5207C35.4549 85.5196 36.3522 85.4748 36.4367 85.4211C36.5212 85.3676 36.7756 84.8708 37.0022 84.3173C37.2286 83.7638 37.4392 83.2858 37.4699 83.255C37.5007 83.2243 39.3208 83.1974 41.5149 83.1953C44.7919 83.1922 45.535 83.1606 45.6775 83.018C45.8271 82.8683 45.949 82.8963 46.5689 83.223C47.2192 83.5657 47.3908 83.601 48.3874 83.5985C49.129 83.5967 49.6359 83.531 49.9423 83.3974C50.1924 83.2882 50.4537 83.1989 50.5231 83.1989C50.6082 83.1989 50.6493 85.2301 50.6493 89.436V95.6731H69.2948H87.9404V78.307V60.9409H80.7267C74.677 60.9409 73.513 60.9682 73.513 61.1096C73.513 61.2024 73.6579 61.5947 73.8349 61.9815C74.0906 62.5402 74.1579 62.8766 74.1615 63.6168C74.1669 64.6794 73.9989 65.2906 73.485 66.0774C73.1253 66.6281 71.9025 67.6672 71.6142 67.6672C71.5297 67.6672 71.229 67.0237 70.9429 66.2302C70.38 64.6696 70.0089 64.0869 69.3549 63.736C68.9862 63.5384 68.6393 63.5092 66.6568 63.5092H64.3818L64.4689 62.9894C64.5673 62.4014 64.8886 61.6074 65.0748 61.4924C65.1431 61.4502 65.1989 61.3089 65.1989 61.1783C65.1989 60.9459 65.0437 60.9409 57.9241 60.9409H50.6493V62.2165V63.4919L48.7439 63.5312L46.8384 63.5703L46.482 63.9697C46.2432 64.2372 46.1257 64.4998 46.1262 64.7646C46.1267 64.9822 46.4368 65.9857 46.8154 66.9946C47.194 68.0035 47.5803 69.0492 47.6738 69.3182C47.7673 69.5873 47.8914 69.9175 47.9495 70.052C48.2373 70.7172 48.8484 72.4116 48.8978 72.6814C48.9526 72.9797 48.935 72.9876 48.1756 73.0084C47.475 73.0275 46.9312 73.2023 45.8503 73.7555C45.7998 73.7813 45.7586 72.9448 45.7586 71.8966C45.7586 70.4522 45.7216 69.9915 45.6058 69.9936C45.5218 69.995 45.2054 70.1086 44.9028 70.2461C44.5678 70.3982 43.963 70.5235 43.3562 70.5664C42.4175 70.6328 42.3114 70.6143 41.5222 70.2455C40.5297 69.7815 40.1766 69.4655 39.5135 68.4475C39.1405 67.8749 38.9695 67.441 38.8225 66.6947C38.6421 65.7789 38.6428 65.6304 38.8313 64.7529C39.1499 63.2696 39.6766 62.3986 40.7166 61.635C41.9135 60.7561 43.3709 60.5711 44.7194 61.1267C45.1229 61.293 45.5218 61.4293 45.6058 61.4295C45.7261 61.43 45.7586 60.077 45.7586 55.0707V48.7113H52.5444C56.2766 48.7113 59.3302 48.7321 59.3302 48.7575C59.3302 48.7829 59.2525 48.9896 59.1575 49.217C58.167 51.5883 59.2276 54.1611 61.6976 55.379C63.2001 56.1198 65.1492 56.0959 66.7381 55.3172C67.6575 54.8668 68.6395 53.8564 69.0875 52.9003C69.373 52.2909 69.4171 52.0413 69.417 51.0349C69.417 50.0979 69.3652 49.7609 69.1492 49.2932L68.8816 48.7132L75.8128 48.6817L82.7441 48.6501V31.284V13.9179L75.7424 13.8864L68.7407 13.8548L68.9805 13.3846C69.1124 13.1261 69.2826 12.5567 69.3587 12.1192C69.7465 9.89169 68.4224 7.77743 66.0548 6.84382C65.4392 6.60106 63.5697 6.47436 62.8528 6.62674ZM65.7941 7.17805C67.3946 7.71958 68.4845 8.8271 68.9317 10.3661C69.2056 11.3082 69.114 12.1718 68.6304 13.2053C68.4243 13.6459 68.2556 14.0554 68.2556 14.1151C68.2556 14.1771 71.2988 14.2237 75.347 14.2237H82.4384V25.1692C82.4384 31.1893 82.4124 36.1147 82.3805 36.1147C82.3486 36.1147 81.9222 35.9567 81.4329 35.7636C79.3818 34.9541 76.9788 34.4041 74.3689 34.1464C73.5283 34.0633 72.8296 33.989 72.8162 33.981C72.8028 33.9731 72.7015 32.9244 72.5911 31.6507C72.4604 30.1424 72.433 29.3204 72.5125 29.294C72.9318 29.1542 73.8472 28.4032 74.2519 27.8669C74.9203 26.9815 75.2525 26.1591 75.3163 25.2323C75.4462 23.3471 74.1043 21.6838 72.4536 21.6838C72.1518 21.6838 72.0693 21.6128 71.9335 21.2371C71.6993 20.5895 70.9143 19.7981 70.1785 19.4681C69.6679 19.2392 69.3304 19.1822 68.5001 19.1841C67.247 19.1872 66.3355 19.4856 65.3832 20.2048C63.9605 21.2793 63.6745 23.1706 64.808 24.0089L65.1733 24.279L64.9502 24.7852C64.8276 25.0637 64.6618 25.5529 64.5817 25.8724C64.5018 26.192 64.3784 26.4533 64.3076 26.4533C64.051 26.4533 63.7317 26.8659 63.7317 27.1977C63.7317 27.4355 63.8418 27.6156 64.0985 27.7986C64.3621 27.9863 64.4653 28.1598 64.4653 28.4156C64.4653 28.6647 64.5617 28.8344 64.7867 28.9819C65.0869 29.1787 65.157 29.1796 65.8565 28.9944C66.2682 28.8854 66.7009 28.7587 66.818 28.7129C67.117 28.5955 67.2448 28.9844 66.9907 29.2385C66.8718 29.3574 66.4709 29.4698 65.9862 29.5199C65.0559 29.6163 64.8908 29.7298 65.007 30.193C65.1907 30.9252 66.3331 31.642 67.5429 31.7842L68.2171 31.8635L68.0075 33.0154C67.8923 33.6489 67.7773 34.1832 67.7517 34.2029C67.7263 34.2224 67.2102 34.3659 66.605 34.5216C63.6344 35.2857 61.3214 36.6409 57.7441 39.7129C56.7709 40.5486 55.672 41.4156 55.3019 41.6392C54.6856 42.0119 54.5518 42.0445 53.709 42.0273C52.391 42.0004 50.0785 41.2792 47.0119 39.9385L45.7586 39.3906V37.4469C45.7586 35.2495 45.7937 35.3111 44.8097 35.7784C43.9579 36.183 42.2712 36.1736 41.4378 35.7598C40.7659 35.4262 39.7676 34.5047 39.4842 33.9565C39.2968 33.5938 39.307 33.5622 40.186 31.8125C40.8991 30.393 41.277 29.8058 42.0689 28.887C42.6138 28.2547 43.211 27.4484 43.3957 27.0954C43.7814 26.3585 43.8874 26.3318 44.8075 26.7388C45.1626 26.8957 45.5218 27.0012 45.6058 26.9732C45.724 26.9337 45.7586 25.9961 45.7586 22.8354V18.7486H49.108H52.4573L52.8371 18.3939L53.2169 18.0391V16.1314V14.2237H56.5588C58.3969 14.2237 59.9367 14.1877 59.9806 14.1438C60.0245 14.0998 59.9515 13.8874 59.8183 13.6718C59.0919 12.4962 58.9738 10.9237 59.5204 9.70555C60.0475 8.53053 61.2648 7.51584 62.6859 7.06676C63.5233 6.80211 64.8205 6.84846 65.7941 7.17805ZM51.0607 8.48467L51.3829 8.73807V12.5626C51.3829 16.1198 51.3671 16.4013 51.1581 16.5906C50.9519 16.7772 49.9906 16.7942 39.5123 16.7958L28.0912 16.7975L27.8772 16.5365C27.6838 16.3008 27.6633 15.9175 27.6633 12.5536V8.8315L27.9634 8.53139L28.2635 8.23115H39.5011C50.6846 8.23115 50.7401 8.23237 51.0607 8.48467ZM46.4486 9.08942C45.3747 9.4151 44.9492 10.66 45.5892 11.6032C45.7717 11.8723 45.8529 12.0928 45.7784 12.1176C45.4264 12.235 44.815 12.7495 44.5077 13.1867C44.1035 13.762 43.9374 14.7645 44.1578 15.2969C44.4332 15.9619 44.7902 16.0581 46.9818 16.0581H48.962L49.3777 15.6423C49.7099 15.31 49.7923 15.132 49.788 14.7557C49.7764 13.7401 49.1667 12.711 48.3316 12.2977C47.8985 12.0834 47.8606 12.0329 48.0284 11.8936C48.1338 11.806 48.299 11.5818 48.3954 11.3952C49.0332 10.1617 47.7853 8.68389 46.4486 9.08942ZM47.5332 9.69981C48.3325 10.1939 48.3581 11.1101 47.5882 11.6586C46.4222 12.4891 44.9848 10.8116 46.0401 9.85194C46.5449 9.39296 46.9672 9.34992 47.5332 9.69981ZM46.37 9.75985C46.37 9.79349 46.3975 9.821 46.4311 9.821C46.4647 9.821 46.4922 9.79349 46.4922 9.75985C46.4922 9.72622 46.4647 9.69871 46.4311 9.69871C46.3975 9.69871 46.37 9.72622 46.37 9.75985ZM30.3157 11.7336C30.2727 11.7766 30.2668 11.8592 30.3025 11.917C30.3383 11.975 33.0052 12.0223 36.2291 12.0223C41.3579 12.0223 42.0907 11.9993 42.0907 11.8389C42.0907 11.6784 41.3594 11.6554 36.2423 11.6554C33.0256 11.6554 30.3587 11.6907 30.3157 11.7336ZM47.8983 12.6211C48.1673 12.7456 48.5398 13.01 48.7262 13.2086C49.0646 13.5694 49.0647 13.5699 48.8179 13.7933C48.6819 13.9163 48.5708 14.0731 48.5708 14.1416C48.5708 14.2102 48.7016 14.1434 48.8615 13.9931L49.1521 13.7199L49.236 14.2792C49.3629 15.1257 49.0949 15.7295 48.7277 15.4246C48.6157 15.3318 48.5708 15.3338 48.5708 15.4317C48.5708 15.5151 48.3281 15.5689 47.9522 15.5689C47.571 15.5689 47.3626 15.522 47.4092 15.4466C47.4508 15.3794 47.4298 15.3243 47.3625 15.3243C47.2953 15.3243 47.2063 15.3794 47.1647 15.4466C47.1231 15.5139 46.6012 15.5689 46.0046 15.5689C44.6326 15.5689 44.488 15.459 44.5596 14.4696C44.5997 13.9151 44.6886 13.6824 45.0162 13.2745C45.2401 12.9959 45.5099 12.7513 45.616 12.7309C45.7237 12.7101 46.1344 13.0307 46.5477 13.4583C46.9543 13.8788 47.3404 14.2231 47.4057 14.2233C47.471 14.2234 47.1822 13.8782 46.7638 13.456C46.3455 13.0339 46.0032 12.6527 46.0032 12.6089C46.0032 12.3388 47.3068 12.3472 47.8983 12.6211ZM34.0517 14.0097C34.0907 14.1269 35.0333 14.17 38.0966 14.1948C41.5956 14.2231 42.0907 14.2041 42.0907 14.0419C42.0907 13.8804 41.5759 13.8568 38.0457 13.8568C34.8641 13.8568 34.0116 13.8894 34.0517 14.0097ZM48.204 14.5294C48.3619 14.6976 48.5187 14.8352 48.5523 14.8352C48.5859 14.8352 48.4842 14.6976 48.3262 14.5294C48.1683 14.3613 48.0115 14.2237 47.9779 14.2237C47.9443 14.2237 48.046 14.3613 48.204 14.5294ZM27.2965 15.3761C27.2965 16.303 27.3279 16.4436 27.6095 16.7783C27.7975 17.0019 28.0906 17.182 28.3431 17.2294C28.6886 17.2942 28.7637 17.3627 28.7637 17.6126C28.7637 17.7957 28.9293 18.0827 29.1794 18.3328L29.5951 18.7486H37.4323H45.2696V22.5266V26.3046L44.5722 26.0888C44.1019 25.9432 43.836 25.7858 43.7554 25.6053C43.689 25.4564 43.4831 25.3072 43.2913 25.2688C43.1017 25.2308 42.9465 25.1337 42.9465 25.0529C42.9465 24.9722 42.8129 24.7806 42.6495 24.6271C42.407 24.3991 42.2917 24.3684 42.0193 24.4593C41.8087 24.5295 41.535 24.5232 41.2769 24.4424C40.9175 24.3299 40.8671 24.2625 40.8612 23.8857C40.8478 23.046 40.0661 21.6838 39.5975 21.6838C39.3307 21.6838 39.234 22.1764 39.3904 22.7397C39.4627 22.9997 39.522 23.8276 39.5223 24.5796C39.5229 25.6754 39.4839 25.9858 39.3257 26.1442C39.144 26.3258 39.0816 26.2957 38.5418 25.7655C37.812 25.0486 37.5007 24.8733 36.9483 24.8677C36.0489 24.8588 35.8859 25.3695 36.6394 25.8354C37.5145 26.3763 37.7747 27.0402 37.5529 28.1655C37.0804 30.562 34.1228 32.8886 30.4754 33.733C29.2502 34.0166 26.688 34.0224 25.5174 33.744C24.4958 33.5011 23.3928 33.1833 23.1354 33.0577C23.0323 33.0073 22.7591 32.9246 22.5281 32.8739C22.2971 32.8231 22.0239 32.7365 21.9208 32.6813C21.7538 32.5919 21.2153 32.4273 19.3492 31.8948C19.0466 31.8084 18.5789 31.6907 18.3099 31.6332C17.8298 31.5306 17.807 31.5009 17.0617 29.9999C16.0743 28.0114 15.9984 27.8002 16.2683 27.7932C16.6294 27.7839 17.388 27.4684 17.896 27.1162C18.7756 26.5065 19.3455 25.184 19.3478 23.7471C19.3488 23.1772 19.4036 22.8914 19.5326 22.7844C19.9138 22.4679 19.6701 21.8562 19.0796 21.6472C18.965 21.6066 18.7514 21.3368 18.6052 21.0477C18.4588 20.7585 18.2363 20.3759 18.1105 20.1974C17.9848 20.0188 17.882 19.8525 17.882 19.8277C17.882 19.803 18.0647 19.6842 18.2879 19.564C18.8609 19.2553 19.1046 18.7787 19.1046 17.9673C19.1046 17.389 19.0512 17.2252 18.7542 16.8926C18.4498 16.552 18.3251 16.5005 17.8067 16.5016C17.1814 16.5029 16.7003 16.7267 15.7028 17.4803C15.262 17.8134 15.1246 17.8549 14.644 17.8007C13.4298 17.6639 11.6596 18.2577 10.8029 19.0895C9.73418 20.1268 9.43879 21.5926 9.94705 23.3348C10.3454 24.6998 10.353 24.6742 9.53733 24.7167L8.8343 24.7534V19.5497V14.346H18.0654H27.2965V15.3761ZM47.6297 14.4801C47.516 14.5939 47.5475 14.6773 47.7711 14.8531C48.2461 15.2269 48.3762 15.0751 47.99 14.598C47.8238 14.3927 47.7434 14.3664 47.6297 14.4801ZM17.6674 20.3814C17.852 20.5932 18.1546 21.0823 18.3399 21.4682C18.6014 22.0127 18.7382 22.1701 18.9518 22.1714C19.2605 22.1732 19.3277 22.475 19.0435 22.5841C18.9003 22.639 18.8601 22.8831 18.8601 23.6968C18.8601 25.7149 17.9086 27.043 16.2925 27.2805C15.6453 27.3757 15.6207 27.3929 15.6373 27.7418C15.6468 27.9412 15.9669 28.7922 16.3485 29.633C16.7301 30.4738 17.0668 31.2168 17.0968 31.284C17.1315 31.3623 16.5228 31.4082 15.4074 31.4116C14.2992 31.4149 13.4926 31.4754 13.1941 31.5777C12.8844 31.6837 12.6831 31.6973 12.6034 31.6175C12.5369 31.551 12.4224 30.9176 12.3491 30.21L12.2157 28.9235L12.5392 28.539C12.9739 28.0223 13.1327 27.363 13.1426 26.0349C13.1471 25.4242 13.2071 24.834 13.276 24.7233C13.3687 24.5742 13.348 24.4689 13.1963 24.3172C12.9278 24.0486 12.9376 23.9389 13.2589 23.6176C13.4668 23.4095 13.5368 23.3891 13.5735 23.5259C13.7621 24.2294 14.157 24.4382 14.6361 24.088C14.8492 23.9321 14.8504 23.8912 14.6609 23.2625C14.3058 22.085 14.3167 22.0409 15.131 21.3604C15.5345 21.0232 15.9746 20.5427 16.1091 20.2928C16.3436 19.8569 16.3736 19.8415 16.8427 19.9174C17.1771 19.9715 17.4379 20.1181 17.6674 20.3814ZM16.1703 21.5253C15.8218 21.6521 15.3144 22.2197 15.3144 22.4826C15.3144 23.4162 17.4934 23.3558 17.8846 22.4114C18.0486 22.0152 17.8614 21.6177 17.4602 21.5099C17.1506 21.4267 16.417 21.4354 16.1703 21.5253ZM16.4902 22.3473C16.6077 22.6007 16.5932 22.6509 16.3868 22.7049C15.8969 22.8331 15.6276 22.52 15.9502 22.1974C16.1725 21.9751 16.3392 22.0214 16.4902 22.3473ZM40.3146 23.4644C40.4276 23.8529 40.5012 24.5971 40.5012 25.35V26.5937L39.834 27.2934C39.0601 28.1051 38.5171 29.1979 38.2884 30.404C38.1499 31.1346 38.1575 31.3656 38.3503 32.2996C38.4712 32.8845 38.6144 33.4181 38.6687 33.4854C38.773 33.6145 37.6902 35.4822 37.3985 35.6766C37.1608 35.8349 36.201 35.2483 35.7215 34.6513C35.0827 33.8563 34.6324 33.862 34.6324 34.6652C34.6324 35.2851 34.9805 35.9588 35.581 36.5016L36.0583 36.9328L35.7427 37.0645C35.5691 37.1369 34.6844 37.5926 33.7766 38.0771C32.6405 38.6835 32.2069 38.8675 32.3858 38.6676C32.8643 38.1328 32.9719 37.7922 32.9606 36.8485C32.9494 35.9309 32.6216 34.6496 32.2546 34.0894C32.0878 33.8348 32.1043 33.8113 32.5917 33.6067C34.3532 32.8672 35.5697 32.0341 36.5543 30.893C37.458 29.8459 37.9188 28.9549 38.0104 28.0775C38.1212 27.0176 37.9991 26.5623 37.4312 25.9169C37.001 25.428 36.9682 25.3527 37.1853 25.3527C37.4239 25.3527 38.041 25.8149 38.6258 26.4317C39.0415 26.87 39.5269 26.758 39.8079 26.1588C39.9958 25.7586 40.0235 25.4605 39.9789 24.3244C39.9495 23.5783 39.886 22.8303 39.8375 22.6621C39.7535 22.3705 39.7582 22.3672 39.9388 22.5895C40.0429 22.7178 40.212 23.1114 40.3146 23.4644ZM69.3993 23.8181C69.8126 24.2014 69.8187 24.6843 69.42 25.4469C68.964 26.3195 68.9115 26.7426 69.221 27.0521C69.6734 27.5046 70.0314 27.388 70.871 26.5145C71.2912 26.0773 71.7369 25.7195 71.8613 25.7195C72.2378 25.7195 72.5349 26.087 72.5349 26.5529C72.5349 26.904 72.4361 27.0721 71.9885 27.4832C71.294 28.121 71.0842 28.6584 71.3635 29.0848C71.4729 29.2518 71.6712 29.3884 71.8041 29.3884C71.937 29.3884 72.0458 29.4701 72.0458 29.5699C72.0458 30.3301 72.6091 35.7405 72.6974 35.8289C72.8915 36.0231 72.9988 35.675 72.9351 35.0571L72.864 34.3697L73.5859 34.45C75.7279 34.6882 75.6208 34.6205 75.2959 35.5308C74.793 36.9402 72.9633 38.3811 70.8843 39.0051C69.7636 39.3414 68.1426 39.2935 67.2775 38.8985C66.1152 38.3677 65.4435 37.4195 65.4435 36.31C65.4435 35.2298 65.4967 35.1847 67.2592 34.765L67.669 34.6674L67.5843 35.2381C67.5378 35.5522 67.4909 35.864 67.4803 35.9313C67.4695 35.9986 67.5426 36.0536 67.6428 36.0536C67.7764 36.0536 67.8879 35.7213 68.0633 34.8009C68.244 33.8524 68.3536 33.5318 68.5149 33.4807C68.6322 33.4434 68.8691 33.172 69.0416 32.8777C69.2346 32.5485 69.5545 32.2323 69.8727 32.0568C70.1841 31.885 70.437 31.6376 70.5081 31.4353C70.6966 30.8994 70.4745 30.8061 69.7751 31.1272C68.9311 31.5148 67.3458 31.5197 66.5142 31.1373C65.9624 30.8834 65.3212 30.3284 65.3212 30.1044C65.3212 30.0469 65.5 29.9996 65.7186 29.9992C67.0966 29.9969 68.0606 29.0134 67.223 28.4644C66.9449 28.2821 66.869 28.287 66.1368 28.5344C65.0984 28.8853 64.9093 28.8407 64.8321 28.2265C64.7845 27.8468 64.697 27.7042 64.4348 27.5789C63.9886 27.3658 63.9975 27.0017 64.4529 26.8428C64.7478 26.7401 64.8287 26.6192 64.9351 26.1235C65.0053 25.7957 65.1706 25.276 65.3024 24.9685C65.5138 24.4753 65.5975 24.3998 66.0124 24.329C66.2711 24.2849 66.8404 24.0859 67.2775 23.8869C68.2863 23.4276 68.9546 23.4059 69.3993 23.8181ZM17.7597 23.8851C17.6589 23.9503 17.3701 24.0045 17.1178 24.0056C16.6329 24.0075 16.1703 24.3398 16.1703 24.6861C16.1703 24.9804 16.5061 25.5592 16.726 25.6436C17.8667 26.0814 19.1593 24.7958 18.3711 24.0074C18.0956 23.7319 18.0201 23.7167 17.7597 23.8851ZM41.3571 25.1692C41.3571 25.3374 41.302 25.4749 41.2348 25.4749C41.1675 25.4749 41.1125 25.3374 41.1125 25.1692C41.1125 25.0011 41.1675 24.8635 41.2348 24.8635C41.302 24.8635 41.3571 25.0011 41.3571 25.1692ZM42.3832 25.0569C42.5441 25.4762 42.4648 25.8418 42.2129 25.8418C42.0173 25.8418 41.9684 25.7603 41.9684 25.4342C41.9684 24.8761 42.2245 24.6432 42.3832 25.0569ZM65.8103 25.6822C65.2829 25.9542 65.1825 26.4122 65.5728 26.7654C65.7792 26.9523 66.0149 27.0037 66.6661 27.0037C67.5908 27.0037 68.011 26.7693 68.011 26.2537C68.011 25.6206 66.6265 25.2611 65.8103 25.6822ZM43.2802 25.7934C43.2396 25.834 43.1341 25.8384 43.0459 25.8031C42.9484 25.7641 42.9773 25.7351 43.1198 25.7292C43.2486 25.7239 43.3208 25.7528 43.2802 25.7934ZM67.3328 25.9838C67.5041 26.0618 67.6442 26.1975 67.6442 26.2852C67.6442 26.4882 67.2568 26.6979 66.882 26.6979C66.633 26.6979 66.5928 26.6385 66.5928 26.2699C66.5928 25.7962 66.7705 25.7275 67.3328 25.9838ZM41.2745 26.0446C41.3634 26.1336 41.1383 26.4533 40.9867 26.4533C40.934 26.4533 40.9197 26.3433 40.9548 26.2087C41.0202 25.9586 41.1315 25.9015 41.2745 26.0446ZM71.4844 26.1047C71.4365 26.1823 71.4936 26.3163 71.6114 26.4026C71.7293 26.4888 71.7919 26.6143 71.7504 26.6813C71.6441 26.8535 71.9189 26.9961 72.0686 26.8464C72.2368 26.6781 72.0809 26.2361 71.8004 26.0859C71.6406 26.0005 71.5453 26.0061 71.4844 26.1047ZM6.69196 26.545C6.49328 27.018 6.49523 27.3203 6.70052 27.858C6.96229 28.5437 7.87684 29.4049 8.56092 29.6099C9.22213 29.808 10.3829 29.7927 11.1016 29.5764C11.4287 29.478 11.7035 29.4091 11.7126 29.4235C11.7216 29.4378 11.8096 29.9724 11.9081 30.6114C12.0302 31.404 12.0462 31.7865 11.9584 31.8153C10.9592 32.1419 9.55421 32.7177 8.77317 33.1207C7.38007 33.8395 7.31625 33.8795 5.99419 34.8612C5.3375 35.3489 4.73179 35.7479 4.64804 35.7479C4.35289 35.7479 3.24504 34.8827 2.86846 34.3582C2.14855 33.3556 1.93777 32.649 1.9319 31.2199C1.92689 30.0112 1.95061 29.8842 2.32193 29.1297C2.88252 27.9907 3.57858 27.2479 4.47736 26.8295C5.37112 26.4135 5.55293 26.3638 6.24923 26.3452C6.71201 26.3329 6.77009 26.3592 6.69196 26.545ZM42.0907 26.6529C42.0907 26.6955 41.9677 26.9293 41.8173 27.1727C41.6048 27.5166 41.5343 27.5661 41.5015 27.3951C41.4544 27.1509 41.7843 26.5756 41.9712 26.5756C42.0369 26.5756 42.0907 26.6103 42.0907 26.6529ZM42.9924 26.6731C43.0643 26.7896 42.488 27.554 42.3283 27.554C42.267 27.554 42.3315 27.3339 42.4718 27.0648C42.7203 26.5877 42.87 26.4752 42.9924 26.6731ZM40.9903 27.1871C40.9903 27.2544 40.9352 27.3094 40.868 27.3094C40.8008 27.3094 40.7457 27.2544 40.7457 27.1871C40.7457 27.1198 40.8008 27.0648 40.868 27.0648C40.9352 27.0648 40.9903 27.1198 40.9903 27.1871ZM40.7787 27.9209C40.8871 27.9209 41.0126 27.9803 41.0575 28.0531C41.1025 28.1258 41.2574 28.1556 41.4019 28.1194C41.5465 28.083 41.7432 28.1019 41.839 28.1611C41.979 28.2477 41.9185 28.3819 41.5324 28.8424C40.7026 29.8319 40.6094 29.9796 39.8223 31.5558L39.0536 33.0949L38.906 32.5564C38.6978 31.7966 38.7191 30.5479 38.9539 29.7404C39.064 29.3621 39.381 28.7129 39.6584 28.2973C40.1236 27.6005 40.179 27.5566 40.3722 27.7313C40.4874 27.8356 40.6703 27.9209 40.7787 27.9209ZM16.5684 31.9125C17.4406 31.9863 17.496 32.0085 17.5565 32.31C17.5919 32.4856 17.7104 33.0145 17.82 33.4854C17.9297 33.9562 18.0506 34.5299 18.0889 34.7603L18.1583 35.1793L17.6839 34.9021C16.169 34.0169 13.1333 32.1407 13.165 32.1092C13.1854 32.0887 13.4435 32.0245 13.7386 31.9666C14.4231 31.832 15.3973 31.8135 16.5684 31.9125ZM19.0757 32.3119C19.5287 32.4401 20.6972 32.8026 21.6722 33.1174C24.2397 33.9465 24.1901 33.9324 25.5236 34.2096L26.7463 34.4637L27.2512 35.4867C28.0604 37.1258 28.3852 39.3414 28.1485 41.6052C28.0196 42.839 27.882 43.0767 27.2965 43.0792C27.0708 43.08 26.9428 42.977 26.8074 42.6855C26.7059 42.4671 26.4498 42.2088 26.2339 42.1073C25.6822 41.8479 25.5828 41.5558 25.7979 40.8263C26.0353 40.0213 25.9514 39.0602 25.6052 38.62C25.2631 38.185 24.7472 37.9171 24.3847 37.9865C24.1628 38.0289 24.0402 37.9439 23.8203 37.5956C23.4375 36.989 23.1656 36.7734 22.9965 36.9426C22.9011 37.038 22.9859 37.2242 23.2974 37.6044C23.5359 37.8956 23.7706 38.2986 23.8189 38.5001C23.8672 38.7016 23.9535 38.9262 24.0106 38.9993C24.2749 39.3377 24.3739 41.051 24.2469 43.0849C24.0918 45.5686 24.0927 48.4876 24.2491 49.9954C24.312 50.6008 24.3925 51.5914 24.4284 52.1967L24.4933 53.2974L24.0569 53.781L23.6205 54.2646L23.3222 53.9429C23.1581 53.7658 22.8493 53.3006 22.6358 52.9089C22.2877 52.27 22.2474 52.0897 22.2438 51.1572C22.2403 50.2188 22.28 50.0365 22.6522 49.2835C22.9965 48.5869 23.0354 48.4309 22.888 48.3375C22.791 48.2761 21.6962 48.225 20.4554 48.2239L18.1993 48.2221L17.8267 47.8624C17.53 47.5761 17.2258 47.4555 16.3342 47.2707C15.1816 47.032 15.0117 46.9359 14.7108 46.3529C14.4805 45.9068 13.8613 45.5327 13.3437 45.527C13.1163 45.5246 12.5483 45.4487 12.0813 45.3584C10.8397 45.1182 10.7906 45.0289 10.7906 43.0169C10.7906 41.9723 10.7251 41.1304 10.6088 40.6763C10.4262 39.9646 10.3849 39.9124 9.1094 38.7793C8.85326 38.5519 8.8343 38.4349 8.8343 37.0803C8.8343 35.6529 8.82917 35.6256 8.55921 35.6263C8.40796 35.6268 8.11905 35.7173 7.91731 35.8275C7.4862 36.063 5.41086 36.221 5.41086 36.0182C5.41086 35.8404 7.01706 34.6549 8.04483 34.0742C9.56533 33.215 11.7197 32.3267 12.2882 32.3244C12.4058 32.3239 13.5612 32.9646 14.8558 33.7482C18.2928 35.8286 18.3654 35.8701 18.5598 35.8701C18.7847 35.8701 18.7861 35.5261 18.565 34.6553C18.4698 34.2809 18.3048 33.6314 18.1982 33.212C17.9725 32.3243 17.9572 32.079 18.1281 32.079C18.1962 32.079 18.6226 32.1838 19.0757 32.3119ZM39.5842 34.9228C40.7191 36.3718 42.8468 36.985 44.6002 36.3686L45.2696 36.1332V37.66C45.2696 38.4996 45.2284 39.1635 45.1779 39.1351C44.3415 38.6657 39.6896 36.5337 38.9423 36.2774C38.3876 36.087 37.9337 35.8939 37.9336 35.8483C37.9336 35.7049 38.9152 34.2798 39.0074 34.2893C39.0557 34.2944 39.3152 34.5794 39.5842 34.9228ZM29.3558 34.9252C29.8955 35.7097 30.1119 36.3064 30.297 37.5212C30.4391 38.4535 30.5154 38.6656 30.7957 38.9082C31.0489 39.1275 31.2152 39.1777 31.504 39.1218C31.8583 39.0533 31.8493 39.0682 31.3547 39.3662C30.9177 39.6295 30.8345 39.739 30.8657 40.0088C30.9158 40.4421 31.4397 40.4972 32.2415 40.1535C32.5669 40.0139 32.8544 39.9211 32.8805 39.9473C32.9066 39.9734 32.5665 40.2304 32.1246 40.5183C31.1381 41.1612 30.7998 41.5549 30.9662 41.8659C31.1212 42.1556 30.9459 42.2183 30.2075 42.1376C29.8308 42.0964 29.4629 42.1433 29.1352 42.2746C28.8609 42.3843 28.6238 42.4742 28.6084 42.4743C28.5929 42.4743 28.5988 41.5632 28.6215 40.4494C28.6596 38.5718 28.6385 38.3293 28.33 37.1167C28.1471 36.3975 27.8397 35.5123 27.6469 35.1497C27.4542 34.7871 27.2965 34.4707 27.2965 34.4465C27.2965 34.4224 27.6789 34.4026 28.1465 34.4026H28.9965L29.3558 34.9252ZM35.7515 35.1826C36.3811 35.7925 36.5433 35.8768 37.9792 36.34C38.8535 36.6222 40.6319 37.3688 42.0625 38.0544C47.0432 40.4413 49.7016 41.5317 51.9607 42.1144C53.4263 42.4924 54.2043 42.5576 54.7544 42.3484C55.2005 42.1787 55.4411 42.4101 55.9769 43.5242C56.4925 44.5966 56.8363 45.9011 56.9516 47.2235L57.0387 48.2221H53.0539H49.0691L47.9335 47.2914C47.309 46.7796 45.4876 45.0414 43.8859 43.4287C40.7308 40.2515 40.3771 39.9911 39.197 39.9754C38.4569 39.9656 38.3728 40.0296 36.9941 41.6487C36.1495 42.6406 35.7328 42.9429 35.7328 42.5637C35.7328 42.4784 35.8682 42.2094 36.0336 41.966C36.8392 40.7801 37.2544 39.9059 37.0122 39.9059C36.9763 39.9059 36.017 40.3778 34.8804 40.9544C33.4505 41.6798 32.7107 41.9906 32.4782 41.9633C32.1876 41.9291 32.3621 41.7836 33.7755 40.8816C35.299 39.9094 35.7394 39.5338 35.3456 39.5427C35.256 39.5448 34.4124 40.0401 33.4709 40.6434C31.8885 41.6573 31.3312 41.9138 31.3312 41.6281C31.3312 41.5664 32.1073 40.9781 33.0557 40.3209C34.6757 39.1982 35.0101 38.8976 34.8344 38.7219C34.7943 38.6819 34.1214 38.9345 33.3387 39.2832C31.8901 39.9289 31.2063 40.1438 31.2123 39.9518C31.2157 39.8436 36.111 37.2136 36.302 37.2175C36.3588 37.2187 36.5376 37.3591 36.6993 37.5296C36.8875 37.7281 37.0978 37.8263 37.2839 37.8027C37.6594 37.755 37.7089 37.5326 37.3553 37.4824C37.2053 37.4611 36.9741 37.3057 36.8415 37.137C36.7089 36.9684 36.3849 36.6742 36.1215 36.4835C35.5097 36.0401 35.125 35.4979 35.0369 34.9541C34.9986 34.718 34.9909 34.5249 35.0199 34.5249C35.049 34.5249 35.3781 34.8208 35.7515 35.1826ZM78.4419 35.2489C79.1942 35.4395 80.3874 35.8129 81.0935 36.0788L82.3773 36.562L82.4091 42.3921L82.4408 48.2221H81.5839H80.727L79.9015 47.5474C78.7437 46.6011 77.0405 45.7533 76.3927 45.8009C75.9605 45.8327 75.8924 45.8782 75.86 46.1572C75.8328 46.3925 75.925 46.563 76.2085 46.8016C76.6873 47.2047 76.6165 47.4334 75.9578 47.6107C75.6816 47.6851 75.364 47.8531 75.2519 47.9841C75.0593 48.2091 74.8664 48.2221 71.7202 48.2221C69.8898 48.2221 68.3624 48.2703 68.3261 48.3292C68.2897 48.3881 68.4239 48.7646 68.6243 49.1659C69.7652 51.4495 68.6251 54.1862 66.1246 55.1658L65.5221 55.402L65.0342 54.8388C63.9768 53.6182 62.9364 51.6278 62.4889 49.969C62.2726 49.1672 62.2298 48.6407 62.2177 46.6322C62.2099 45.3206 62.2498 43.8697 62.3064 43.408C62.3896 42.7287 62.3781 42.579 62.246 42.623C62.1561 42.653 62.0272 42.9482 61.9596 43.279C61.8877 43.6305 61.6529 44.1297 61.3946 44.4798C61.1516 44.8094 60.8575 45.3873 60.7412 45.7639C60.3083 47.1656 59.7808 47.7329 58.9107 47.7329C58.7673 47.7329 58.3727 47.8048 58.034 47.8927L57.4182 48.0525L57.2804 46.8192C57.1075 45.2723 56.667 43.8614 56.0374 42.8385L55.5497 42.0461L55.873 41.8015C56.0506 41.667 56.9701 40.8968 57.9159 40.0899C60.519 37.8693 61.684 37.0391 63.4139 36.1717C64.2813 35.7368 65.0267 35.381 65.0702 35.381C65.1137 35.381 65.1266 35.7388 65.0988 36.1761C64.9045 39.2271 68.792 40.6091 72.4714 38.7972C73.9703 38.0591 75.3536 36.6272 75.6897 35.4655L75.8972 34.7482L76.4857 34.8252C76.8092 34.8676 77.6895 35.0582 78.4419 35.2489ZM33.1652 39.8448C33.1652 39.8784 33.1377 39.9059 33.1041 39.9059C33.0705 39.9059 33.043 39.8784 33.043 39.8448C33.043 39.8112 33.0705 39.7836 33.1041 39.7836C33.1377 39.7836 33.1652 39.8112 33.1652 39.8448ZM40.4605 40.7413C40.9091 40.9731 41.6981 41.6931 43.1809 43.2238L45.2696 45.3799V46.801V48.2221L41.8767 48.2337C40.0107 48.2401 36.9157 48.2359 34.9992 48.2245C33.0827 48.2132 31.4183 48.2414 31.3007 48.2873C31.0096 48.4006 31.0317 48.629 31.3887 49.1947C31.6801 49.6564 32.0211 51.1757 31.8834 51.3986C31.8472 51.4573 31.6401 51.5443 31.4233 51.5918C31.2065 51.6395 30.908 51.7579 30.7598 51.855C30.498 52.0266 30.4892 52.0169 30.4523 51.5149C30.3531 50.1672 28.412 50.1162 27.1715 51.4288C26.8526 51.7661 26.3183 52.7858 26.3183 53.057C26.3183 53.2069 26.2539 53.2303 26.0432 53.1568C25.8919 53.1039 25.6263 53.0643 25.4531 53.0687C25.1673 53.0759 25.1244 53.0128 24.9942 52.3922C24.8244 51.5828 24.5962 48.983 24.5192 46.9792C24.4565 45.347 24.5467 45.0424 25.0927 45.0424C25.2881 45.0424 25.4775 44.9946 25.5137 44.9362C25.5498 44.8778 25.8534 44.7936 26.1883 44.7492C26.5233 44.7047 26.8304 44.615 26.8707 44.5497C26.9111 44.4843 27.0563 44.4309 27.1935 44.4309C27.3307 44.4309 27.6438 44.3413 27.8893 44.2318C29.3628 43.5746 30.7237 42.8807 31.2526 42.5167C31.6719 42.2283 31.8998 42.1378 31.9871 42.2252C32.274 42.5122 32.9387 42.3286 34.6179 41.4987C35.5674 41.0295 36.3442 40.6796 36.3442 40.7212C36.3442 40.7627 36.1241 41.1453 35.8551 41.5712C35.3265 42.4084 35.2595 42.7227 35.5568 42.9695C35.8915 43.2473 36.3256 42.9537 37.3722 41.7407C37.9235 41.102 38.5033 40.5151 38.6606 40.4366C39.0526 40.2411 39.707 40.3519 40.4605 40.7413ZM47.4092 47.3047C47.9472 47.7632 48.4103 48.1572 48.4383 48.1801C48.4663 48.2033 47.8748 48.2221 47.124 48.2221H45.7586V47.0374V45.8527L46.0949 46.162C46.2797 46.3321 46.8713 46.8464 47.4092 47.3047ZM22.2836 48.7773C22.2836 48.8136 22.1614 49.075 22.0121 49.3582C21.7852 49.7887 21.7401 50.0734 21.737 51.0961C21.7336 52.2262 21.763 52.3794 22.1224 53.1139C22.5138 53.9138 23.1372 54.7038 23.3771 54.7038C23.4481 54.7038 23.5066 54.9378 23.507 55.2236C23.5074 55.5094 23.5914 55.9039 23.6937 56.1001C23.869 56.4363 23.8631 56.4749 23.5913 56.7727C23.4327 56.9465 22.9272 57.6586 22.4679 58.3552C21.2164 60.2536 20.5486 60.6412 17.6986 61.1224C17.0261 61.236 16.3384 61.3758 16.1703 61.433C16.0021 61.4903 15.6746 61.5749 15.4423 61.6211C14.7058 61.7677 13.1118 62.683 12.3734 63.3836C11.3724 64.3334 10.9786 65.2157 10.9994 66.4615C11.0125 67.2431 11.0775 67.5219 11.397 68.166C11.7532 68.8841 11.7642 68.9439 11.5599 69.0543C11.4393 69.1194 10.7874 69.7145 10.1111 70.3767C9.43487 71.0389 8.8447 71.5807 8.7997 71.5807C8.69394 71.5807 8.68942 48.897 8.79518 48.7913C8.89055 48.6957 22.2836 48.6819 22.2836 48.7773ZM45.2696 54.765C45.2696 58.0945 45.2488 60.8186 45.2234 60.8186C45.1979 60.8186 44.9917 60.7432 44.7649 60.651C43.6824 60.2108 42.0354 60.3256 40.945 60.9172C40.1864 61.329 39.243 62.3838 38.7909 63.3257C37.8066 65.3771 38.1896 67.8639 39.7473 69.5345C40.4327 70.2696 40.9548 70.6081 41.8296 70.8844C42.6623 71.1473 43.6761 71.1365 44.536 70.8556L45.2084 70.636L45.2424 72.4128C45.2753 74.134 45.2673 74.1996 44.987 74.5056C44.4801 75.059 44.1728 75.5777 43.8612 76.4057C43.4375 77.5317 43.4339 79.0726 43.8523 80.1844C44.1803 81.0564 44.6164 81.7963 45.0091 82.1478C45.6182 82.6927 45.5111 82.7097 41.4793 82.7097C39.3947 82.7097 37.6891 82.6859 37.6891 82.6566C37.6891 82.6274 37.8338 82.2697 38.0108 81.8617C38.2876 81.2233 38.3773 81.1198 38.6545 81.1198C39.0431 81.1198 39.8419 80.7088 40.1609 80.3447C40.5379 79.9146 40.8624 79.1344 40.8653 78.6513C40.8687 78.0738 40.7199 77.69 40.3293 77.2684C40.1574 77.0828 40.0321 76.8966 40.0508 76.8546C40.0695 76.8127 40.1476 76.6407 40.2244 76.4726C40.4384 76.0038 41.5395 73.3061 41.7884 72.6402C41.977 72.1362 41.984 72.0325 41.8362 71.9389C41.7409 71.8785 39.7026 71.8282 37.3066 71.8271C33.5853 71.8256 32.9284 71.7985 32.7984 71.6419C32.6664 71.4828 32.7316 71.4584 33.2897 71.4584C34.9308 71.4584 35.8776 70.1829 35.495 68.4876C35.3331 67.7708 34.9228 67.1192 33.9771 66.0774C33.5802 65.6402 33.0119 64.9185 32.7144 64.4736C32.2506 63.7802 32.1727 63.5737 32.1684 63.0264C32.1647 62.5455 32.2256 62.3221 32.4156 62.1197C32.5544 61.9721 32.7978 61.6054 32.9567 61.3049C33.1972 60.8501 33.3189 60.7466 33.6839 60.6873C34.2272 60.5989 34.7114 60.2917 34.8134 59.9704C34.9448 59.5559 34.5423 58.9948 33.9294 58.7385C33.5957 58.5988 33.5639 58.2504 33.8848 58.2504C34.0116 58.2504 34.4105 58.1586 34.7712 58.0464C36.1499 57.6176 37.2 56.4443 37.2 55.3328C37.2 54.2379 36.4994 53.1231 35.6847 52.9216C35.3437 52.8372 35.3339 52.847 35.4169 53.1879C35.6313 54.0688 35.6279 54.1596 35.3668 54.4916C35.1722 54.739 34.9954 54.8261 34.6875 54.8261C34.1864 54.8261 34.0481 54.643 33.5787 53.3585C33.2344 52.4164 32.7536 51.6468 32.5088 51.646C32.4219 51.6458 32.3599 51.3271 32.3418 50.7871C32.3234 50.2407 32.2234 49.7322 32.0667 49.3878C31.9312 49.0904 31.8203 48.8165 31.8203 48.7792C31.8203 48.7419 34.8464 48.7113 38.5449 48.7113H45.2696V54.765ZM63.1982 52.7979C63.4404 53.2744 63.9633 54.0909 64.3602 54.6121L65.0817 55.5599L64.1928 55.5585C62.7444 55.5565 61.5751 55.096 60.5176 54.1115C59.8384 53.4794 59.2081 52.3088 59.208 51.6793C59.2079 51.3477 59.2621 51.2722 59.5441 51.2097C60.1648 51.0722 61.5891 50.6853 61.8978 50.5704C62.1883 50.4622 62.217 50.493 62.4805 51.1941C62.6329 51.5998 62.956 52.3215 63.1982 52.7979ZM28.777 56.7206C29.5239 57.3146 30.3469 57.578 30.893 57.3978C31.1233 57.3217 31.3751 57.183 31.4527 57.0896C31.5689 56.9494 31.6869 57.0096 32.1243 57.4321C32.4161 57.714 32.7816 58.0529 32.9365 58.1851L33.2181 58.4255L32.8554 58.4999C32.0699 58.661 31.7615 58.8966 31.7223 59.3662C31.6914 59.7341 31.749 59.8614 32.0678 60.1297C32.2782 60.3068 32.5287 60.4517 32.6245 60.4517C32.8541 60.4517 32.8487 60.483 32.4995 61.1722C32.1427 61.8764 31.156 62.7974 30.3702 63.1597C29.9121 63.3708 29.5557 63.4234 28.5191 63.4327C27.3077 63.4435 27.1859 63.421 26.3591 63.0351C25.4319 62.6026 25.2179 62.6108 25.2179 63.0789C25.2179 63.4442 25.6658 63.9797 26.4569 64.5607C26.9895 64.9516 27.0637 65.0567 27.0021 65.3314C26.7889 66.2798 26.5707 68.3355 26.6723 68.4371C26.878 68.6428 27.0277 68.4109 27.1105 67.7588C27.254 66.6273 27.2411 66.6421 27.8096 66.9613C28.0818 67.1142 28.4077 67.3704 28.534 67.5309C28.9722 68.0874 28.7578 69.3763 28.1324 69.945C27.5758 70.4512 27.2751 70.5379 26.1349 70.521C25.2599 70.5082 24.8739 70.4399 24.2501 70.1878C22.5211 69.4892 20.8027 67.9859 20.1453 66.597C19.6606 65.573 19.6921 65.5054 20.7013 65.404C21.1761 65.3563 21.5891 65.3419 21.619 65.372C21.6491 65.4021 21.5359 65.686 21.3673 66.003C21.0149 66.666 20.9812 66.9335 21.2502 66.9335C21.3715 66.9335 21.6735 66.4383 22.0895 65.5576C22.447 64.801 23.0971 63.4388 23.5342 62.5308C25.0264 59.4303 24.9844 59.5617 24.6323 59.0924C24.0916 58.3718 23.9927 57.7898 24.3552 57.4616C24.5836 57.2549 24.612 57.26 25.0732 57.5916L25.5532 57.9368L25.3244 58.4707C25.0464 59.1193 25.0403 59.2751 25.285 59.4783C25.4405 59.6073 25.5497 59.5993 25.8971 59.4336C26.4153 59.1865 26.774 58.6227 26.8811 57.8875C26.972 57.2637 27.3324 56.4706 27.5683 56.3757C27.9409 56.2259 28.2747 56.3212 28.777 56.7206ZM28.2983 57.6393C27.5963 57.8023 27.339 58.4212 27.7577 58.9404C28.2976 59.61 29.6882 59.8246 30.3649 59.3428C31.4254 58.5875 29.8408 57.2812 28.2983 57.6393ZM28.7215 58.2295C28.6102 58.3525 28.5191 58.5451 28.5191 58.6575C28.5191 58.885 28.4996 58.8937 28.2235 58.7877C27.7852 58.6194 28.0993 58.0058 28.6237 58.0058C28.9067 58.0058 28.9123 58.0185 28.7215 58.2295ZM30.1895 58.8925C30.1557 58.9766 30.1279 58.9077 30.1279 58.7396C30.1279 58.5714 30.1557 58.5027 30.1895 58.5867C30.2235 58.6709 30.2235 58.8084 30.1895 58.8925ZM32.6762 59.2288C32.5417 59.3633 32.4316 59.5592 32.4316 59.664C32.4316 59.7688 32.3766 59.8207 32.3094 59.7791C31.9911 59.5823 32.2855 58.9842 32.7006 58.9842C32.9044 58.9842 32.9026 59.0023 32.6762 59.2288ZM31.0079 59.5366C30.9687 59.6386 30.9704 59.8587 31.0118 60.0258C31.053 60.1928 31.1206 60.467 31.1622 60.6352C31.2246 60.8887 31.1933 60.9409 30.9788 60.9409C30.7987 60.9409 30.7199 61.0178 30.7199 61.1936C30.7199 61.3953 30.7855 61.4385 31.0438 61.4076C31.5214 61.3506 31.6205 61.0931 31.5215 60.1673C31.458 59.5755 31.3853 59.3511 31.2565 59.3511C31.159 59.3511 31.047 59.4346 31.0079 59.5366ZM34.3264 59.5946C34.4098 59.8571 34.3214 60.0849 34.1362 60.0849C34.0728 60.0849 34.0211 59.9198 34.0211 59.718C34.0211 59.3028 34.2096 59.2266 34.3264 59.5946ZM64.4047 61.6736C64.3008 61.8749 64.1437 62.3564 64.0557 62.7437L63.8958 63.448L57.4559 63.4797L51.0161 63.5114V62.4912C51.0161 61.9299 51.0528 61.4341 51.0976 61.3894C51.1424 61.3445 54.1974 61.3078 57.8864 61.3078H64.5938L64.4047 61.6736ZM87.5615 78.3376C87.5508 93.494 87.5297 95.3068 87.3698 94.817C87.1843 94.2485 86.6049 92.2761 86.0586 90.3532C85.8866 89.7479 85.6617 88.9774 85.5589 88.6411C85.4561 88.3048 85.23 87.5343 85.0565 86.9289C84.883 86.3236 84.5532 85.1816 84.3234 84.3913C84.0937 83.601 83.7176 82.3076 83.4878 81.5173C83.2581 80.727 82.9295 79.585 82.7574 78.9797C82.5854 78.3743 82.3605 77.6038 82.2577 77.2675C82.1549 76.9312 81.9353 76.1748 81.7696 75.5867C80.9771 72.771 80.1012 71.4478 78.5871 70.7785C77.6309 70.3558 75.1997 70.541 73.6023 71.1581C73.3487 71.256 73.0677 71.3361 72.9777 71.3361C72.7975 71.3361 71.6401 68.3182 71.7514 68.1383C71.788 68.079 71.9935 67.9571 72.2078 67.8675C72.6273 67.6922 73.6517 66.6875 73.9899 66.1198C74.6643 64.9876 74.8221 63.3274 74.369 62.1347C74.2345 61.7807 74.1245 61.45 74.1245 61.3995C74.1244 61.349 77.1504 61.3078 80.849 61.3078H87.5736L87.5615 78.3376ZM28.2142 61.6736C28.0736 61.9012 30.0818 62.5763 30.3697 62.3982C30.6204 62.2433 30.3874 62.0815 29.5097 61.801C28.6452 61.5248 28.3256 61.4933 28.2142 61.6736ZM68.4016 67.7549C68.5925 71.4219 68.6868 74.2929 68.6176 74.3354C68.5332 74.3874 68.2213 74.1039 64.5845 70.6695C62.8035 68.9874 62.6371 68.8436 62.5608 68.9199C62.5201 68.9608 62.2188 69.7757 61.8914 70.731C61.564 71.6864 61.2797 72.4844 61.2596 72.5043C61.2396 72.5244 60.7285 72.1573 60.1238 71.6888C59.5192 71.2202 58.887 70.7447 58.7188 70.6322C58.5507 70.5197 58.1964 70.2463 57.9313 70.0246C57.6664 69.803 57.4117 69.6635 57.3655 69.7146C57.2759 69.8135 56.9439 70.8987 56.5139 72.4979C56.3692 73.036 56.1702 73.7515 56.0715 74.0878C55.9729 74.4241 55.831 74.9072 55.7565 75.1612C55.6819 75.4152 55.5771 75.6078 55.5235 75.5892C55.3244 75.5199 52.8463 73.0113 52.9119 72.9455C52.9496 72.908 53.554 73.4491 54.255 74.1479C55.1106 75.0007 55.549 75.3607 55.5882 75.2424C55.7041 74.8932 56.9155 70.4069 57.0311 69.8991C57.1592 69.3355 57.319 69.261 57.687 69.5934C57.8175 69.7112 58.3643 70.1364 58.9022 70.5384C59.4402 70.9404 60.1449 71.4847 60.4682 71.7481C60.8502 72.0591 61.0979 72.1851 61.1753 72.1077C61.2409 72.042 61.5601 71.2003 61.8847 70.237L62.4747 68.4856L63.3173 69.2601C63.7805 69.6861 64.7417 70.5889 65.453 71.2663C66.1643 71.9437 67.1152 72.8492 67.5662 73.2786C68.0172 73.7078 68.415 74.0303 68.4502 73.995C68.5078 73.9375 68.3912 70.8938 68.1775 66.8723C68.1345 66.0651 68.1419 65.4442 68.1938 65.4924C68.2457 65.5406 68.3392 66.5587 68.4016 67.7549ZM19.4777 66.1079C20.054 67.8943 22.0947 69.8852 24.0564 70.575C25.5992 71.1173 26.6222 71.211 27.4469 70.8853C28.6061 70.4277 29.1305 69.7316 29.1305 68.6505C29.1305 68.3115 29.1781 68.0341 29.2365 68.0341C29.587 68.0341 32.4768 71.5763 32.2838 71.7694C32.2546 71.7987 31.6018 71.8472 30.8334 71.8774C30.0649 71.9075 29.3993 71.9356 29.3542 71.9399C29.3092 71.9442 29.1797 72.2267 29.0664 72.5678C28.9532 72.909 28.7857 73.2167 28.6943 73.2518C28.4725 73.3369 26.9604 72.9518 26.6069 72.7202C26.306 72.5228 26.0846 72.5387 24.3091 72.8845C22.6935 73.1993 22.0974 73.7174 21.2438 75.5477C20.492 77.1599 19.638 78.37 18.4947 79.443C16.7996 81.034 15.1315 81.5672 14.3368 80.7723C13.9236 80.359 13.693 79.601 13.8058 79.0267C14.014 77.9661 14.9168 76.7876 16.0139 76.1446C16.5626 75.8229 16.6577 75.6551 16.3567 75.5396C15.9754 75.3932 14.4816 76.5671 13.9025 77.4684C13.5401 78.0323 13.1992 79.3293 13.2968 79.7734C13.3592 80.0578 13.2718 80.226 12.7533 80.8185C12.1966 81.4549 12.1355 81.5824 12.1355 82.1064C12.1355 82.6022 12.1895 82.7334 12.5017 82.9961C12.703 83.1656 12.9796 83.3398 13.1163 83.3832C13.4979 83.5044 14.352 83.018 14.75 82.453C15.1165 81.9329 15.7208 81.488 16.0622 81.4872C16.1708 81.487 16.6524 81.2902 17.1324 81.05C18.064 80.5838 19.6467 79.1432 20.2819 78.1828L20.617 77.6765L20.9918 78.1046C21.3765 78.5443 21.9984 78.9185 22.3442 78.9185C22.5023 78.9185 22.5239 79.0053 22.4589 79.3771C22.2595 80.5158 21.5171 82.4848 20.9488 83.3823C19.9367 84.9807 18.4352 86.2106 16.709 86.8553C14.8881 87.5353 12.7878 87.7693 11.5789 87.427C9.6876 86.8914 8.44073 85.9563 7.28336 84.2055C6.6543 83.2539 6.3166 82.2549 6.1354 80.8098C5.50353 75.7693 9.74812 69.7952 16.2314 66.6006C17.2368 66.1051 18.5112 65.6732 19.1768 65.6024C19.25 65.5946 19.3855 65.8221 19.4777 66.1079ZM78.7313 71.3468C79.7935 71.8611 80.6155 73.1487 81.2227 75.2496C81.4075 75.8886 81.7607 77.0993 82.0078 77.9401C82.4448 79.4276 82.6628 80.1834 83.3486 82.5874C83.5309 83.2264 83.8731 84.4096 84.1092 85.2168C84.3452 86.0239 84.5682 86.7944 84.6046 86.9289C84.7139 87.3321 85.2266 89.1119 85.9432 91.5762C86.6043 93.8496 86.9623 95.1406 86.9623 95.2511C86.9623 95.2814 85.5054 95.3062 83.7246 95.3062H80.4868L80.4313 95.0311C80.4007 94.8798 80.3416 94.5358 80.2999 94.2667C80.2581 93.9977 80.1474 93.2822 80.0538 92.6769C79.9601 92.0715 79.7683 90.8332 79.6273 89.9252C79.4865 89.0171 79.2934 87.7514 79.1984 87.1124C79.1034 86.4734 78.9103 85.2076 78.7695 84.2996C78.3951 81.8879 78.205 80.65 77.9206 78.7753C77.6531 77.0118 77.5534 74.6839 77.721 74.1184C77.8014 73.8476 77.7817 73.7821 77.6202 73.7821C77.2899 73.7821 77.1575 74.3811 77.201 75.6777C77.2354 76.6987 77.2121 76.9006 77.0597 76.9006C76.7659 76.9006 76.4277 76.009 76.2558 74.7813C76.0148 73.0605 75.6353 72.6892 74.5436 73.1062C73.8846 73.3579 73.5986 73.6313 71.8822 75.6488C70.8698 76.839 70.4883 77.2064 70.2653 77.2064C70.0128 77.2064 69.9875 77.1691 70.0783 76.9302C70.136 76.7783 70.3619 76.3519 70.5801 75.9824C70.7985 75.613 71.2918 74.6504 71.6765 73.8432C72.0611 73.036 72.4805 72.2865 72.6082 72.1777C72.9825 71.8586 74.4779 71.3169 75.4693 71.1413C76.6646 70.9296 78.0501 71.0169 78.7313 71.3468ZM41.3571 72.4489C41.3571 72.5228 41.2791 72.7567 41.1836 72.9687C40.8242 73.7671 39.8899 76.0548 39.8899 76.1364C39.8899 76.1831 39.7458 76.5255 39.5699 76.8973C39.2613 77.549 39.2327 77.5732 38.7665 77.5732C38.3823 77.5732 38.1658 77.4746 37.711 77.0919C37.3964 76.8271 36.9803 76.5506 36.7865 76.4772C36.3752 76.3218 35.9774 76.4138 35.9774 76.6642C35.9774 76.7606 35.874 76.8395 35.7477 76.8395C35.3473 76.8395 35.2337 77.1142 35.4942 77.4532C35.7743 77.8177 35.7908 77.9401 35.5596 77.9401C35.2507 77.9401 35.2775 78.2335 35.6312 78.7219C35.8216 78.9848 35.9774 79.2422 35.9774 79.2941C35.9774 79.3458 35.8161 79.4237 35.619 79.467C34.7245 79.6635 34.9151 80.2586 35.9704 80.5641C36.344 80.6724 36.8188 80.8142 37.0253 80.8793C37.2318 80.9444 37.4932 80.9976 37.6061 80.9976C37.8728 80.9976 37.8649 81.1342 37.558 81.8298C37.0747 82.9251 36.9853 83.1408 36.7634 83.7492C36.6406 84.0855 36.4499 84.5258 36.3395 84.7276L36.1389 85.0945L30.3421 85.0478C27.154 85.022 24.5225 84.9806 24.4944 84.9558C24.4663 84.931 24.504 84.7869 24.5783 84.6356C24.7061 84.3753 25.1107 83.3937 26.3924 80.2342C26.6997 79.4769 26.9992 78.7473 27.0583 78.6128C27.1174 78.4782 27.3629 77.8729 27.604 77.2675C27.845 76.6621 28.0914 76.0568 28.1517 75.9222C28.3656 75.4447 28.7273 74.5709 28.8859 74.1489C28.9744 73.9135 29.14 73.5008 29.2541 73.2317C29.368 72.9627 29.4951 72.6462 29.5365 72.5285C29.6068 72.3287 30.0017 72.3145 35.4845 72.3145C39.6703 72.3145 41.3571 72.3531 41.3571 72.4489ZM25.2384 73.3846C25.2607 73.4351 25.5404 73.6864 25.8598 73.9431C26.1793 74.1998 26.4406 74.4915 26.4406 74.5912C26.4406 74.8407 25.5053 75.2436 24.9184 75.2469C24.3662 75.25 24.455 75.0471 25.0334 74.9839C25.5692 74.9253 25.5841 74.57 25.0601 74.351C24.3051 74.0355 23.873 73.982 23.873 74.2042C23.873 74.3126 23.9556 74.4329 24.0564 74.4716C24.3131 74.5701 24.2848 74.7202 23.9953 74.7959C23.6569 74.8844 23.6894 75.0942 24.1013 75.479L24.4518 75.8066L23.8365 76.4759C23.4982 76.844 23.0905 77.4409 22.9306 77.8024C22.6441 78.4504 22.6339 78.4587 22.2021 78.3886C21.7032 78.3076 21.3811 78.056 21.1288 77.55C20.9692 77.2302 20.979 77.1489 21.24 76.622C21.3974 76.3044 21.7021 75.6709 21.9173 75.2143C22.3438 74.309 22.827 73.8378 23.6549 73.5195C24.2024 73.3089 25.1682 73.2266 25.2384 73.3846ZM49.629 74.577C50.3964 76.5793 50.9044 77.995 51.0237 78.4641C51.3188 79.624 51.6614 79.7746 54.0067 79.7746C55.0314 79.7746 55.7699 79.8215 55.7311 79.8842C55.694 79.9445 55.7631 80.1166 55.8847 80.267C56.1332 80.5739 56.8623 80.734 58.0648 80.7456C59.0173 80.7549 61.3691 81.1648 62.3171 81.487C63.7431 81.9714 63.8075 82.0914 65.5369 87.4793C65.8715 88.5218 66.2673 89.7876 66.4165 90.2921C66.5656 90.7966 66.7608 91.4294 66.8499 91.6985C66.9391 91.9675 67.1338 92.6004 67.2825 93.1049C67.4311 93.6094 67.6284 94.2579 67.7208 94.5462C67.8132 94.8344 67.8888 95.1236 67.8888 95.1891C67.8888 95.2651 64.8651 95.2966 59.483 95.2765L51.0772 95.2451L51.0455 89.013C51.0268 85.3469 50.9667 82.7337 50.8992 82.6662C50.828 82.595 50.5531 82.6514 50.1721 82.8152C49.8352 82.9602 49.1582 83.1116 48.6678 83.1516C47.6161 83.2374 46.7453 82.9696 45.8483 82.2843C44.7773 81.4664 43.9246 79.7035 43.9246 78.307C43.9246 77.4623 44.3142 76.2361 44.8288 75.4605C45.7254 74.1094 47.0191 73.3999 48.4915 73.4512L49.2071 73.4763L49.629 74.577ZM75.5946 73.7289C75.7698 74.1899 75.7428 74.6381 75.5398 74.6381C75.3129 74.6381 74.6134 74.0482 74.6134 73.8568C74.6134 73.3571 75.4135 73.2526 75.5946 73.7289ZM27.398 74.0882C27.3603 74.1258 27.233 74.0035 27.1149 73.8164L26.9002 73.4763L27.1833 73.7481C27.3389 73.8975 27.4355 74.0506 27.398 74.0882ZM28.5013 73.7308C28.5251 73.7506 28.5251 73.8159 28.5013 73.8761C28.4455 74.0171 27.6633 73.8147 27.6633 73.6593C27.6633 73.5612 28.3696 73.6215 28.5013 73.7308ZM26.6851 73.9655C26.6851 73.9991 26.6576 74.0266 26.624 74.0266C26.5904 74.0266 26.5629 73.9991 26.5629 73.9655C26.5629 73.9319 26.5904 73.9044 26.624 73.9044C26.6576 73.9044 26.6851 73.9319 26.6851 73.9655ZM74.9632 74.7938L75.5304 75.1203L74.9802 75.1211C74.6776 75.1216 74.1896 75.0128 73.8958 74.8795C73.4192 74.6632 73.3791 74.614 73.523 74.4236C73.8931 73.9339 74.0418 73.8832 74.2244 74.1843C74.3188 74.3399 74.6513 74.6142 74.9632 74.7938ZM28.1941 74.4853C28.2252 74.5358 27.9764 75.2374 27.6414 76.0445C27.3063 76.8517 26.7693 78.145 26.4478 78.9185C25.9716 80.0647 25.7924 80.3666 25.4789 80.5506C24.9852 80.8404 23.8395 80.943 23.1578 80.7586C22.6892 80.6318 22.6363 80.5828 22.712 80.3475C22.7593 80.2005 22.8662 79.7226 22.9494 79.2854C23.2791 77.5563 24.2527 76.2928 25.8542 75.5161C26.8242 75.0456 27.59 74.6043 27.6428 74.4853C27.6653 74.4348 27.7859 74.3935 27.9107 74.3935C28.0357 74.3935 28.1632 74.4348 28.1941 74.4853ZM76.0328 75.9504C76.0799 76.2012 76.2197 76.5727 76.3436 76.7759C76.4675 76.979 76.5689 77.1864 76.5692 77.2369C76.5694 77.2874 76.2365 77.3287 75.8292 77.3287H75.0888L74.86 76.8089C74.7342 76.5231 74.5946 76.141 74.5498 75.96C74.4707 75.6408 74.4861 75.6295 75.0604 75.5846C75.3861 75.5592 75.7189 75.5283 75.8 75.5162C75.881 75.5041 75.9857 75.6994 76.0328 75.9504ZM36.711 76.9006C36.711 76.9342 36.6834 76.9618 36.6498 76.9618C36.6162 76.9618 36.5887 76.9342 36.5887 76.9006C36.5887 76.867 36.6162 76.8395 36.6498 76.8395C36.6834 76.8395 36.711 76.867 36.711 76.9006ZM37.4899 77.5208L37.9139 77.9574L39.0843 77.9182L40.2547 77.879L40.3715 78.2149C40.5307 78.6729 40.2338 79.6419 39.802 80.0737C39.6188 80.257 39.449 80.3472 39.4246 80.2742C39.4003 80.2012 39.185 80.1415 38.9462 80.1415C38.1618 80.1415 36.9617 79.8619 36.7523 79.6304C36.4602 79.3075 36.6298 79.2272 37.1644 79.4351C38.3974 79.9146 39.7676 79.9955 39.7676 79.5888C39.7676 79.4583 39.6222 79.4057 39.248 79.4006C38.9622 79.3968 38.3482 79.2944 37.8836 79.1734C37.0078 78.9452 36.9467 78.8943 36.3462 77.8951L36.0618 77.4221L36.3279 77.5646C36.4742 77.6428 36.7158 77.8931 36.865 78.1205C37.191 78.618 37.6092 78.8305 38.6774 79.0412C39.5539 79.214 40.1344 79.1399 40.1344 78.855C40.1344 78.7214 39.9872 78.6739 39.5725 78.6739C38.9932 78.6739 37.7391 78.3665 37.4831 78.1616C37.2657 77.9877 36.8199 77.0841 36.9516 77.0841C37.0145 77.0841 37.2567 77.2806 37.4899 77.5208ZM57.1294 78.1847C57.0706 78.3896 57.0706 78.7137 57.1294 78.9185L57.2345 79.2854H54.7446C53.3751 79.2854 52.1135 79.2317 51.941 79.1662C51.6799 79.0669 51.6274 78.9687 51.6274 78.5791C51.6274 78.3218 51.6934 78.0453 51.7741 77.9646C51.8793 77.8594 52.6742 77.8178 54.5777 77.8178H57.2345L57.1294 78.1847ZM77.3591 78.2765C77.4049 78.5287 77.472 78.8589 77.5083 79.0102L77.5743 79.2854H67.807C59.1646 79.2854 58.0083 79.2635 57.768 79.095C57.4652 78.8829 57.4134 78.4363 57.6479 78.0607C57.7971 77.8218 57.9541 77.8178 67.5378 77.8178H77.276L77.3591 78.2765ZM36.3442 78.7351C36.3442 78.7687 36.3166 78.7962 36.283 78.7962C36.2494 78.7962 36.2219 78.7687 36.2219 78.7351C36.2219 78.7014 36.2494 78.6739 36.283 78.6739C36.3166 78.6739 36.3442 78.7014 36.3442 78.7351ZM61.8921 80.2756C62.4426 80.5512 62.9234 80.7462 62.9606 80.7089C63.105 80.5645 62.8681 80.2652 62.4235 80.0307L61.9589 79.7853L64.4305 79.78L66.9021 79.7746L67.3085 80.1314C67.532 80.3277 67.9145 80.8918 68.1586 81.385C68.6264 82.3302 69.4782 84.1719 69.4782 84.238C69.4782 84.2594 69.7181 84.7911 70.0113 85.4195C70.3044 86.0479 70.7244 86.9748 70.9446 87.4793C71.1648 87.9837 71.5851 88.9089 71.8787 89.5351C72.1724 90.1613 72.4126 90.6928 72.4126 90.7162C72.4126 90.7396 72.6622 91.2927 72.9671 91.9455C73.272 92.5982 73.6622 93.4702 73.8342 93.8829C74.0062 94.2958 74.197 94.686 74.258 94.7498C74.319 94.8136 74.3689 94.965 74.3689 95.0861C74.3689 95.2921 74.1773 95.3062 71.3979 95.3062H68.427L68.2916 94.9088C68.2172 94.6901 68.0362 94.0986 67.8895 93.5941C67.7427 93.0896 67.5484 92.4567 67.4577 92.1877C67.367 91.9186 67.1733 91.2857 67.0273 90.7813C66.8813 90.2768 66.608 89.3963 66.42 88.8245C66.232 88.2528 65.8777 87.1246 65.6327 86.3174C64.5309 82.6873 64.0005 81.6982 62.9042 81.2281C62.1861 80.9201 60.561 80.5403 59.5747 80.4498C58.1069 80.3151 56.5808 80.1281 56.3958 80.0603C55.9417 79.8936 56.8281 79.7912 58.7964 79.7831L60.8913 79.7746L61.8921 80.2756ZM77.7728 80.7835C77.9422 81.9447 78.1523 83.3042 78.5241 85.6448C78.8059 87.4197 79.041 88.9336 79.3218 90.7813C79.419 91.4203 79.6085 92.6585 79.743 93.5329C79.8776 94.4074 79.989 95.164 79.9904 95.2145C79.9919 95.265 78.8701 95.3062 77.4975 95.3062H75.002L74.757 94.7865C74.6221 94.5007 74.3375 93.8815 74.1244 93.4106C73.9112 92.9398 73.6365 92.3344 73.5138 92.0654C73.3909 91.7963 73.1539 91.2735 72.987 90.9036C72.8203 90.5336 72.4851 89.7995 72.2424 89.2723C71.9999 88.7449 71.8013 88.2952 71.8013 88.2727C71.8013 88.2503 71.5262 87.6456 71.19 86.9289C70.8537 86.2123 70.5786 85.6069 70.5786 85.5837C70.5786 85.5604 70.3035 84.9551 69.9673 84.2384C69.6311 83.5218 69.356 82.9154 69.356 82.8911C69.356 82.6973 68.2079 80.4703 67.9499 80.1637L67.6225 79.7746H72.624H77.6256L77.7728 80.7835ZM36.5887 80.1245C36.5887 80.1824 36.4511 80.2036 36.283 80.1714C36.1149 80.1393 35.9774 80.0918 35.9774 80.066C35.9774 80.0403 36.1149 80.0192 36.283 80.0192C36.4511 80.0192 36.5887 80.0666 36.5887 80.1245ZM37.5974 80.467C37.5134 80.501 37.3758 80.501 37.2917 80.467C37.2077 80.4332 37.2764 80.4054 37.4445 80.4054C37.6127 80.4054 37.6815 80.4332 37.5974 80.467ZM90.6303 95.4285C90.6303 95.5182 90.6669 95.5549 90.7118 95.5101C90.7566 95.4652 90.7566 95.3918 90.7118 95.347C90.6669 95.3022 90.6303 95.3389 90.6303 95.4285Z" fill="white"/>
</svg>
