<svg width="22" height="22" viewBox="0 0 22 22" fill="none" xmlns="http://www.w3.org/2000/svg">
<path d="M10.5769 21.7585C16.3759 21.7585 21.0769 17.0575 21.0769 11.2585C21.0769 5.45955 16.3759 0.758545 10.5769 0.758545C4.77791 0.758545 0.0769043 5.45955 0.0769043 11.2585C0.0769043 17.0575 4.77791 21.7585 10.5769 21.7585Z" fill="#EF0027"/>
<path d="M14.4698 7.264L4.99878 5.521L9.983 18.0632L16.9281 9.60156L14.4698 7.264ZM14.3175 8.03181L15.7665 9.40928L11.8041 10.1266L14.3175 8.03181ZM10.9431 9.98284L6.76672 6.51915L13.593 7.77522L10.9431 9.98284ZM10.6458 10.5958L9.96462 16.2264L6.2929 6.98443L10.6458 10.5958ZM11.2758 10.8944L15.6642 10.1003L10.6307 16.2317L11.2758 10.8944Z" fill="white"/>
</svg>
