<svg width="22" height="22" viewBox="0 0 22 22" fill="none" xmlns="http://www.w3.org/2000/svg">
<g clip-path="url(#clip0_9_778)">
<path d="M11.064 21.7585C16.863 21.7585 21.564 17.0575 21.564 11.2585C21.564 5.45955 16.863 0.758545 11.064 0.758545C5.26497 0.758545 0.563965 5.45955 0.563965 11.2585C0.563965 17.0575 5.26497 21.7585 11.064 21.7585Z" fill="#21ED0E"/>
<path d="M14.9568 7.264L5.48584 5.521L10.4701 18.0632L17.4152 9.60156L14.9568 7.264ZM14.8046 8.03181L16.2536 9.40928L12.2912 10.1266L14.8046 8.03181ZM11.4302 9.98284L7.25378 6.51915L14.0801 7.77522L11.4302 9.98284ZM11.1329 10.5958L10.4517 16.2264L6.77996 6.98443L11.1329 10.5958ZM11.7629 10.8944L16.1512 10.1003L11.1178 16.2317L11.7629 10.8944Z" fill="white"/>
</g>
<defs>
<clipPath id="clip0_9_778">
<rect width="21" height="21" fill="white" transform="translate(0.563965 0.758545)"/>
</clipPath>
</defs>
</svg>
