<svg width="22" height="22" viewBox="0 0 22 22" fill="none" xmlns="http://www.w3.org/2000/svg">
<g clip-path="url(#clip0_8_385)">
<path d="M10.5769 0.758545C16.3756 0.758545 21.0769 5.45981 21.0769 11.2585C21.0769 17.0573 16.3754 21.7585 10.5769 21.7585C4.77838 21.7585 0.0769043 17.0585 0.0769043 11.2585C0.0769043 5.45855 4.77754 0.758545 10.5769 0.758545Z" fill="#53AE94"/>
<path d="M11.8728 9.85951V8.29753H15.4447V5.9176H5.71836V8.29753H9.29067V9.85825C6.38742 9.9916 4.20447 10.5666 4.20447 11.2554C4.20447 11.9442 6.38847 12.5192 9.29067 12.6534V17.6566H11.8737V12.6529C14.7717 12.5192 16.9502 11.9446 16.9502 11.2564C16.9502 10.5683 14.7717 9.9937 11.8737 9.85993M11.8737 12.2292V12.2279C11.8008 12.2325 11.4264 12.255 10.5927 12.255C9.92613 12.255 9.4572 12.2361 9.29193 12.2275V12.2296C6.72699 12.116 4.81242 11.6693 4.81242 11.1348C4.81242 10.6004 6.7272 10.1544 9.29193 10.0405V11.7846C9.45993 11.7961 9.94041 11.8245 10.6036 11.8245C11.4001 11.8245 11.8006 11.7913 11.8741 11.7846V10.0405C14.434 10.1546 16.3441 10.6017 16.3441 11.1342C16.3441 11.6668 14.4331 12.1141 11.8741 12.2281" fill="white"/>
</g>
<defs>
<clipPath id="clip0_8_385">
<rect width="21" height="21" fill="white" transform="translate(0.0769043 0.758545)"/>
</clipPath>
</defs>
</svg>
