<svg width="101" height="35" viewBox="0 0 101 35" fill="none" xmlns="http://www.w3.org/2000/svg">
<g clip-path="url(#clip0_9_474)">
<path d="M33.6114 17.9638C33.6114 9.22853 26.5301 2.14722 17.7948 2.14722C9.05958 2.14722 1.97827 9.22853 1.97827 17.9638C1.97827 26.699 9.05958 33.7803 17.7948 33.7803C26.5301 33.7803 33.6114 26.699 33.6114 17.9638Z" fill="url(#paint0_linear_9_474)"/>
<path d="M33.6114 17.9638C33.6114 9.22853 26.5301 2.14722 17.7948 2.14722C9.05958 2.14722 1.97827 9.22853 1.97827 17.9638C1.97827 26.699 9.05958 33.7803 17.7948 33.7803C26.5301 33.7803 33.6114 26.699 33.6114 17.9638Z" stroke="#1F1F1F" stroke-width="2.43331"/>
<mask id="mask0_9_474" style="mask-type:luminance" maskUnits="userSpaceOnUse" x="8" y="8" width="20" height="20">
<path d="M27.528 8.23071H8.06152V27.6972H27.528V8.23071Z" fill="white"/>
</mask>
<g mask="url(#mask0_9_474)">
<path d="M27.4432 13.6486L19.1802 8.23071V11.2598L24.481 14.7044L23.8574 16.6777H19.1802V19.1876H23.8574L24.481 21.1609L19.1802 24.6053V27.6346L27.4432 22.2341L26.092 17.9413L27.4432 13.6486Z" fill="white"/>
<path d="M11.9926 19.1876H16.6524V16.6777H11.9753L11.369 14.7044L16.6524 11.2598V8.23071L8.3894 13.6486L9.7406 17.9413L8.3894 22.2341L16.6698 27.6346V24.6053L11.369 21.1609L11.9926 19.1876Z" fill="white"/>
</g>
</g>
<g clip-path="url(#clip1_9_474)">
<mask id="mask1_9_474" style="mask-type:luminance" maskUnits="userSpaceOnUse" x="25" y="3" width="30" height="30">
<path d="M54.2945 17.9639C54.2945 9.90061 47.7579 3.36401 39.6946 3.36401C31.6313 3.36401 25.0947 9.90061 25.0947 17.9639C25.0947 26.0272 31.6313 32.5638 39.6946 32.5638C47.7579 32.5638 54.2945 26.0272 54.2945 17.9639Z" fill="white"/>
</mask>
<g mask="url(#mask1_9_474)">
<path d="M54.2945 17.9639C54.2945 9.90061 47.7579 3.36401 39.6946 3.36401C31.6313 3.36401 25.0947 9.90061 25.0947 17.9639C25.0947 26.0272 31.6313 32.5638 39.6946 32.5638C47.7579 32.5638 54.2945 26.0272 54.2945 17.9639Z" fill="#145DCD"/>
<path fill-rule="evenodd" clip-rule="evenodd" d="M32.7119 10.0721C32.83 9.94298 32.9805 9.84772 33.1478 9.79621C33.315 9.74469 33.493 9.7388 33.6633 9.77913L54.1793 14.8016C54.3034 14.8288 54.4199 14.8829 54.5205 14.9603L58.6951 18.0058C58.8979 18.1554 59.0352 18.3774 59.0783 18.6256C59.1213 18.8739 59.0668 19.1292 58.9261 19.3382L44.5651 40.3506C44.4643 40.4996 44.324 40.6178 44.1598 40.6917C43.9958 40.7657 43.8143 40.7925 43.6358 40.7692C43.4573 40.746 43.289 40.6736 43.1493 40.5601C43.0095 40.4466 42.9043 40.2964 42.8449 40.1265L32.5154 11.0494C32.4581 10.8842 32.446 10.7067 32.4802 10.5352C32.5144 10.3637 32.5938 10.2044 32.7102 10.0739M36.0954 15.3187L43.2655 35.5055L44.4444 25.045L36.0954 15.3187ZM46.3646 25.3811L45.1666 36.0244L55.3065 21.1842L46.3646 25.3811ZM56.2218 18.6073L49.6876 21.6754L54.0655 17.0372L56.2218 18.6073ZM52.0921 16.2927L36.1435 12.3904L45.4942 23.28L52.0921 16.2927Z" fill="white"/>
</g>
<path d="M55.5111 17.9638C55.5111 9.22853 48.4298 2.14722 39.6946 2.14722C30.9594 2.14722 23.8781 9.22853 23.8781 17.9638C23.8781 26.699 30.9594 33.7803 39.6946 33.7803C48.4298 33.7803 55.5111 26.699 55.5111 17.9638Z" stroke="#1F1F1F" stroke-width="2.43331"/>
</g>
<g clip-path="url(#clip2_9_474)">
<path d="M77.411 17.9638C77.411 9.22853 70.3297 2.14722 61.5945 2.14722C52.8593 2.14722 45.778 9.22853 45.778 17.9638C45.778 26.699 52.8593 33.7803 61.5945 33.7803C70.3297 33.7803 77.411 26.699 77.411 17.9638Z" fill="#48FF91"/>
<path d="M77.411 17.9638C77.411 9.22853 70.3297 2.14722 61.5945 2.14722C52.8593 2.14722 45.778 9.22853 45.778 17.9638C45.778 26.699 52.8593 33.7803 61.5945 33.7803C70.3297 33.7803 77.411 26.699 77.411 17.9638Z" stroke="#1F1F1F" stroke-width="2.43331"/>
<path d="M53.0779 11.6136L61.5946 8.84546V28.0085C55.5111 25.4531 53.0779 20.556 53.0779 17.7884V11.6136Z" fill="#0500FF"/>
<path d="M70.1112 11.6136L61.5945 8.84546V28.0085C67.6779 25.4531 70.1112 20.556 70.1112 17.7884V11.6136Z" fill="url(#paint1_linear_9_474)"/>
</g>
<g clip-path="url(#clip3_9_474)">
<path d="M99.3108 17.9638C99.3108 9.22853 92.2295 2.14722 83.4943 2.14722C74.759 2.14722 67.6777 9.22853 67.6777 17.9638C67.6777 26.699 74.759 33.7803 83.4943 33.7803C92.2295 33.7803 99.3108 26.699 99.3108 17.9638Z" fill="#491FE7"/>
<path d="M99.3108 17.9638C99.3108 9.22853 92.2295 2.14722 83.4943 2.14722C74.759 2.14722 67.6777 9.22853 67.6777 17.9638C67.6777 26.699 74.759 33.7803 83.4943 33.7803C92.2295 33.7803 99.3108 26.699 99.3108 17.9638Z" stroke="#1F1F1F" stroke-width="2.43331"/>
<path fill-rule="evenodd" clip-rule="evenodd" d="M78.3979 12.6511C76.6304 14.4132 75.1184 16.0234 75.0376 16.229C74.8154 16.7958 75.1462 17.2723 77.1398 19.2589L78.9278 21.0405V17.6141C78.9278 14.4831 78.9544 14.1546 79.2363 13.8047C79.5446 13.422 79.5489 13.4217 83.8091 13.3737L88.0734 13.3258L89.9991 11.3865L91.9251 9.44727H86.7682H81.6112L78.3979 12.6511ZM87.9358 18.5327L87.8921 22.1722L87.4883 22.3773C87.1953 22.5262 85.9758 22.5832 83.044 22.5847L79.0036 22.5872L77.0703 24.5338L75.1371 26.4805H80.1093C84.0976 26.4805 85.1679 26.4347 85.5178 26.2497C85.7576 26.1227 87.3168 24.64 88.9824 22.955C91.5414 20.3662 92.0109 19.8167 92.0109 19.4117C92.0109 19.0142 91.6667 18.5874 89.9951 16.9127L87.9792 14.8929L87.9358 18.5327Z" fill="white"/>
</g>
<defs>
<linearGradient id="paint0_linear_9_474" x1="22.9487" y1="34.5711" x2="19.2334" y2="-1.47587" gradientUnits="userSpaceOnUse">
<stop stop-color="#0B46F9"/>
<stop offset="1" stop-color="#46B888"/>
</linearGradient>
<linearGradient id="paint1_linear_9_474" x1="67.8488" y1="7.50355" x2="61.4153" y2="27.7466" gradientUnits="userSpaceOnUse">
<stop offset="0.02" stop-color="#0000FF"/>
<stop offset="0.08" stop-color="#0094FF"/>
<stop offset="0.16" stop-color="#48FF91"/>
<stop offset="0.42" stop-color="#0094FF"/>
<stop offset="0.68" stop-color="#0038FF"/>
<stop offset="0.9" stop-color="#0500FF"/>
</linearGradient>
<clipPath id="clip0_9_474">
<rect width="34.0664" height="34.0664" fill="white" transform="translate(0.761597 0.930664)"/>
</clipPath>
<clipPath id="clip1_9_474">
<rect width="34.0664" height="34.0664" fill="white" transform="translate(22.6614 0.930664)"/>
</clipPath>
<clipPath id="clip2_9_474">
<rect width="34.0664" height="34.0664" fill="white" transform="translate(44.5613 0.930664)"/>
</clipPath>
<clipPath id="clip3_9_474">
<rect width="34.0664" height="34.0664" fill="white" transform="translate(66.4611 0.930664)"/>
</clipPath>
</defs>
</svg>
