<svg width="376" height="1036" viewBox="0 0 376 1036" fill="none" xmlns="http://www.w3.org/2000/svg">
<g filter="url(#filter0_f_8_345)">
<path d="M389.791 799.55C463.647 828.42 637.386 607.617 639.486 603.339C733.324 450.092 468.908 523.336 461.325 524.647C557.553 697.727 386.301 740.362 389.791 799.55Z" fill="#FF3748"/>
<path d="M333.176 743.462C403.436 768.309 560.288 556.054 562.137 551.98C645.861 405.47 422.02 425.055 414.931 426.513C461.494 577.209 404.003 648.165 333.176 743.462Z" fill="#FF37CA"/>
<path d="M378.286 727.943C475.574 689.566 503.659 554.274 483.579 514.042C408.467 436.057 300.634 305.777 379.214 461.519C467.245 635.992 232.141 785.592 378.286 727.943Z" fill="#5237FF"/>
<path d="M363.251 709.441C375.023 740.503 480.615 621.26 513.488 544.021C534.212 414.043 418.541 350.721 421.887 486.185C422.9 527.213 450.722 578.41 386.975 652.037C373.198 667.95 360.082 701.077 363.251 709.441Z" fill="white"/>
</g>
<g style="mix-blend-mode:color-dodge" filter="url(#filter1_f_8_345)">
<path d="M351.059 800.498C410.847 791.547 660.559 438.713 732.385 500.852C875.69 266.819 471.884 378.675 460.304 380.677C439.117 318.025 224.841 609.795 351.059 800.498Z" fill="#FF3748"/>
<path d="M378.831 762.156C449.091 787.003 605.943 574.748 607.792 570.674C691.517 424.164 467.675 443.749 460.587 445.206C507.149 595.902 449.658 666.859 378.831 762.156Z" fill="#FF37CA"/>
<path d="M359.941 598.725C457.23 560.348 485.315 425.056 465.235 384.824C390.122 306.838 282.29 176.558 360.87 332.3C448.901 506.773 213.796 656.373 359.941 598.725Z" fill="#5237FF"/>
</g>
<defs>
<filter id="filter0_f_8_345" x="276.876" y="336.279" width="435.009" height="518.152" filterUnits="userSpaceOnUse" color-interpolation-filters="sRGB">
<feFlood flood-opacity="0" result="BackgroundImageFix"/>
<feBlend mode="normal" in="SourceGraphic" in2="BackgroundImageFix" result="shape"/>
<feGaussianBlur stdDeviation="26.139" result="effect1_foregroundBlur_8_345"/>
</filter>
<filter id="filter1_f_8_345" x="258.532" y="207.06" width="556.859" height="645.717" filterUnits="userSpaceOnUse" color-interpolation-filters="sRGB">
<feFlood flood-opacity="0" result="BackgroundImageFix"/>
<feBlend mode="normal" in="SourceGraphic" in2="BackgroundImageFix" result="shape"/>
<feGaussianBlur stdDeviation="26.139" result="effect1_foregroundBlur_8_345"/>
</filter>
</defs>
</svg>
