<svg width="325" height="870" viewBox="0 0 325 870" fill="none" xmlns="http://www.w3.org/2000/svg">
<g filter="url(#filter0_f_9_475)">
<path d="M-295.449 653.125C-237.587 707.349 5.70409 566.818 9.24219 563.626C153.263 456.163 -119.449 426.018 -126.976 424.42C-101.876 620.854 -276.718 596.871 -295.449 653.125Z" fill="#FF3748"/>
<path d="M-327.198 580.028C-271.182 629.181 -46.7443 490.32 -43.515 487.223C88.6144 382.262 -126.503 317.353 -133.626 316.075C-146.332 473.288 -226.055 517.833 -327.198 580.028Z" fill="#FF37CA"/>
<path d="M-286.642 559.603C-287.242 592.814 -144.93 521.29 -85.7333 461.773C-18.2393 348.776 -102.138 247.039 -149.319 374.065C-163.608 412.538 -156.78 470.405 -243.303 515.107C-262.003 524.769 -286.48 550.659 -286.642 559.603Z" fill="white"/>
</g>
<g style="mix-blend-mode:color-dodge" filter="url(#filter1_f_9_475)">
<path d="M-331.765 639.627C-272.926 653.509 89.9216 418.586 133.548 502.948C353.491 338.835 -62.9845 292.798 -74.4803 290.358C-70.8963 224.318 -378.171 415.695 -331.765 639.627Z" fill="#FF3748"/>
<path d="M-291.744 614.334C-235.728 663.488 -11.2909 524.626 -8.06159 521.529C124.068 416.569 -91.0493 351.66 -98.1725 350.381C-110.879 507.594 -190.602 552.139 -291.744 614.334Z" fill="#FF37CA"/>
</g>
<defs>
<filter id="filter0_f_9_475" x="-380.644" y="206.097" width="484.082" height="511.737" filterUnits="userSpaceOnUse" color-interpolation-filters="sRGB">
<feFlood flood-opacity="0" result="BackgroundImageFix"/>
<feBlend mode="normal" in="SourceGraphic" in2="BackgroundImageFix" result="shape"/>
<feGaussianBlur stdDeviation="26.139" result="effect1_foregroundBlur_9_475"/>
</filter>
<filter id="filter1_f_9_475" x="-388.818" y="79.3019" width="638.657" height="613.197" filterUnits="userSpaceOnUse" color-interpolation-filters="sRGB">
<feFlood flood-opacity="0" result="BackgroundImageFix"/>
<feBlend mode="normal" in="SourceGraphic" in2="BackgroundImageFix" result="shape"/>
<feGaussianBlur stdDeviation="26.139" result="effect1_foregroundBlur_9_475"/>
</filter>
</defs>
</svg>
