<svg width="394" height="1037" viewBox="0 0 394 1037" fill="none" xmlns="http://www.w3.org/2000/svg">
<g filter="url(#filter0_f_9_485)">
<path d="M354.784 800.102C428.64 828.973 602.38 608.169 604.48 603.891C698.318 450.644 433.901 523.889 426.319 525.2C522.546 698.28 351.295 740.915 354.784 800.102Z" fill="#FF3748"/>
<path d="M298.169 744.015C368.429 768.862 525.281 556.606 527.13 552.532C610.855 406.023 387.013 425.607 379.925 427.065C426.487 577.761 368.996 648.718 298.169 744.015Z" fill="#FF37CA"/>
<path d="M343.279 728.496C440.568 690.119 468.653 554.827 448.573 514.595C373.46 436.609 265.628 306.329 344.208 462.071C432.239 636.544 197.134 786.144 343.279 728.496Z" fill="#5237FF"/>
<path d="M328.245 709.994C340.016 741.055 445.608 621.813 478.481 544.574C499.205 414.595 383.535 351.273 386.88 486.737C387.894 527.765 415.716 578.962 351.969 652.59C338.191 668.503 325.075 701.629 328.245 709.994Z" fill="white"/>
</g>
<g style="mix-blend-mode:color-dodge" filter="url(#filter1_f_9_485)">
<path d="M316.052 801.051C375.84 792.099 625.552 439.265 697.378 501.404C840.683 267.371 436.877 379.227 425.297 381.23C404.11 318.578 189.834 610.347 316.052 801.051Z" fill="#FF3748"/>
<path d="M343.824 762.709C414.084 787.556 570.936 575.3 572.785 571.226C656.51 424.717 432.669 444.301 425.58 445.759C472.142 596.455 414.651 667.412 343.824 762.709Z" fill="#FF37CA"/>
<path d="M324.935 599.277C422.224 560.9 450.309 425.608 430.229 385.376C355.116 307.391 247.284 177.111 325.863 332.852C413.894 507.326 178.79 656.925 324.935 599.277Z" fill="#5237FF"/>
</g>
<defs>
<filter id="filter0_f_9_485" x="241.87" y="336.831" width="435.009" height="518.152" filterUnits="userSpaceOnUse" color-interpolation-filters="sRGB">
<feFlood flood-opacity="0" result="BackgroundImageFix"/>
<feBlend mode="normal" in="SourceGraphic" in2="BackgroundImageFix" result="shape"/>
<feGaussianBlur stdDeviation="26.139" result="effect1_foregroundBlur_9_485"/>
</filter>
<filter id="filter1_f_9_485" x="223.525" y="207.612" width="556.859" height="645.717" filterUnits="userSpaceOnUse" color-interpolation-filters="sRGB">
<feFlood flood-opacity="0" result="BackgroundImageFix"/>
<feBlend mode="normal" in="SourceGraphic" in2="BackgroundImageFix" result="shape"/>
<feGaussianBlur stdDeviation="26.139" result="effect1_foregroundBlur_9_485"/>
</filter>
</defs>
</svg>
