<svg width="374" height="997" viewBox="0 0 374 997" fill="none" xmlns="http://www.w3.org/2000/svg">
<g filter="url(#filter0_f_9_691)">
<path d="M43.9635 233.893C-25.6491 195.916 -225.915 392.976 -228.54 396.955C-341.003 537.105 -69.4472 497.885 -61.7596 497.544C-135.328 313.685 39.9405 293.047 43.9635 233.893Z" fill="#2ECA07"/>
<path d="M93.0314 296.69C26.4774 263.158 -155.956 453.875 -158.305 457.683C-259.885 592.429 -35.3637 601.307 -28.1476 600.757C-55.28 445.383 10.7221 382.266 93.0314 296.69Z" fill="#0AFFBE"/>
<path d="M46.3213 306.381C-55.0396 332.147 -100.007 462.801 -85.176 505.249C-20.5277 592.107 69.9644 734.977 11.7096 570.549C-53.5519 386.344 198.583 267.675 46.3213 306.381Z" fill="#379BFF"/>
<path d="M58.8951 326.635C51.1459 294.334 -68.6768 399.267 -111.053 471.729C-148.047 598.043 -41.3127 675.484 -27.5015 540.685C-23.3184 499.858 -44.443 445.554 28.1026 380.578C43.7815 366.535 60.9819 335.333 58.8951 326.635Z" fill="white"/>
</g>
<g style="mix-blend-mode:color-dodge" filter="url(#filter1_f_9_691)">
<path d="M82.504 237.851C22.0636 239.17 -270.261 557.594 -333.652 486.871C-505.402 700.904 -90.6925 641.009 -78.9523 640.487C-65.8574 705.315 183.593 442.984 82.504 237.851Z" fill="#2ECA07"/>
<path d="M50.1064 272.373C-16.4477 238.841 -198.881 429.558 -201.23 433.365C-302.81 568.111 -78.2887 576.99 -71.0727 576.44C-98.205 421.066 -32.2029 357.949 50.1064 272.373Z" fill="#0AFFBE"/>
<path d="M48.1777 436.882C-53.1831 462.648 -98.1509 593.302 -83.3196 635.75C-18.6712 722.608 71.8208 865.478 13.566 701.05C-51.6955 516.845 200.439 398.176 48.1777 436.882Z" fill="#379BFF"/>
</g>
<defs>
<filter id="filter0_f_9_691" x="-308.063" y="176.758" width="456.39" height="521.521" filterUnits="userSpaceOnUse" color-interpolation-filters="sRGB">
<feFlood flood-opacity="0" result="BackgroundImageFix"/>
<feBlend mode="normal" in="SourceGraphic" in2="BackgroundImageFix" result="shape"/>
<feGaussianBlur stdDeviation="26.139" result="effect1_foregroundBlur_9_691"/>
</filter>
<filter id="filter1_f_9_691" x="-427.539" y="185.572" width="586.372" height="643.207" filterUnits="userSpaceOnUse" color-interpolation-filters="sRGB">
<feFlood flood-opacity="0" result="BackgroundImageFix"/>
<feBlend mode="normal" in="SourceGraphic" in2="BackgroundImageFix" result="shape"/>
<feGaussianBlur stdDeviation="26.139" result="effect1_foregroundBlur_9_691"/>
</filter>
</defs>
</svg>
